<svg xmlns="http://www.w3.org/2000/svg" xmlns:xlink="http://www.w3.org/1999/xlink" x="0" y="0" width="964" height="530.9375" style="
        width:964px;
        height:530.9375px;
        background: transparent;
        fill: none;
">
        
        
        <svg xmlns="http://www.w3.org/2000/svg" class="role-diagram-draw-area"><g class="shapes-region" style="stroke: black; fill: none;"><g class="grouped-shape"><g class="composite-shape"><path class="real" d=" M76.11,44.05 L64.42,64.09 L41.03,64.09 L29.33,44.05 L41.03,24 L64.42,24 Z" style="stroke-width: 1; stroke: rgb(155, 155, 155); stroke-opacity: 1; fill: rgb(255, 255, 255); fill-opacity: 0;"/></g><g class="composite-shape"><path class="real" d=" M76.11,84.14 L64.42,104.19 L41.03,104.19 L29.33,84.14 L41.03,64.09 L64.42,64.09 Z" style="stroke-width: 1; stroke: rgb(155, 155, 155); stroke-opacity: 1; fill: rgb(255, 255, 255); fill-opacity: 0;"/></g><g class="composite-shape"><path class="real" d=" M76.11,124.24 L64.42,144.28 L41.03,144.28 L29.33,124.24 L41.03,104.19 L64.42,104.19 Z" style="stroke-width: 1; stroke: rgb(155, 155, 155); stroke-opacity: 1; fill: rgb(255, 255, 255); fill-opacity: 0;"/></g><g class="composite-shape"><path class="real" d=" M76.11,164.33 L64.42,184.38 L41.03,184.38 L29.33,164.33 L41.03,144.28 L64.42,144.28 Z" style="stroke-width: 1; stroke: rgb(155, 155, 155); stroke-opacity: 1; fill: rgb(255, 255, 255); fill-opacity: 0;"/></g><g class="composite-shape"><path class="real" d=" M76.11,244.52 L64.42,264.57 L41.03,264.57 L29.33,244.52 L41.03,224.47 L64.42,224.47 Z" style="stroke-width: 1; stroke: rgb(155, 155, 155); stroke-opacity: 1; fill: rgb(255, 255, 255); fill-opacity: 0;"/></g><g class="composite-shape"><path class="real" d=" M76.11,204.42 L64.42,224.47 L41.03,224.47 L29.33,204.42 L41.03,184.38 L64.42,184.38 Z" style="stroke-width: 1; stroke: rgb(155, 155, 155); stroke-opacity: 1; fill: rgb(255, 255, 255); fill-opacity: 0;"/></g><g class="composite-shape"><path class="real" d=" M76.11,284.61 L64.42,304.66 L41.03,304.66 L29.33,284.61 L41.03,264.57 L64.42,264.57 Z" style="stroke-width: 1; stroke: rgb(155, 155, 155); stroke-opacity: 1; fill: rgb(255, 255, 255); fill-opacity: 0;"/></g><g class="composite-shape"><path class="real" d=" M76.11,324.71 L64.42,344.75 L41.03,344.75 L29.33,324.71 L41.03,304.66 L64.42,304.66 Z" style="stroke-width: 1; stroke: rgb(155, 155, 155); stroke-opacity: 1; fill: rgb(255, 255, 255); fill-opacity: 0;"/></g><g class="composite-shape"><path class="real" d=" M76.11,364.8 L64.42,384.85 L41.03,384.85 L29.33,364.8 L41.03,344.75 L64.42,344.75 Z" style="stroke-width: 1; stroke: rgb(155, 155, 155); stroke-opacity: 1; fill: rgb(255, 255, 255); fill-opacity: 0;"/></g><g class="composite-shape"><path class="real" d=" M76.11,404.89 L64.42,424.94 L41.03,424.94 L29.33,404.89 L41.03,384.85 L64.42,384.85 Z" style="stroke-width: 1; stroke: rgb(155, 155, 155); stroke-opacity: 1; fill: rgb(255, 255, 255); fill-opacity: 0;"/></g><g class="composite-shape"><path class="real" d=" M111.2,64.09 L99.5,84.14 L76.11,84.14 L64.42,64.09 L76.11,44.05 L99.5,44.05 Z" style="stroke-width: 1; stroke: rgb(155, 155, 155); stroke-opacity: 1; fill: rgb(255, 255, 255); fill-opacity: 0;"/></g><g class="composite-shape"><path class="real" d=" M111.2,104.19 L99.5,124.24 L76.11,124.24 L64.42,104.19 L76.11,84.14 L99.5,84.14 Z" style="stroke-width: 1; stroke: rgb(155, 155, 155); stroke-opacity: 1; fill: rgb(255, 255, 255); fill-opacity: 0;"/></g><g class="composite-shape"><path class="real" d=" M111.2,144.28 L99.5,164.33 L76.11,164.33 L64.42,144.28 L76.11,124.24 L99.5,124.24 Z" style="stroke-width: 1; stroke: rgb(155, 155, 155); stroke-opacity: 1; fill: rgb(255, 255, 255); fill-opacity: 0;"/></g><g class="composite-shape"><path class="real" d=" M111.2,184.38 L99.5,204.42 L76.11,204.42 L64.42,184.38 L76.11,164.33 L99.5,164.33 Z" style="stroke-width: 1; stroke: rgb(155, 155, 155); stroke-opacity: 1; fill: rgb(255, 255, 255); fill-opacity: 0;"/></g><g class="composite-shape"><path class="real" d=" M111.2,264.57 L99.5,284.61 L76.11,284.61 L64.42,264.57 L76.11,244.52 L99.5,244.52 Z" style="stroke-width: 1; stroke: rgb(155, 155, 155); stroke-opacity: 1; fill: rgb(255, 255, 255); fill-opacity: 0;"/></g><g class="composite-shape"><path class="real" d=" M111.2,224.47 L99.5,244.52 L76.11,244.52 L64.42,224.47 L76.11,204.42 L99.5,204.42 Z" style="stroke-width: 1; stroke: rgb(155, 155, 155); stroke-opacity: 1; fill: rgb(255, 255, 255); fill-opacity: 0;"/></g><g class="composite-shape"><path class="real" d=" M111.2,304.66 L99.5,324.71 L76.11,324.71 L64.42,304.66 L76.11,284.61 L99.5,284.61 Z" style="stroke-width: 1; stroke: rgb(155, 155, 155); stroke-opacity: 1; fill: rgb(255, 255, 255); fill-opacity: 0;"/></g><g class="composite-shape"><path class="real" d=" M111.2,344.75 L99.5,364.8 L76.11,364.8 L64.42,344.75 L76.11,324.71 L99.5,324.71 Z" style="stroke-width: 1; stroke: rgb(155, 155, 155); stroke-opacity: 1; fill: rgb(255, 255, 255); fill-opacity: 0;"/></g><g class="composite-shape"><path class="real" d=" M111.2,384.85 L99.5,404.89 L76.11,404.89 L64.42,384.85 L76.11,364.8 L99.5,364.8 Z" style="stroke-width: 1; stroke: rgb(155, 155, 155); stroke-opacity: 1; fill: rgb(255, 255, 255); fill-opacity: 0;"/></g><g class="composite-shape"><path class="real" d=" M111.2,424.94 L99.5,444.99 L76.11,444.99 L64.42,424.94 L76.11,404.89 L99.5,404.89 Z" style="stroke-width: 1; stroke: rgb(155, 155, 155); stroke-opacity: 1; fill: rgb(255, 255, 255); fill-opacity: 0;"/></g><g class="grouped-shape"><g class="grouped-shape"><g class="composite-shape"><path class="real" d=" M146.28,44.05 L134.59,64.09 L111.2,64.09 L99.5,44.05 L111.2,24 L134.59,24 Z" style="stroke-width: 1; stroke: rgb(155, 155, 155); stroke-opacity: 1; fill: rgb(255, 255, 255); fill-opacity: 0;"/></g><g class="composite-shape"><path class="real" d=" M146.28,84.14 L134.59,104.19 L111.2,104.19 L99.5,84.14 L111.2,64.09 L134.59,64.09 Z" style="stroke-width: 1; stroke: rgb(155, 155, 155); stroke-opacity: 1; fill: rgb(255, 255, 255); fill-opacity: 0;"/></g><g class="composite-shape"><path class="real" d=" M146.28,124.24 L134.59,144.28 L111.2,144.28 L99.5,124.24 L111.2,104.19 L134.59,104.19 Z" style="stroke-width: 1; stroke: rgb(155, 155, 155); stroke-opacity: 1; fill: rgb(255, 255, 255); fill-opacity: 0;"/></g><g class="composite-shape"><path class="real" d=" M146.28,164.33 L134.59,184.38 L111.2,184.38 L99.5,164.33 L111.2,144.28 L134.59,144.28 Z" style="stroke-width: 1; stroke: rgb(155, 155, 155); stroke-opacity: 1; fill: rgb(255, 255, 255); fill-opacity: 0;"/></g><g class="composite-shape"><path class="real" d=" M146.28,244.52 L134.59,264.57 L111.2,264.57 L99.5,244.52 L111.2,224.47 L134.59,224.47 Z" style="stroke-width: 1; stroke: rgb(155, 155, 155); stroke-opacity: 1; fill: rgb(255, 255, 255); fill-opacity: 0;"/></g><g class="composite-shape"><path class="real" d=" M146.28,204.42 L134.59,224.47 L111.2,224.47 L99.5,204.42 L111.2,184.38 L134.59,184.38 Z" style="stroke-width: 1; stroke: rgb(155, 155, 155); stroke-opacity: 1; fill: rgb(255, 255, 255); fill-opacity: 0;"/></g><g class="composite-shape"><path class="real" d=" M146.28,284.61 L134.59,304.66 L111.2,304.66 L99.5,284.61 L111.2,264.57 L134.59,264.57 Z" style="stroke-width: 1; stroke: rgb(155, 155, 155); stroke-opacity: 1; fill: rgb(255, 255, 255); fill-opacity: 0;"/></g><g class="composite-shape"><path class="real" d=" M146.28,324.71 L134.59,344.75 L111.2,344.75 L99.5,324.71 L111.2,304.66 L134.59,304.66 Z" style="stroke-width: 1; stroke: rgb(155, 155, 155); stroke-opacity: 1; fill: rgb(255, 255, 255); fill-opacity: 0;"/></g><g class="composite-shape"><path class="real" d=" M146.28,364.8 L134.59,384.85 L111.2,384.85 L99.5,364.8 L111.2,344.75 L134.59,344.75 Z" style="stroke-width: 1; stroke: rgb(155, 155, 155); stroke-opacity: 1; fill: rgb(255, 255, 255); fill-opacity: 0;"/></g><g class="composite-shape"><path class="real" d=" M146.28,404.89 L134.59,424.94 L111.2,424.94 L99.5,404.89 L111.2,384.85 L134.59,384.85 Z" style="stroke-width: 1; stroke: rgb(155, 155, 155); stroke-opacity: 1; fill: rgb(255, 255, 255); fill-opacity: 0;"/></g></g><g class="composite-shape"><path class="real" d=" M181.37,64.09 L169.67,84.14 L146.28,84.14 L134.59,64.09 L146.28,44.05 L169.67,44.05 Z" style="stroke-width: 1; stroke: rgb(155, 155, 155); stroke-opacity: 1; fill: rgb(255, 255, 255); fill-opacity: 0;"/></g><g class="composite-shape"><path class="real" d=" M181.37,104.19 L169.67,124.24 L146.28,124.24 L134.59,104.19 L146.28,84.14 L169.67,84.14 Z" style="stroke-width: 1; stroke: rgb(155, 155, 155); stroke-opacity: 1; fill: rgb(255, 255, 255); fill-opacity: 0;"/></g><g class="composite-shape"><path class="real" d=" M181.37,144.28 L169.67,164.33 L146.28,164.33 L134.59,144.28 L146.28,124.24 L169.67,124.24 Z" style="stroke-width: 1; stroke: rgb(155, 155, 155); stroke-opacity: 1; fill: rgb(255, 255, 255); fill-opacity: 0;"/></g><g class="composite-shape"><path class="real" d=" M181.37,184.38 L169.67,204.42 L146.28,204.42 L134.59,184.38 L146.28,164.33 L169.67,164.33 Z" style="stroke-width: 1; stroke: rgb(155, 155, 155); stroke-opacity: 1; fill: rgb(255, 255, 255); fill-opacity: 0;"/></g><g class="composite-shape"><path class="real" d=" M181.37,264.57 L169.67,284.61 L146.28,284.61 L134.59,264.57 L146.28,244.52 L169.67,244.52 Z" style="stroke-width: 1; stroke: rgb(155, 155, 155); stroke-opacity: 1; fill: rgb(255, 255, 255); fill-opacity: 0;"/></g><g class="composite-shape"><path class="real" d=" M181.37,224.47 L169.67,244.52 L146.28,244.52 L134.59,224.47 L146.28,204.42 L169.67,204.42 Z" style="stroke-width: 1; stroke: rgb(155, 155, 155); stroke-opacity: 1; fill: rgb(255, 255, 255); fill-opacity: 0;"/></g><g class="composite-shape"><path class="real" d=" M181.37,304.66 L169.67,324.71 L146.28,324.71 L134.59,304.66 L146.28,284.61 L169.67,284.61 Z" style="stroke-width: 1; stroke: rgb(155, 155, 155); stroke-opacity: 1; fill: rgb(255, 255, 255); fill-opacity: 0;"/></g><g class="composite-shape"><path class="real" d=" M181.37,344.75 L169.67,364.8 L146.28,364.8 L134.59,344.75 L146.28,324.71 L169.67,324.71 Z" style="stroke-width: 1; stroke: rgb(155, 155, 155); stroke-opacity: 1; fill: rgb(255, 255, 255); fill-opacity: 0;"/></g><g class="composite-shape"><path class="real" d=" M181.37,384.85 L169.67,404.89 L146.28,404.89 L134.59,384.85 L146.28,364.8 L169.67,364.8 Z" style="stroke-width: 1; stroke: rgb(155, 155, 155); stroke-opacity: 1; fill: rgb(255, 255, 255); fill-opacity: 0;"/></g><g class="composite-shape"><path class="real" d=" M181.37,424.94 L169.67,444.99 L146.28,444.99 L134.59,424.94 L146.28,404.89 L169.67,404.89 Z" style="stroke-width: 1; stroke: rgb(155, 155, 155); stroke-opacity: 1; fill: rgb(255, 255, 255); fill-opacity: 0;"/></g></g><g class="grouped-shape"><g class="grouped-shape"><g class="composite-shape"><path class="real" d=" M216.45,44.05 L204.76,64.09 L181.37,64.09 L169.67,44.05 L181.37,24 L204.76,24 Z" style="stroke-width: 1; stroke: rgb(155, 155, 155); stroke-opacity: 1; fill: rgb(255, 255, 255); fill-opacity: 0;"/></g><g class="composite-shape"><path class="real" d=" M216.45,84.14 L204.76,104.19 L181.37,104.19 L169.67,84.14 L181.37,64.09 L204.76,64.09 Z" style="stroke-width: 1; stroke: rgb(155, 155, 155); stroke-opacity: 1; fill: rgb(255, 255, 255); fill-opacity: 0;"/></g><g class="composite-shape"><path class="real" d=" M216.45,124.24 L204.76,144.28 L181.37,144.28 L169.67,124.24 L181.37,104.19 L204.76,104.19 Z" style="stroke-width: 1; stroke: rgb(155, 155, 155); stroke-opacity: 1; fill: rgb(255, 255, 255); fill-opacity: 0;"/></g><g class="composite-shape"><path class="real" d=" M216.45,164.33 L204.76,184.38 L181.37,184.38 L169.67,164.33 L181.37,144.28 L204.76,144.28 Z" style="stroke-width: 1; stroke: rgb(155, 155, 155); stroke-opacity: 1; fill: rgb(255, 255, 255); fill-opacity: 0;"/></g><g class="composite-shape"><path class="real" d=" M216.45,244.52 L204.76,264.57 L181.37,264.57 L169.67,244.52 L181.37,224.47 L204.76,224.47 Z" style="stroke-width: 1; stroke: rgb(155, 155, 155); stroke-opacity: 1; fill: rgb(255, 255, 255); fill-opacity: 0;"/></g><g class="composite-shape"><path class="real" d=" M216.45,204.42 L204.76,224.47 L181.37,224.47 L169.67,204.42 L181.37,184.38 L204.76,184.38 Z" style="stroke-width: 1; stroke: rgb(155, 155, 155); stroke-opacity: 1; fill: rgb(255, 255, 255); fill-opacity: 0;"/></g><g class="composite-shape"><path class="real" d=" M216.45,284.61 L204.76,304.66 L181.37,304.66 L169.67,284.61 L181.37,264.57 L204.76,264.57 Z" style="stroke-width: 1; stroke: rgb(155, 155, 155); stroke-opacity: 1; fill: rgb(255, 255, 255); fill-opacity: 0;"/></g><g class="composite-shape"><path class="real" d=" M216.45,324.71 L204.76,344.75 L181.37,344.75 L169.67,324.71 L181.37,304.66 L204.76,304.66 Z" style="stroke-width: 1; stroke: rgb(155, 155, 155); stroke-opacity: 1; fill: rgb(255, 255, 255); fill-opacity: 0;"/></g><g class="composite-shape"><path class="real" d=" M216.45,364.8 L204.76,384.85 L181.37,384.85 L169.67,364.8 L181.37,344.75 L204.76,344.75 Z" style="stroke-width: 1; stroke: rgb(155, 155, 155); stroke-opacity: 1; fill: rgb(255, 255, 255); fill-opacity: 0;"/></g><g class="composite-shape"><path class="real" d=" M216.45,404.89 L204.76,424.94 L181.37,424.94 L169.67,404.89 L181.37,384.85 L204.76,384.85 Z" style="stroke-width: 1; stroke: rgb(155, 155, 155); stroke-opacity: 1; fill: rgb(255, 255, 255); fill-opacity: 0;"/></g></g><g class="composite-shape"><path class="real" d=" M251.54,64.09 L239.84,84.14 L216.45,84.14 L204.76,64.09 L216.45,44.05 L239.84,44.05 Z" style="stroke-width: 1; stroke: rgb(155, 155, 155); stroke-opacity: 1; fill: rgb(255, 255, 255); fill-opacity: 0;"/></g><g class="composite-shape"><path class="real" d=" M251.54,104.19 L239.84,124.24 L216.45,124.24 L204.76,104.19 L216.45,84.14 L239.84,84.14 Z" style="stroke-width: 1; stroke: rgb(155, 155, 155); stroke-opacity: 1; fill: rgb(255, 255, 255); fill-opacity: 0;"/></g><g class="composite-shape"><path class="real" d=" M251.54,144.28 L239.84,164.33 L216.45,164.33 L204.76,144.28 L216.45,124.24 L239.84,124.24 Z" style="stroke-width: 1; stroke: rgb(155, 155, 155); stroke-opacity: 1; fill: rgb(255, 255, 255); fill-opacity: 0;"/></g><g class="composite-shape"><path class="real" d=" M251.54,184.38 L239.84,204.42 L216.45,204.42 L204.76,184.38 L216.45,164.33 L239.84,164.33 Z" style="stroke-width: 1; stroke: rgb(155, 155, 155); stroke-opacity: 1; fill: rgb(255, 255, 255); fill-opacity: 0;"/></g><g class="composite-shape"><path class="real" d=" M251.54,264.57 L239.84,284.61 L216.45,284.61 L204.76,264.57 L216.45,244.52 L239.84,244.52 Z" style="stroke-width: 1; stroke: rgb(155, 155, 155); stroke-opacity: 1; fill: rgb(255, 255, 255); fill-opacity: 0;"/></g><g class="composite-shape"><path class="real" d=" M251.54,224.47 L239.84,244.52 L216.45,244.52 L204.76,224.47 L216.45,204.42 L239.84,204.42 Z" style="stroke-width: 1; stroke: rgb(155, 155, 155); stroke-opacity: 1; fill: rgb(255, 255, 255); fill-opacity: 0;"/></g><g class="composite-shape"><path class="real" d=" M251.54,304.66 L239.84,324.71 L216.45,324.71 L204.76,304.66 L216.45,284.61 L239.84,284.61 Z" style="stroke-width: 1; stroke: rgb(155, 155, 155); stroke-opacity: 1; fill: rgb(255, 255, 255); fill-opacity: 0;"/></g><g class="composite-shape"><path class="real" d=" M251.54,344.75 L239.84,364.8 L216.45,364.8 L204.76,344.75 L216.45,324.71 L239.84,324.71 Z" style="stroke-width: 1; stroke: rgb(155, 155, 155); stroke-opacity: 1; fill: rgb(255, 255, 255); fill-opacity: 0;"/></g><g class="composite-shape"><path class="real" d=" M251.54,384.85 L239.84,404.89 L216.45,404.89 L204.76,384.85 L216.45,364.8 L239.84,364.8 Z" style="stroke-width: 1; stroke: rgb(155, 155, 155); stroke-opacity: 1; fill: rgb(255, 255, 255); fill-opacity: 0;"/></g><g class="composite-shape"><path class="real" d=" M251.54,424.94 L239.84,444.99 L216.45,444.99 L204.76,424.94 L216.45,404.89 L239.84,404.89 Z" style="stroke-width: 1; stroke: rgb(155, 155, 155); stroke-opacity: 1; fill: rgb(255, 255, 255); fill-opacity: 0;"/></g></g><g class="grouped-shape"><g class="composite-shape"><path class="real" d=" M286.62,44.05 L274.93,64.09 L251.54,64.09 L239.84,44.05 L251.54,24 L274.93,24 Z" style="stroke-width: 1; stroke: rgb(155, 155, 155); stroke-opacity: 1; fill: rgb(255, 255, 255); fill-opacity: 0;"/></g><g class="composite-shape"><path class="real" d=" M286.62,84.14 L274.93,104.19 L251.54,104.19 L239.84,84.14 L251.54,64.09 L274.93,64.09 Z" style="stroke-width: 1; stroke: rgb(155, 155, 155); stroke-opacity: 1; fill: rgb(255, 255, 255); fill-opacity: 0;"/></g><g class="composite-shape"><path class="real" d=" M286.62,124.24 L274.93,144.28 L251.54,144.28 L239.84,124.24 L251.54,104.19 L274.93,104.19 Z" style="stroke-width: 1; stroke: rgb(155, 155, 155); stroke-opacity: 1; fill: rgb(255, 255, 255); fill-opacity: 0;"/></g><g class="composite-shape"><path class="real" d=" M286.62,164.33 L274.93,184.38 L251.54,184.38 L239.84,164.33 L251.54,144.28 L274.93,144.28 Z" style="stroke-width: 1; stroke: rgb(155, 155, 155); stroke-opacity: 1; fill: rgb(255, 255, 255); fill-opacity: 0;"/></g><g class="composite-shape"><path class="real" d=" M286.62,244.52 L274.93,264.57 L251.54,264.57 L239.84,244.52 L251.54,224.47 L274.93,224.47 Z" style="stroke-width: 1; stroke: rgb(155, 155, 155); stroke-opacity: 1; fill: rgb(255, 255, 255); fill-opacity: 0;"/></g><g class="composite-shape"><path class="real" d=" M286.62,204.42 L274.93,224.47 L251.54,224.47 L239.84,204.42 L251.54,184.38 L274.93,184.38 Z" style="stroke-width: 1; stroke: rgb(155, 155, 155); stroke-opacity: 1; fill: rgb(255, 255, 255); fill-opacity: 0;"/></g><g class="composite-shape"><path class="real" d=" M286.62,284.61 L274.93,304.66 L251.54,304.66 L239.84,284.61 L251.54,264.57 L274.93,264.57 Z" style="stroke-width: 1; stroke: rgb(155, 155, 155); stroke-opacity: 1; fill: rgb(255, 255, 255); fill-opacity: 0;"/></g><g class="composite-shape"><path class="real" d=" M286.62,324.71 L274.93,344.75 L251.54,344.75 L239.84,324.71 L251.54,304.66 L274.93,304.66 Z" style="stroke-width: 1; stroke: rgb(155, 155, 155); stroke-opacity: 1; fill: rgb(255, 255, 255); fill-opacity: 0;"/></g><g class="composite-shape"><path class="real" d=" M286.62,364.8 L274.93,384.85 L251.54,384.85 L239.84,364.8 L251.54,344.75 L274.93,344.75 Z" style="stroke-width: 1; stroke: rgb(155, 155, 155); stroke-opacity: 1; fill: rgb(255, 255, 255); fill-opacity: 0;"/></g><g class="composite-shape"><path class="real" d=" M286.62,404.89 L274.93,424.94 L251.54,424.94 L239.84,404.89 L251.54,384.85 L274.93,384.85 Z" style="stroke-width: 1; stroke: rgb(155, 155, 155); stroke-opacity: 1; fill: rgb(255, 255, 255); fill-opacity: 0;"/></g></g><g class="composite-shape"><path class="real" d=" M321.71,64.09 L310.01,84.14 L286.62,84.14 L274.93,64.09 L286.62,44.05 L310.01,44.05 Z" style="stroke-width: 1; stroke: rgb(155, 155, 155); stroke-opacity: 1; fill: rgb(255, 255, 255); fill-opacity: 0;"/></g><g class="composite-shape"><path class="real" d=" M321.71,104.19 L310.01,124.24 L286.62,124.24 L274.93,104.19 L286.62,84.14 L310.01,84.14 Z" style="stroke-width: 1; stroke: rgb(155, 155, 155); stroke-opacity: 1; fill: rgb(255, 255, 255); fill-opacity: 0;"/></g><g class="composite-shape"><path class="real" d=" M321.71,144.28 L310.01,164.33 L286.62,164.33 L274.93,144.28 L286.62,124.24 L310.01,124.24 Z" style="stroke-width: 1; stroke: rgb(155, 155, 155); stroke-opacity: 1; fill: rgb(255, 255, 255); fill-opacity: 0;"/></g><g class="composite-shape"><path class="real" d=" M321.71,184.38 L310.01,204.42 L286.62,204.42 L274.93,184.38 L286.62,164.33 L310.01,164.33 Z" style="stroke-width: 1; stroke: rgb(155, 155, 155); stroke-opacity: 1; fill: rgb(255, 255, 255); fill-opacity: 0;"/></g><g class="composite-shape"><path class="real" d=" M321.71,264.57 L310.01,284.61 L286.62,284.61 L274.93,264.57 L286.62,244.52 L310.01,244.52 Z" style="stroke-width: 1; stroke: rgb(155, 155, 155); stroke-opacity: 1; fill: rgb(255, 255, 255); fill-opacity: 0;"/></g><g class="composite-shape"><path class="real" d=" M321.71,224.47 L310.01,244.52 L286.62,244.52 L274.93,224.47 L286.62,204.42 L310.01,204.42 Z" style="stroke-width: 1; stroke: rgb(155, 155, 155); stroke-opacity: 1; fill: rgb(255, 255, 255); fill-opacity: 0;"/></g><g class="composite-shape"><path class="real" d=" M321.71,304.66 L310.01,324.71 L286.62,324.71 L274.93,304.66 L286.62,284.61 L310.01,284.61 Z" style="stroke-width: 1; stroke: rgb(155, 155, 155); stroke-opacity: 1; fill: rgb(255, 255, 255); fill-opacity: 0;"/></g><g class="composite-shape"><path class="real" d=" M321.71,344.75 L310.01,364.8 L286.62,364.8 L274.93,344.75 L286.62,324.71 L310.01,324.71 Z" style="stroke-width: 1; stroke: rgb(155, 155, 155); stroke-opacity: 1; fill: rgb(255, 255, 255); fill-opacity: 0;"/></g><g class="composite-shape"><path class="real" d=" M321.71,384.85 L310.01,404.89 L286.62,404.89 L274.93,384.85 L286.62,364.8 L310.01,364.8 Z" style="stroke-width: 1; stroke: rgb(155, 155, 155); stroke-opacity: 1; fill: rgb(255, 255, 255); fill-opacity: 0;"/></g><g class="composite-shape"><path class="real" d=" M321.71,424.94 L310.01,444.99 L286.62,444.99 L274.93,424.94 L286.62,404.89 L310.01,404.89 Z" style="stroke-width: 1; stroke: rgb(155, 155, 155); stroke-opacity: 1; fill: rgb(255, 255, 255); fill-opacity: 0;"/></g><g class="grouped-shape"><g class="grouped-shape"><g class="composite-shape"><path class="real" d=" M356.79,44.05 L345.1,64.09 L321.71,64.09 L310.01,44.05 L321.71,24 L345.1,24 Z" style="stroke-width: 1; stroke: rgb(155, 155, 155); stroke-opacity: 1; fill: rgb(255, 255, 255); fill-opacity: 0;"/></g><g class="composite-shape"><path class="real" d=" M356.79,84.14 L345.1,104.19 L321.71,104.19 L310.01,84.14 L321.71,64.09 L345.1,64.09 Z" style="stroke-width: 1; stroke: rgb(155, 155, 155); stroke-opacity: 1; fill: rgb(255, 255, 255); fill-opacity: 0;"/></g><g class="composite-shape"><path class="real" d=" M356.79,124.24 L345.1,144.28 L321.71,144.28 L310.01,124.24 L321.71,104.19 L345.1,104.19 Z" style="stroke-width: 1; stroke: rgb(155, 155, 155); stroke-opacity: 1; fill: rgb(255, 255, 255); fill-opacity: 0;"/></g><g class="composite-shape"><path class="real" d=" M356.79,164.33 L345.1,184.38 L321.71,184.38 L310.01,164.33 L321.71,144.28 L345.1,144.28 Z" style="stroke-width: 1; stroke: rgb(155, 155, 155); stroke-opacity: 1; fill: rgb(255, 255, 255); fill-opacity: 0;"/></g><g class="composite-shape"><path class="real" d=" M356.79,244.52 L345.1,264.57 L321.71,264.57 L310.01,244.52 L321.71,224.47 L345.1,224.47 Z" style="stroke-width: 1; stroke: rgb(155, 155, 155); stroke-opacity: 1; fill: rgb(255, 255, 255); fill-opacity: 0;"/></g><g class="composite-shape"><path class="real" d=" M356.79,204.42 L345.1,224.47 L321.71,224.47 L310.01,204.42 L321.71,184.38 L345.1,184.38 Z" style="stroke-width: 1; stroke: rgb(155, 155, 155); stroke-opacity: 1; fill: rgb(255, 255, 255); fill-opacity: 0;"/></g><g class="composite-shape"><path class="real" d=" M356.79,284.61 L345.1,304.66 L321.71,304.66 L310.01,284.61 L321.71,264.57 L345.1,264.57 Z" style="stroke-width: 1; stroke: rgb(155, 155, 155); stroke-opacity: 1; fill: rgb(255, 255, 255); fill-opacity: 0;"/></g><g class="composite-shape"><path class="real" d=" M356.79,324.71 L345.1,344.75 L321.71,344.75 L310.01,324.71 L321.71,304.66 L345.1,304.66 Z" style="stroke-width: 1; stroke: rgb(155, 155, 155); stroke-opacity: 1; fill: rgb(255, 255, 255); fill-opacity: 0;"/></g><g class="composite-shape"><path class="real" d=" M356.79,364.8 L345.1,384.85 L321.71,384.85 L310.01,364.8 L321.71,344.75 L345.1,344.75 Z" style="stroke-width: 1; stroke: rgb(155, 155, 155); stroke-opacity: 1; fill: rgb(255, 255, 255); fill-opacity: 0;"/></g><g class="composite-shape"><path class="real" d=" M356.79,404.89 L345.1,424.94 L321.71,424.94 L310.01,404.89 L321.71,384.85 L345.1,384.85 Z" style="stroke-width: 1; stroke: rgb(155, 155, 155); stroke-opacity: 1; fill: rgb(255, 255, 255); fill-opacity: 0;"/></g></g><g class="composite-shape"><path class="real" d=" M391.88,64.09 L380.18,84.14 L356.79,84.14 L345.1,64.09 L356.79,44.05 L380.18,44.05 Z" style="stroke-width: 1; stroke: rgb(155, 155, 155); stroke-opacity: 1; fill: rgb(255, 255, 255); fill-opacity: 0;"/></g><g class="composite-shape"><path class="real" d=" M391.88,104.19 L380.18,124.24 L356.79,124.24 L345.1,104.19 L356.79,84.14 L380.18,84.14 Z" style="stroke-width: 1; stroke: rgb(155, 155, 155); stroke-opacity: 1; fill: rgb(255, 255, 255); fill-opacity: 0;"/></g><g class="composite-shape"><path class="real" d=" M391.88,144.28 L380.18,164.33 L356.79,164.33 L345.1,144.28 L356.79,124.24 L380.18,124.24 Z" style="stroke-width: 1; stroke: rgb(155, 155, 155); stroke-opacity: 1; fill: rgb(255, 255, 255); fill-opacity: 0;"/></g><g class="composite-shape"><path class="real" d=" M391.88,184.38 L380.18,204.42 L356.79,204.42 L345.1,184.38 L356.79,164.33 L380.18,164.33 Z" style="stroke-width: 1; stroke: rgb(155, 155, 155); stroke-opacity: 1; fill: rgb(255, 255, 255); fill-opacity: 0;"/></g><g class="composite-shape"><path class="real" d=" M391.88,264.57 L380.18,284.61 L356.79,284.61 L345.1,264.57 L356.79,244.52 L380.18,244.52 Z" style="stroke-width: 1; stroke: rgb(155, 155, 155); stroke-opacity: 1; fill: rgb(255, 255, 255); fill-opacity: 0;"/></g><g class="composite-shape"><path class="real" d=" M391.88,224.47 L380.18,244.52 L356.79,244.52 L345.1,224.47 L356.79,204.42 L380.18,204.42 Z" style="stroke-width: 1; stroke: rgb(155, 155, 155); stroke-opacity: 1; fill: rgb(255, 255, 255); fill-opacity: 0;"/></g><g class="composite-shape"><path class="real" d=" M391.88,304.66 L380.18,324.71 L356.79,324.71 L345.1,304.66 L356.79,284.61 L380.18,284.61 Z" style="stroke-width: 1; stroke: rgb(155, 155, 155); stroke-opacity: 1; fill: rgb(255, 255, 255); fill-opacity: 0;"/></g><g class="composite-shape"><path class="real" d=" M391.88,344.75 L380.18,364.8 L356.79,364.8 L345.1,344.75 L356.79,324.71 L380.18,324.71 Z" style="stroke-width: 1; stroke: rgb(155, 155, 155); stroke-opacity: 1; fill: rgb(255, 255, 255); fill-opacity: 0;"/></g><g class="composite-shape"><path class="real" d=" M391.88,384.85 L380.18,404.89 L356.79,404.89 L345.1,384.85 L356.79,364.8 L380.18,364.8 Z" style="stroke-width: 1; stroke: rgb(155, 155, 155); stroke-opacity: 1; fill: rgb(255, 255, 255); fill-opacity: 0;"/></g><g class="composite-shape"><path class="real" d=" M391.88,424.94 L380.18,444.99 L356.79,444.99 L345.1,424.94 L356.79,404.89 L380.18,404.89 Z" style="stroke-width: 1; stroke: rgb(155, 155, 155); stroke-opacity: 1; fill: rgb(255, 255, 255); fill-opacity: 0;"/></g></g><g class="grouped-shape"><g class="grouped-shape"><g class="composite-shape"><path class="real" d=" M426.96,44.05 L415.27,64.09 L391.88,64.09 L380.18,44.05 L391.88,24 L415.27,24 Z" style="stroke-width: 1; stroke: rgb(155, 155, 155); stroke-opacity: 1; fill: rgb(255, 255, 255); fill-opacity: 0;"/></g><g class="composite-shape"><path class="real" d=" M426.96,84.14 L415.27,104.19 L391.88,104.19 L380.18,84.14 L391.88,64.09 L415.27,64.09 Z" style="stroke-width: 1; stroke: rgb(155, 155, 155); stroke-opacity: 1; fill: rgb(255, 255, 255); fill-opacity: 0;"/></g><g class="composite-shape"><path class="real" d=" M426.96,124.24 L415.27,144.28 L391.88,144.28 L380.18,124.24 L391.88,104.19 L415.27,104.19 Z" style="stroke-width: 1; stroke: rgb(155, 155, 155); stroke-opacity: 1; fill: rgb(255, 255, 255); fill-opacity: 0;"/></g><g class="composite-shape"><path class="real" d=" M426.96,164.33 L415.27,184.38 L391.88,184.38 L380.18,164.33 L391.88,144.28 L415.27,144.28 Z" style="stroke-width: 1; stroke: rgb(155, 155, 155); stroke-opacity: 1; fill: rgb(255, 255, 255); fill-opacity: 0;"/></g><g class="composite-shape"><path class="real" d=" M426.96,244.52 L415.27,264.57 L391.88,264.57 L380.18,244.52 L391.88,224.47 L415.27,224.47 Z" style="stroke-width: 1; stroke: rgb(155, 155, 155); stroke-opacity: 1; fill: rgb(255, 255, 255); fill-opacity: 0;"/></g><g class="composite-shape"><path class="real" d=" M426.96,204.42 L415.27,224.47 L391.88,224.47 L380.18,204.42 L391.88,184.38 L415.27,184.38 Z" style="stroke-width: 1; stroke: rgb(155, 155, 155); stroke-opacity: 1; fill: rgb(255, 255, 255); fill-opacity: 0;"/></g><g class="composite-shape"><path class="real" d=" M426.96,284.61 L415.27,304.66 L391.88,304.66 L380.18,284.61 L391.88,264.57 L415.27,264.57 Z" style="stroke-width: 1; stroke: rgb(155, 155, 155); stroke-opacity: 1; fill: rgb(255, 255, 255); fill-opacity: 0;"/></g><g class="composite-shape"><path class="real" d=" M426.96,324.71 L415.27,344.75 L391.88,344.75 L380.18,324.71 L391.88,304.66 L415.27,304.66 Z" style="stroke-width: 1; stroke: rgb(155, 155, 155); stroke-opacity: 1; fill: rgb(255, 255, 255); fill-opacity: 0;"/></g><g class="composite-shape"><path class="real" d=" M426.96,364.8 L415.27,384.85 L391.88,384.85 L380.18,364.8 L391.88,344.75 L415.27,344.75 Z" style="stroke-width: 1; stroke: rgb(155, 155, 155); stroke-opacity: 1; fill: rgb(255, 255, 255); fill-opacity: 0;"/></g><g class="composite-shape"><path class="real" d=" M426.96,404.89 L415.27,424.94 L391.88,424.94 L380.18,404.89 L391.88,384.85 L415.27,384.85 Z" style="stroke-width: 1; stroke: rgb(155, 155, 155); stroke-opacity: 1; fill: rgb(255, 255, 255); fill-opacity: 0;"/></g></g><g class="composite-shape"><path class="real" d=" M462.05,64.09 L450.35,84.14 L426.96,84.14 L415.27,64.09 L426.96,44.05 L450.35,44.05 Z" style="stroke-width: 1; stroke: rgb(155, 155, 155); stroke-opacity: 1; fill: rgb(255, 255, 255); fill-opacity: 0;"/></g><g class="composite-shape"><path class="real" d=" M462.05,104.19 L450.35,124.24 L426.96,124.24 L415.27,104.19 L426.96,84.14 L450.35,84.14 Z" style="stroke-width: 1; stroke: rgb(155, 155, 155); stroke-opacity: 1; fill: rgb(255, 255, 255); fill-opacity: 0;"/></g><g class="composite-shape"><path class="real" d=" M462.05,144.28 L450.35,164.33 L426.96,164.33 L415.27,144.28 L426.96,124.24 L450.35,124.24 Z" style="stroke-width: 1; stroke: rgb(155, 155, 155); stroke-opacity: 1; fill: rgb(255, 255, 255); fill-opacity: 0;"/></g><g class="composite-shape"><path class="real" d=" M462.05,184.38 L450.35,204.42 L426.96,204.42 L415.27,184.38 L426.96,164.33 L450.35,164.33 Z" style="stroke-width: 1; stroke: rgb(155, 155, 155); stroke-opacity: 1; fill: rgb(255, 255, 255); fill-opacity: 0;"/></g><g class="composite-shape"><path class="real" d=" M462.05,264.57 L450.35,284.61 L426.96,284.61 L415.27,264.57 L426.96,244.52 L450.35,244.52 Z" style="stroke-width: 1; stroke: rgb(155, 155, 155); stroke-opacity: 1; fill: rgb(255, 255, 255); fill-opacity: 0;"/></g><g class="composite-shape"><path class="real" d=" M462.05,224.47 L450.35,244.52 L426.96,244.52 L415.27,224.47 L426.96,204.42 L450.35,204.42 Z" style="stroke-width: 1; stroke: rgb(155, 155, 155); stroke-opacity: 1; fill: rgb(255, 255, 255); fill-opacity: 0;"/></g><g class="composite-shape"><path class="real" d=" M462.05,304.66 L450.35,324.71 L426.96,324.71 L415.27,304.66 L426.96,284.61 L450.35,284.61 Z" style="stroke-width: 1; stroke: rgb(155, 155, 155); stroke-opacity: 1; fill: rgb(255, 255, 255); fill-opacity: 0;"/></g><g class="composite-shape"><path class="real" d=" M462.05,344.75 L450.35,364.8 L426.96,364.8 L415.27,344.75 L426.96,324.71 L450.35,324.71 Z" style="stroke-width: 1; stroke: rgb(155, 155, 155); stroke-opacity: 1; fill: rgb(255, 255, 255); fill-opacity: 0;"/></g><g class="composite-shape"><path class="real" d=" M462.05,384.85 L450.35,404.89 L426.96,404.89 L415.27,384.85 L426.96,364.8 L450.35,364.8 Z" style="stroke-width: 1; stroke: rgb(155, 155, 155); stroke-opacity: 1; fill: rgb(255, 255, 255); fill-opacity: 0;"/></g><g class="composite-shape"><path class="real" d=" M462.05,424.94 L450.35,444.99 L426.96,444.99 L415.27,424.94 L426.96,404.89 L450.35,404.89 Z" style="stroke-width: 1; stroke: rgb(155, 155, 155); stroke-opacity: 1; fill: rgb(255, 255, 255); fill-opacity: 0;"/></g></g><g class="grouped-shape"><g class="grouped-shape"><g class="composite-shape"><path class="real" d=" M497.13,44.05 L485.44,64.09 L462.05,64.09 L450.35,44.05 L462.05,24 L485.44,24 Z" style="stroke-width: 1; stroke: rgb(155, 155, 155); stroke-opacity: 1; fill: rgb(255, 255, 255); fill-opacity: 0;"/></g><g class="composite-shape"><path class="real" d=" M497.13,84.14 L485.44,104.19 L462.05,104.19 L450.35,84.14 L462.05,64.09 L485.44,64.09 Z" style="stroke-width: 1; stroke: rgb(155, 155, 155); stroke-opacity: 1; fill: rgb(255, 255, 255); fill-opacity: 0;"/></g><g class="composite-shape"><path class="real" d=" M497.13,124.24 L485.44,144.28 L462.05,144.28 L450.35,124.24 L462.05,104.19 L485.44,104.19 Z" style="stroke-width: 1; stroke: rgb(155, 155, 155); stroke-opacity: 1; fill: rgb(255, 255, 255); fill-opacity: 0;"/></g><g class="composite-shape"><path class="real" d=" M497.13,164.33 L485.44,184.38 L462.05,184.38 L450.35,164.33 L462.05,144.28 L485.44,144.28 Z" style="stroke-width: 1; stroke: rgb(155, 155, 155); stroke-opacity: 1; fill: rgb(255, 255, 255); fill-opacity: 0;"/></g><g class="composite-shape"><path class="real" d=" M497.13,244.52 L485.44,264.57 L462.05,264.57 L450.35,244.52 L462.05,224.47 L485.44,224.47 Z" style="stroke-width: 1; stroke: rgb(155, 155, 155); stroke-opacity: 1; fill: rgb(255, 255, 255); fill-opacity: 0;"/></g><g class="composite-shape"><path class="real" d=" M497.13,204.42 L485.44,224.47 L462.05,224.47 L450.35,204.42 L462.05,184.38 L485.44,184.38 Z" style="stroke-width: 1; stroke: rgb(155, 155, 155); stroke-opacity: 1; fill: rgb(255, 255, 255); fill-opacity: 0;"/></g><g class="composite-shape"><path class="real" d=" M497.13,284.61 L485.44,304.66 L462.05,304.66 L450.35,284.61 L462.05,264.57 L485.44,264.57 Z" style="stroke-width: 1; stroke: rgb(155, 155, 155); stroke-opacity: 1; fill: rgb(255, 255, 255); fill-opacity: 0;"/></g><g class="composite-shape"><path class="real" d=" M497.13,324.71 L485.44,344.75 L462.05,344.75 L450.35,324.71 L462.05,304.66 L485.44,304.66 Z" style="stroke-width: 1; stroke: rgb(155, 155, 155); stroke-opacity: 1; fill: rgb(255, 255, 255); fill-opacity: 0;"/></g><g class="composite-shape"><path class="real" d=" M497.13,364.8 L485.44,384.85 L462.05,384.85 L450.35,364.8 L462.05,344.75 L485.44,344.75 Z" style="stroke-width: 1; stroke: rgb(155, 155, 155); stroke-opacity: 1; fill: rgb(255, 255, 255); fill-opacity: 0;"/></g><g class="composite-shape"><path class="real" d=" M497.13,404.89 L485.44,424.94 L462.05,424.94 L450.35,404.89 L462.05,384.85 L485.44,384.85 Z" style="stroke-width: 1; stroke: rgb(155, 155, 155); stroke-opacity: 1; fill: rgb(255, 255, 255); fill-opacity: 0;"/></g></g><g class="composite-shape"><path class="real" d=" M532.22,64.09 L520.52,84.14 L497.13,84.14 L485.44,64.09 L497.13,44.05 L520.52,44.05 Z" style="stroke-width: 1; stroke: rgb(155, 155, 155); stroke-opacity: 1; fill: rgb(255, 255, 255); fill-opacity: 0;"/></g><g class="composite-shape"><path class="real" d=" M532.22,104.19 L520.52,124.24 L497.13,124.24 L485.44,104.19 L497.13,84.14 L520.52,84.14 Z" style="stroke-width: 1; stroke: rgb(155, 155, 155); stroke-opacity: 1; fill: rgb(255, 255, 255); fill-opacity: 0;"/></g><g class="composite-shape"><path class="real" d=" M532.22,144.28 L520.52,164.33 L497.13,164.33 L485.44,144.28 L497.13,124.24 L520.52,124.24 Z" style="stroke-width: 1; stroke: rgb(155, 155, 155); stroke-opacity: 1; fill: rgb(255, 255, 255); fill-opacity: 0;"/></g><g class="composite-shape"><path class="real" d=" M532.22,184.38 L520.52,204.42 L497.13,204.42 L485.44,184.38 L497.13,164.33 L520.52,164.33 Z" style="stroke-width: 1; stroke: rgb(155, 155, 155); stroke-opacity: 1; fill: rgb(255, 255, 255); fill-opacity: 0;"/></g><g class="composite-shape"><path class="real" d=" M532.22,264.57 L520.52,284.61 L497.13,284.61 L485.44,264.57 L497.13,244.52 L520.52,244.52 Z" style="stroke-width: 1; stroke: rgb(155, 155, 155); stroke-opacity: 1; fill: rgb(255, 255, 255); fill-opacity: 0;"/></g><g class="composite-shape"><path class="real" d=" M532.22,224.47 L520.52,244.52 L497.13,244.52 L485.44,224.47 L497.13,204.42 L520.52,204.42 Z" style="stroke-width: 1; stroke: rgb(155, 155, 155); stroke-opacity: 1; fill: rgb(255, 255, 255); fill-opacity: 0;"/></g><g class="composite-shape"><path class="real" d=" M532.22,304.66 L520.52,324.71 L497.13,324.71 L485.44,304.66 L497.13,284.61 L520.52,284.61 Z" style="stroke-width: 1; stroke: rgb(155, 155, 155); stroke-opacity: 1; fill: rgb(255, 255, 255); fill-opacity: 0;"/></g><g class="composite-shape"><path class="real" d=" M532.22,344.75 L520.52,364.8 L497.13,364.8 L485.44,344.75 L497.13,324.71 L520.52,324.71 Z" style="stroke-width: 1; stroke: rgb(155, 155, 155); stroke-opacity: 1; fill: rgb(255, 255, 255); fill-opacity: 0;"/></g><g class="composite-shape"><path class="real" d=" M532.22,384.85 L520.52,404.89 L497.13,404.89 L485.44,384.85 L497.13,364.8 L520.52,364.8 Z" style="stroke-width: 1; stroke: rgb(155, 155, 155); stroke-opacity: 1; fill: rgb(255, 255, 255); fill-opacity: 0;"/></g><g class="composite-shape"><path class="real" d=" M532.22,424.94 L520.52,444.99 L497.13,444.99 L485.44,424.94 L497.13,404.89 L520.52,404.89 Z" style="stroke-width: 1; stroke: rgb(155, 155, 155); stroke-opacity: 1; fill: rgb(255, 255, 255); fill-opacity: 0;"/></g></g><g class="arrow-line"><path class="connection real" stroke-dasharray="" d="  M134.59,184.38 L286.62,84.14" style="stroke: rgb(74, 144, 226); stroke-opacity: 1; stroke-width: 1; fill: rgb(255, 255, 255); fill-opacity: 0;"/></g><g class="arrow-line"><path class="connection real" stroke-dasharray="" d="  M146.28,364.8 L134.59,184.38" style="stroke: rgb(74, 144, 226); stroke-opacity: 1; stroke-width: 1; fill: rgb(255, 255, 255); fill-opacity: 0;"/></g><g class="arrow-line"><path class="connection real" stroke-dasharray="" d="  M146.28,364.8 L310.01,444.99" style="stroke: rgb(74, 144, 226); stroke-opacity: 1; stroke-width: 1; fill: rgb(255, 255, 255); fill-opacity: 0;"/></g><g class="arrow-line"><path class="connection real" stroke-dasharray="" d="  M286.62,84.14 L450.35,164.33" style="stroke: rgb(74, 144, 226); stroke-opacity: 1; stroke-width: 1; fill: rgb(255, 255, 255); fill-opacity: 0;"/></g><g class="arrow-line"><path class="connection real" stroke-dasharray="" d="  M310.01,444.99 L462.05,344.75" style="stroke: rgb(74, 144, 226); stroke-opacity: 1; stroke-width: 1; fill: rgb(255, 255, 255); fill-opacity: 0;"/></g><g class="arrow-line"><path class="connection real" stroke-dasharray="" d="  M450.35,164.33 L462.05,344.75" style="stroke: rgb(74, 144, 226); stroke-opacity: 1; stroke-width: 1; fill: rgb(255, 255, 255); fill-opacity: 0;"/></g><g class="arrow-line"><path class="connection real" stroke-dasharray="" d="  M310.01,84.14 L146.28,164.33" style="stroke: rgb(245, 166, 35); stroke-opacity: 1; stroke-width: 1; fill: rgb(255, 255, 255); fill-opacity: 0;"/></g><g class="arrow-line"><path class="connection real" stroke-dasharray="" d="  M134.59,344.75 L146.28,164.33" style="stroke: rgb(245, 166, 35); stroke-opacity: 1; stroke-width: 1; fill: rgb(255, 255, 255); fill-opacity: 0;"/></g><g class="arrow-line"><path class="connection real" stroke-dasharray="" d="  M134.59,344.75 L286.62,444.99" style="stroke: rgb(245, 166, 35); stroke-opacity: 1; stroke-width: 1; fill: rgb(255, 255, 255); fill-opacity: 0;"/></g><g class="arrow-line"><path class="connection real" stroke-dasharray="" d="  M462.05,184.38 L310.01,84.14" style="stroke: rgb(245, 166, 35); stroke-opacity: 1; stroke-width: 1; fill: rgb(255, 255, 255); fill-opacity: 0;"/></g><g class="arrow-line"><path class="connection real" stroke-dasharray="" d="  M462.05,184.38 L450.35,364.8" style="stroke: rgb(245, 166, 35); stroke-opacity: 1; stroke-width: 1; fill: rgb(255, 255, 255); fill-opacity: 0;"/></g><g class="arrow-line"><path class="connection real" stroke-dasharray="" d="  M450.35,364.8 L286.62,444.99" style="stroke: rgb(245, 166, 35); stroke-opacity: 1; stroke-width: 1; fill: rgb(255, 255, 255); fill-opacity: 0;"/></g><g class="composite-shape"><path class="real" d=" M743.24,293.51 L778.99,357.23 L850.5,357.23 L886.26,293.51 L850.5,229.79 L778.99,229.79 Z" style="stroke-width: 1; stroke: rgb(0, 0, 0); fill: rgb(255, 255, 255); fill-opacity: 0;"/></g><g class="arrow-line"><path class="connection real" stroke-dasharray="1.125 3.35" d="  M286.62,244.52 L778.99,229.79" style="stroke: rgb(0, 0, 0); stroke-width: 1; fill: rgb(255, 255, 255); fill-opacity: 0;"/></g><g class="arrow-line"><path class="connection real" stroke-dasharray="" d="  M814.75,293.51 L928.95,232.31" style="stroke: rgb(0, 0, 0); stroke-width: 1; fill: rgb(255, 255, 255); fill-opacity: 0;"/><g stroke="none" fill="#000" transform="matrix(-0.8813859143088518,0.4723969412029987,-0.4723969412029987,-0.8813859143088518,931.5954591582183,230.89099768640844)" style="stroke: none; fill: rgb(0, 0, 0); stroke-width: 1;"><path d=" M8.93,-4.29 L0,0 L8.93,4.29 Z"/></g></g><g class="arrow-line"><path class="connection real" stroke-dasharray="" d="  M814.75,293.51 L703.09,232.47" style="stroke: rgb(0, 0, 0); stroke-width: 1; fill: rgb(255, 255, 255); fill-opacity: 0;"/><g stroke="none" fill="#000" transform="matrix(0.8773974878920772,0.47976415897883856,-0.47976415897883856,0.8773974878920772,700.4558883562476,231.0265681234357)" style="stroke: none; fill: rgb(0, 0, 0); stroke-width: 1;"><path d=" M8.93,-4.29 L0,0 L8.93,4.29 Z"/></g></g><g class="composite-shape"><path class="real" d=" M76.11,444.99 L64.42,465.04 L41.03,465.04 L29.33,444.99 L41.03,424.94 L64.42,424.94 Z" style="stroke-width: 1; stroke: rgb(155, 155, 155); stroke-opacity: 1; fill: rgb(255, 255, 255); fill-opacity: 0;"/></g><g class="composite-shape"><path class="real" d=" M111.2,465.04 L99.5,485.08 L76.11,485.08 L64.42,465.04 L76.11,444.99 L99.5,444.99 Z" style="stroke-width: 1; stroke: rgb(155, 155, 155); stroke-opacity: 1; fill: rgb(255, 255, 255); fill-opacity: 0;"/></g><g class="composite-shape"><path class="real" d=" M146.28,444.99 L134.59,465.04 L111.2,465.04 L99.5,444.99 L111.2,424.94 L134.59,424.94 Z" style="stroke-width: 1; stroke: rgb(155, 155, 155); stroke-opacity: 1; fill: rgb(255, 255, 255); fill-opacity: 0;"/></g><g class="composite-shape"><path class="real" d=" M181.37,465.04 L169.67,485.08 L146.28,485.08 L134.59,465.04 L146.28,444.99 L169.67,444.99 Z" style="stroke-width: 1; stroke: rgb(155, 155, 155); stroke-opacity: 1; fill: rgb(255, 255, 255); fill-opacity: 0;"/></g><g class="composite-shape"><path class="real" d=" M216.45,444.99 L204.76,465.04 L181.37,465.04 L169.67,444.99 L181.37,424.94 L204.76,424.94 Z" style="stroke-width: 1; stroke: rgb(155, 155, 155); stroke-opacity: 1; fill: rgb(255, 255, 255); fill-opacity: 0;"/></g><g class="composite-shape"><path class="real" d=" M251.54,465.04 L239.84,485.08 L216.45,485.08 L204.76,465.04 L216.45,444.99 L239.84,444.99 Z" style="stroke-width: 1; stroke: rgb(155, 155, 155); stroke-opacity: 1; fill: rgb(255, 255, 255); fill-opacity: 0;"/></g><g class="composite-shape"><path class="real" d=" M286.62,444.99 L274.93,465.04 L251.54,465.04 L239.84,444.99 L251.54,424.94 L274.93,424.94 Z" style="stroke-width: 1; stroke: rgb(155, 155, 155); stroke-opacity: 1; fill: rgb(255, 255, 255); fill-opacity: 0;"/></g><g class="composite-shape"><path class="real" d=" M321.71,465.04 L310.01,485.08 L286.62,485.08 L274.93,465.04 L286.62,444.99 L310.01,444.99 Z" style="stroke-width: 1; stroke: rgb(155, 155, 155); stroke-opacity: 1; fill: rgb(255, 255, 255); fill-opacity: 0;"/></g><g class="composite-shape"><path class="real" d=" M356.79,444.99 L345.1,465.04 L321.71,465.04 L310.01,444.99 L321.71,424.94 L345.1,424.94 Z" style="stroke-width: 1; stroke: rgb(155, 155, 155); stroke-opacity: 1; fill: rgb(255, 255, 255); fill-opacity: 0;"/></g><g class="composite-shape"><path class="real" d=" M391.88,465.04 L380.18,485.08 L356.79,485.08 L345.1,465.04 L356.79,444.99 L380.18,444.99 Z" style="stroke-width: 1; stroke: rgb(155, 155, 155); stroke-opacity: 1; fill: rgb(255, 255, 255); fill-opacity: 0;"/></g><g class="composite-shape"><path class="real" d=" M426.96,444.99 L415.27,465.04 L391.88,465.04 L380.18,444.99 L391.88,424.94 L415.27,424.94 Z" style="stroke-width: 1; stroke: rgb(155, 155, 155); stroke-opacity: 1; fill: rgb(255, 255, 255); fill-opacity: 0;"/></g><g class="composite-shape"><path class="real" d=" M462.05,465.04 L450.35,485.08 L426.96,485.08 L415.27,465.04 L426.96,444.99 L450.35,444.99 Z" style="stroke-width: 1; stroke: rgb(155, 155, 155); stroke-opacity: 1; fill: rgb(255, 255, 255); fill-opacity: 0;"/></g><g class="composite-shape"><path class="real" d=" M497.13,444.99 L485.44,465.04 L462.05,465.04 L450.35,444.99 L462.05,424.94 L485.44,424.94 Z" style="stroke-width: 1; stroke: rgb(155, 155, 155); stroke-opacity: 1; fill: rgb(255, 255, 255); fill-opacity: 0;"/></g><g class="composite-shape"><path class="real" d=" M532.22,465.04 L520.52,485.08 L497.13,485.08 L485.44,465.04 L497.13,444.99 L520.52,444.99 Z" style="stroke-width: 1; stroke: rgb(155, 155, 155); stroke-opacity: 1; fill: rgb(255, 255, 255); fill-opacity: 0;"/></g><g class="grouped-shape"><g class="composite-shape"><path class="real" d=" M567.3,44.05 L555.61,64.09 L532.22,64.09 L520.52,44.05 L532.22,24 L555.61,24 Z" style="stroke-width: 1; stroke: rgb(155, 155, 155); stroke-opacity: 1; fill: rgb(255, 255, 255); fill-opacity: 0;"/></g><g class="composite-shape"><path class="real" d=" M567.3,84.14 L555.61,104.19 L532.22,104.19 L520.52,84.14 L532.22,64.09 L555.61,64.09 Z" style="stroke-width: 1; stroke: rgb(155, 155, 155); stroke-opacity: 1; fill: rgb(255, 255, 255); fill-opacity: 0;"/></g><g class="composite-shape"><path class="real" d=" M567.3,124.24 L555.61,144.28 L532.22,144.28 L520.52,124.24 L532.22,104.19 L555.61,104.19 Z" style="stroke-width: 1; stroke: rgb(155, 155, 155); stroke-opacity: 1; fill: rgb(255, 255, 255); fill-opacity: 0;"/></g><g class="composite-shape"><path class="real" d=" M567.3,164.33 L555.61,184.38 L532.22,184.38 L520.52,164.33 L532.22,144.28 L555.61,144.28 Z" style="stroke-width: 1; stroke: rgb(155, 155, 155); stroke-opacity: 1; fill: rgb(255, 255, 255); fill-opacity: 0;"/></g><g class="composite-shape"><path class="real" d=" M567.3,244.52 L555.61,264.57 L532.22,264.57 L520.52,244.52 L532.22,224.47 L555.61,224.47 Z" style="stroke-width: 1; stroke: rgb(155, 155, 155); stroke-opacity: 1; fill: rgb(255, 255, 255); fill-opacity: 0;"/></g><g class="composite-shape"><path class="real" d=" M567.3,204.42 L555.61,224.47 L532.22,224.47 L520.52,204.42 L532.22,184.38 L555.61,184.38 Z" style="stroke-width: 1; stroke: rgb(155, 155, 155); stroke-opacity: 1; fill: rgb(255, 255, 255); fill-opacity: 0;"/></g><g class="composite-shape"><path class="real" d=" M567.3,284.61 L555.61,304.66 L532.22,304.66 L520.52,284.61 L532.22,264.57 L555.61,264.57 Z" style="stroke-width: 1; stroke: rgb(155, 155, 155); stroke-opacity: 1; fill: rgb(255, 255, 255); fill-opacity: 0;"/></g><g class="composite-shape"><path class="real" d=" M567.3,324.71 L555.61,344.75 L532.22,344.75 L520.52,324.71 L532.22,304.66 L555.61,304.66 Z" style="stroke-width: 1; stroke: rgb(155, 155, 155); stroke-opacity: 1; fill: rgb(255, 255, 255); fill-opacity: 0;"/></g><g class="composite-shape"><path class="real" d=" M567.3,364.8 L555.61,384.85 L532.22,384.85 L520.52,364.8 L532.22,344.75 L555.61,344.75 Z" style="stroke-width: 1; stroke: rgb(155, 155, 155); stroke-opacity: 1; fill: rgb(255, 255, 255); fill-opacity: 0;"/></g><g class="composite-shape"><path class="real" d=" M567.3,404.89 L555.61,424.94 L532.22,424.94 L520.52,404.89 L532.22,384.85 L555.61,384.85 Z" style="stroke-width: 1; stroke: rgb(155, 155, 155); stroke-opacity: 1; fill: rgb(255, 255, 255); fill-opacity: 0;"/></g><g class="composite-shape"><path class="real" d=" M567.3,444.99 L555.61,465.04 L532.22,465.04 L520.52,444.99 L532.22,424.94 L555.61,424.94 Z" style="stroke-width: 1; stroke: rgb(155, 155, 155); stroke-opacity: 1; fill: rgb(255, 255, 255); fill-opacity: 0;"/></g></g><g class="arrow-line"><path class="connection real" stroke-dasharray="1.125 3.35" d="  M146.28,164.33 L298.32,264.57" style="stroke: rgb(0, 0, 0); stroke-width: 1; fill: rgb(255, 255, 255); fill-opacity: 0;"/></g><g class="arrow-line"><path class="connection real" stroke-dasharray="1.125 3.35" d="  M298.32,264.57 L128.49,183.37" style="stroke: rgb(0, 0, 0); stroke-width: 1; fill: rgb(255, 255, 255); fill-opacity: 0;"/></g><g class="composite-shape"><path class="real" d=" M239.84,84.14 C239.84,53.36 265.06,28.41 296.16,28.41 C327.26,28.41 352.47,53.36 352.47,84.14 C352.47,114.92 327.26,139.87 296.16,139.87 C265.06,139.87 239.84,114.92 239.84,84.14 Z" style="stroke-width: 1; stroke: rgb(0, 0, 0); fill: rgb(255, 255, 255); fill-opacity: 0; stroke-dasharray: 6, 6;"/></g><g class="arrow-line"><path class="connection real" stroke-dasharray="1.125 3.35" d="  M814.75,293.51 L886.26,293.51" style="stroke: rgb(208, 2, 27); stroke-opacity: 1; stroke-width: 1; fill: rgb(255, 255, 255); fill-opacity: 0;"/></g><g class="arrow-line"><path class="connection real" stroke-dasharray="1.125 3.35" d="  M814.75,293.51 L814.14,229.77" style="stroke: rgb(208, 2, 27); stroke-opacity: 1; stroke-width: 1; fill: rgb(255, 255, 255); fill-opacity: 0;"/></g><g class="arrow-line"><path class="connection real" stroke-dasharray="1.125 3.35" d="  M815.36,229.8 L850.5,229.79" style="stroke: rgb(208, 2, 27); stroke-opacity: 1; stroke-width: 1; fill: rgb(255, 255, 255); fill-opacity: 0;"/></g><g class="composite-shape"><path class="real" d=" M239.84,452.27 C239.84,421.49 265.06,396.54 296.16,396.54 C327.26,396.54 352.47,421.49 352.47,452.27 C352.47,483.05 327.26,508 296.16,508 C265.06,508 239.84,483.05 239.84,452.27 Z" style="stroke-width: 1; stroke: rgb(0, 0, 0); fill: rgb(255, 255, 255); fill-opacity: 0; stroke-dasharray: 6, 6;"/></g><g class="arrow-line"><path class="connection real" stroke-dasharray="1.125 3.35" d="  M778.99,357.23 L286.62,284.61" style="stroke: rgb(0, 0, 0); stroke-width: 1; fill: rgb(255, 255, 255); fill-opacity: 0;"/></g></g><g/></g><g/><g/><g/></svg>
        <svg xmlns="http://www.w3.org/2000/svg" xmlns:xlink="http://www.w3.org/1999/xlink" width="962" height="528.9375" style="width:962px;height:528.9375px;font-family:Asana-Math, Asana;background:transparent;"><g><g><g><g transform="matrix(1,0,0,1,707.2813110351562,265.72918701171875)"><path transform="matrix(0.017,0,0,-0.017,0,0)" d="M412 -20C483 -20 552 -7 688 31L688 199C688 230 689 232 699 236L728 246L724 271C635 269 632 269 601 269C572 269 566 269 479 271L479 241L562 234C587 232 596 223 596 199L596 98C596 74 594 62 590 55C579 36 519 22 453 22C255 22 129 154 129 362C129 555 237 667 424 667C511 667 641 647 641 569L641 516L672 516C672 567 678 614 692 668C581 700 530 709 450 709C192 709 22 563 22 341C22 101 205 -20 412 -20Z" stroke="rgb(0,0,0)" stroke-opacity="1" stroke-width="24" fill="rgb(0,0,0)" fill-opacity="1"></path></g></g><g><g><g><g><g transform="matrix(1,0,0,1,720.7395629882812,269.5)"><path transform="matrix(0.012,0,0,-0.012,0,0)" d="M16 23L16 -3C203 -3 203 0 239 0C275 0 275 -3 468 -3L468 82C353 77 307 81 122 77L304 270C401 373 431 428 431 503C431 618 353 689 226 689C154 689 105 669 56 619L39 483L68 483L81 529C97 587 133 612 200 612C286 612 341 558 341 473C341 398 299 324 186 204Z" stroke="rgb(0,0,0)" stroke-opacity="1" stroke-width="8" fill="rgb(0,0,0)" fill-opacity="1"></path></g></g></g></g></g></g></g><g><g><g><g transform="matrix(1,0,0,1,913.5938110351562,269)"><path transform="matrix(0.017,0,0,-0.017,0,0)" d="M412 -20C483 -20 552 -7 688 31L688 199C688 230 689 232 699 236L728 246L724 271C635 269 632 269 601 269C572 269 566 269 479 271L479 241L562 234C587 232 596 223 596 199L596 98C596 74 594 62 590 55C579 36 519 22 453 22C255 22 129 154 129 362C129 555 237 667 424 667C511 667 641 647 641 569L641 516L672 516C672 567 678 614 692 668C581 700 530 709 450 709C192 709 22 563 22 341C22 101 205 -20 412 -20Z" stroke="rgb(0,0,0)" stroke-opacity="1" stroke-width="24" fill="rgb(0,0,0)" fill-opacity="1"></path></g></g><g><g><g><g><g transform="matrix(1,0,0,1,927.0520629882812,272.7708435058594)"><path transform="matrix(0.012,0,0,-0.012,0,0)" d="M418 -3L418 27L366 30C311 33 301 44 301 96L301 700L60 598L67 548L217 614L217 96C217 44 206 33 152 30L96 27L96 -3C250 0 250 0 261 0C292 0 402 -3 418 -3Z" stroke="rgb(0,0,0)" stroke-opacity="1" stroke-width="8" fill="rgb(0,0,0)" fill-opacity="1"></path></g></g></g></g></g></g></g><g><g><g><g><g><g><g transform="matrix(1,0,0,1,809.4791870117188,317.4375)"><path transform="matrix(0.017,0,0,-0.017,0,0)" d="M536 689C497 691 452 692 407 692C350 692 258 689 191 689C134 689 77 691 22 692L22 662L70 659C113 657 121 651 121 569L121 120C121 40 113 32 70 30L22 27L22 -3C74 -1 121 0 170 0C216 0 263 -1 315 -3L315 27L267 30C224 32 216 38 216 120L216 642C244 649 273 650 300 650C344 650 423 649 476 629C484 626 485 615 485 602L485 537L520 537C520 588 525 645 536 689Z" stroke="rgb(0,0,0)" stroke-opacity="1" stroke-width="8" fill="rgb(0,0,0)" fill-opacity="1"></path></g></g></g></g><svg xmlns="http://www.w3.org/2000/svg" x="809.4791870117188" y="299.10418701171875" height="6" width="9.4375"><defs><clipPath id="ccp0.2840129358680228"><rect x="-0.5" y="-0.5" width="9.9375" height="6.5"></rect></clipPath></defs><g clip-path="url(#ccp0.2840129358680228)"><svg xmlns="http://www.w3.org/2000/svg" x="0" y="0" height="20.39583396911621" width="17"><defs><clipPath id="ccp0.3970381459194632"><rect x="-0.5" y="-0.5" width="17.5" height="20.89583396911621"></rect></clipPath></defs><g clip-path="url(#ccp0.3970381459194632)"><g><g transform="matrix(1,0,0,1,0,17)"><path transform="matrix(0.017,0,0,-0.017,0,0)" d="M-877 790L1877 790L1877 850L-877 850Z" stroke="rgb(0,0,0)" stroke-opacity="1" stroke-width="8" fill="rgb(0,0,0)" fill-opacity="1"></path></g></g></g></svg></g></svg></g></g></g><g><g><g><g transform="matrix(1,0,0,1,263.53125,82.22917175292969)"><path transform="matrix(0.017,0,0,-0.017,0,0)" d="M216 325L226 332L574 -3C644 0 644 0 654 0C667 0 669 0 719 -3L719 27L698 29C683 30 667 41 636 70L306 382L572 622C599 646 624 659 650 660L692 662L692 692C629 689 629 689 612 689C598 689 581 690 523 692L523 665C523 659 510 642 494 626L216 355L216 569C216 648 221 656 267 659L315 662L315 692C242 689 220 689 168 689C118 689 94 690 22 692L22 662L70 659C116 656 121 648 121 569L121 120C121 41 116 33 70 30L22 27L22 -3C81 -1 116 0 168 0C220 0 256 -1 315 -3L315 27L267 30C221 33 216 41 216 120Z" stroke="rgb(74,144,226)" stroke-opacity="1" stroke-width="8" fill="rgb(74,144,226)" fill-opacity="1"></path></g></g><g><g><g><g><g transform="matrix(1,0,0,1,276.83331298828125,76.17709350585938)"><path transform="matrix(0.012,0,0,-0.012,0,0)" d="M146 266C146 526 243 632 301 700L282 726C225 675 60 542 60 266C60 159 85 58 133 -32C168 -99 200 -138 282 -215L301 -194C255 -137 146 -15 146 266Z" stroke="rgb(74,144,226)" stroke-opacity="1" stroke-width="8" fill="rgb(74,144,226)" fill-opacity="1"></path></g></g><g><g transform="matrix(1,0,0,1,280.82293701171875,75.51042175292969)"><path transform="matrix(0.012,0,0,-0.012,0,0)" d="M418 -3L418 27L366 30C311 33 301 44 301 96L301 700L60 598L67 548L217 614L217 96C217 44 206 33 152 30L96 27L96 -3C250 0 250 0 261 0C292 0 402 -3 418 -3Z" stroke="rgb(74,144,226)" stroke-opacity="1" stroke-width="8" fill="rgb(74,144,226)" fill-opacity="1"></path></g></g><g><g transform="matrix(1,0,0,1,286.8125,76.17709350585938)"><path transform="matrix(0.012,0,0,-0.012,0,0)" d="M51 726L32 700C87 636 187 526 187 266C187 -10 83 -131 32 -194L51 -215C104 -165 273 -23 273 265C273 542 108 675 51 726Z" stroke="rgb(74,144,226)" stroke-opacity="1" stroke-width="8" fill="rgb(74,144,226)" fill-opacity="1"></path></g></g></g></g></g></g></g><g><g><g><g transform="matrix(1,0,0,1,320.45831298828125,459.01043701171875)"><path transform="matrix(0.017,0,0,-0.017,0,0)" d="M216 325L226 332L574 -3C644 0 644 0 654 0C667 0 669 0 719 -3L719 27L698 29C683 30 667 41 636 70L306 382L572 622C599 646 624 659 650 660L692 662L692 692C629 689 629 689 612 689C598 689 581 690 523 692L523 665C523 659 510 642 494 626L216 355L216 569C216 648 221 656 267 659L315 662L315 692C242 689 220 689 168 689C118 689 94 690 22 692L22 662L70 659C116 656 121 648 121 569L121 120C121 41 116 33 70 30L22 27L22 -3C81 -1 116 0 168 0C220 0 256 -1 315 -3L315 27L267 30C221 33 216 41 216 120ZM829 470C886 543 924 610 958 696L945 709C909 697 899 694 848 679C842 599 818 533 770 456L785 446Z" stroke="rgb(74,144,226)" stroke-opacity="1" stroke-width="8" fill="rgb(74,144,226)" fill-opacity="1"></path></g></g><g><g><g><g><g transform="matrix(1,0,0,1,338.46875,452.9583740234375)"><path transform="matrix(0.012,0,0,-0.012,0,0)" d="M146 266C146 526 243 632 301 700L282 726C225 675 60 542 60 266C60 159 85 58 133 -32C168 -99 200 -138 282 -215L301 -194C255 -137 146 -15 146 266Z" stroke="rgb(74,144,226)" stroke-opacity="1" stroke-width="8" fill="rgb(74,144,226)" fill-opacity="1"></path></g></g><g><g transform="matrix(1,0,0,1,342.45831298828125,452.29168701171875)"><path transform="matrix(0.012,0,0,-0.012,0,0)" d="M418 -3L418 27L366 30C311 33 301 44 301 96L301 700L60 598L67 548L217 614L217 96C217 44 206 33 152 30L96 27L96 -3C250 0 250 0 261 0C292 0 402 -3 418 -3Z" stroke="rgb(74,144,226)" stroke-opacity="1" stroke-width="8" fill="rgb(74,144,226)" fill-opacity="1"></path></g></g><g><g transform="matrix(1,0,0,1,348.44793701171875,452.9583740234375)"><path transform="matrix(0.012,0,0,-0.012,0,0)" d="M51 726L32 700C87 636 187 526 187 266C187 -10 83 -131 32 -194L51 -215C104 -165 273 -23 273 265C273 542 108 675 51 726Z" stroke="rgb(74,144,226)" stroke-opacity="1" stroke-width="8" fill="rgb(74,144,226)" fill-opacity="1"></path></g></g></g></g></g></g></g><g><g><g><g transform="matrix(1,0,0,1,249.01043701171875,459.63543701171875)"><path transform="matrix(0.017,0,0,-0.017,0,0)" d="M216 325L226 332L574 -3C644 0 644 0 654 0C667 0 669 0 719 -3L719 27L698 29C683 30 667 41 636 70L306 382L572 622C599 646 624 659 650 660L692 662L692 692C629 689 629 689 612 689C598 689 581 690 523 692L523 665C523 659 510 642 494 626L216 355L216 569C216 648 221 656 267 659L315 662L315 692C242 689 220 689 168 689C118 689 94 690 22 692L22 662L70 659C116 656 121 648 121 569L121 120C121 41 116 33 70 30L22 27L22 -3C81 -1 116 0 168 0C220 0 256 -1 315 -3L315 27L267 30C221 33 216 41 216 120ZM829 470C886 543 924 610 958 696L945 709C909 697 899 694 848 679C842 599 818 533 770 456L785 446Z" stroke="rgb(245,166,35)" stroke-opacity="1" stroke-width="8" fill="rgb(245,166,35)" fill-opacity="1"></path></g></g><g><g><g><g><g transform="matrix(1,0,0,1,267.02081298828125,453.5833740234375)"><path transform="matrix(0.012,0,0,-0.012,0,0)" d="M146 266C146 526 243 632 301 700L282 726C225 675 60 542 60 266C60 159 85 58 133 -32C168 -99 200 -138 282 -215L301 -194C255 -137 146 -15 146 266Z" stroke="rgb(245,166,35)" stroke-opacity="1" stroke-width="8" fill="rgb(245,166,35)" fill-opacity="1"></path></g></g><g><g transform="matrix(1,0,0,1,271.01043701171875,452.91668701171875)"><path transform="matrix(0.012,0,0,-0.012,0,0)" d="M16 23L16 -3C203 -3 203 0 239 0C275 0 275 -3 468 -3L468 82C353 77 307 81 122 77L304 270C401 373 431 428 431 503C431 618 353 689 226 689C154 689 105 669 56 619L39 483L68 483L81 529C97 587 133 612 200 612C286 612 341 558 341 473C341 398 299 324 186 204Z" stroke="rgb(245,166,35)" stroke-opacity="1" stroke-width="8" fill="rgb(245,166,35)" fill-opacity="1"></path></g></g><g><g transform="matrix(1,0,0,1,277,453.5833740234375)"><path transform="matrix(0.012,0,0,-0.012,0,0)" d="M51 726L32 700C87 636 187 526 187 266C187 -10 83 -131 32 -194L51 -215C104 -165 273 -23 273 265C273 542 108 675 51 726Z" stroke="rgb(245,166,35)" stroke-opacity="1" stroke-width="8" fill="rgb(245,166,35)" fill-opacity="1"></path></g></g></g></g></g></g></g><g><g><g><g transform="matrix(1,0,0,1,316.41668701171875,80.20834350585938)"><path transform="matrix(0.017,0,0,-0.017,0,0)" d="M216 325L226 332L574 -3C644 0 644 0 654 0C667 0 669 0 719 -3L719 27L698 29C683 30 667 41 636 70L306 382L572 622C599 646 624 659 650 660L692 662L692 692C629 689 629 689 612 689C598 689 581 690 523 692L523 665C523 659 510 642 494 626L216 355L216 569C216 648 221 656 267 659L315 662L315 692C242 689 220 689 168 689C118 689 94 690 22 692L22 662L70 659C116 656 121 648 121 569L121 120C121 41 116 33 70 30L22 27L22 -3C81 -1 116 0 168 0C220 0 256 -1 315 -3L315 27L267 30C221 33 216 41 216 120Z" stroke="rgb(245,166,35)" stroke-opacity="1" stroke-width="8" fill="rgb(245,166,35)" fill-opacity="1"></path></g></g><g><g><g><g><g transform="matrix(1,0,0,1,329.71875,74.15625)"><path transform="matrix(0.012,0,0,-0.012,0,0)" d="M146 266C146 526 243 632 301 700L282 726C225 675 60 542 60 266C60 159 85 58 133 -32C168 -99 200 -138 282 -215L301 -194C255 -137 146 -15 146 266Z" stroke="rgb(245,166,35)" stroke-opacity="1" stroke-width="8" fill="rgb(245,166,35)" fill-opacity="1"></path></g></g><g><g transform="matrix(1,0,0,1,333.70831298828125,73.48959350585938)"><path transform="matrix(0.012,0,0,-0.012,0,0)" d="M16 23L16 -3C203 -3 203 0 239 0C275 0 275 -3 468 -3L468 82C353 77 307 81 122 77L304 270C401 373 431 428 431 503C431 618 353 689 226 689C154 689 105 669 56 619L39 483L68 483L81 529C97 587 133 612 200 612C286 612 341 558 341 473C341 398 299 324 186 204Z" stroke="rgb(245,166,35)" stroke-opacity="1" stroke-width="8" fill="rgb(245,166,35)" fill-opacity="1"></path></g></g><g><g transform="matrix(1,0,0,1,339.69793701171875,74.15625)"><path transform="matrix(0.012,0,0,-0.012,0,0)" d="M51 726L32 700C87 636 187 526 187 266C187 -10 83 -131 32 -194L51 -215C104 -165 273 -23 273 265C273 542 108 675 51 726Z" stroke="rgb(245,166,35)" stroke-opacity="1" stroke-width="8" fill="rgb(245,166,35)" fill-opacity="1"></path></g></g></g></g></g></g></g><g><g><g><g transform="matrix(1,0,0,1,194.22918701171875,213.47918701171875)"><path transform="matrix(0.017,0,0,-0.017,0,0)" d="M237 -16C473 -16 572 316 576 504C578 618 546 702 419 702C159 702 72 412 69 199C67 80 101 -16 237 -16ZM401 676C536 676 506 491 485 381L169 381C194 485 272 676 401 676ZM253 13C102 13 147 261 163 349L479 349C454 237 396 13 253 13Z" stroke="rgb(0,0,0)" stroke-opacity="1" stroke-width="8" fill="rgb(0,0,0)" fill-opacity="1"></path></g></g></g></g><g><g><g><g><g><g><g transform="matrix(1,0,0,1,894.1563110351562,306.1145935058594)"><path transform="matrix(0.017,0,0,-0.017,0,0)" d="M216 325L226 332L574 -3C644 0 644 0 654 0C667 0 669 0 719 -3L719 27L698 29C683 30 667 41 636 70L306 382L572 622C599 646 624 659 650 660L692 662L692 692C629 689 629 689 612 689C598 689 581 690 523 692L523 665C523 659 510 642 494 626L216 355L216 569C216 648 221 656 267 659L315 662L315 692C242 689 220 689 168 689C118 689 94 690 22 692L22 662L70 659C116 656 121 648 121 569L121 120C121 41 116 33 70 30L22 27L22 -3C81 -1 116 0 168 0C220 0 256 -1 315 -3L315 27L267 30C221 33 216 41 216 120Z" stroke="rgb(0,0,0)" stroke-opacity="1" stroke-width="8" fill="rgb(0,0,0)" fill-opacity="1"></path></g></g></g></g><svg xmlns="http://www.w3.org/2000/svg" x="894.1563110351562" y="287.78125" height="6" width="12.333333969116211"><defs><clipPath id="ccp0.20705244011069657"><rect x="-0.5" y="-0.5" width="12.833333969116211" height="6.5"></rect></clipPath></defs><g clip-path="url(#ccp0.20705244011069657)"><svg xmlns="http://www.w3.org/2000/svg" x="0" y="0" height="20.39583396911621" width="17"><defs><clipPath id="ccp0.38878867580714394"><rect x="-0.5" y="-0.5" width="17.5" height="20.89583396911621"></rect></clipPath></defs><g clip-path="url(#ccp0.38878867580714394)"><g><g transform="matrix(1,0,0,1,0,17)"><path transform="matrix(0.017,0,0,-0.017,0,0)" d="M-877 790L1877 790L1877 850L-877 850Z" stroke="rgb(0,0,0)" stroke-opacity="1" stroke-width="8" fill="rgb(0,0,0)" fill-opacity="1"></path></g></g></g></svg></g></svg></g></g></g><g><g><g><g><g><g><g transform="matrix(1,0,0,1,805.3645629882812,219.32293701171875)"><path transform="matrix(0.017,0,0,-0.017,0,0)" d="M732 120C732 41 728 34 681 30L647 27L647 -3C693 -1 723 0 775 0C831 0 867 -1 926 -3L926 27L878 30C832 33 827 41 827 120L827 569C827 647 832 656 878 659L920 662L920 692C844 689 844 689 827 689C812 689 812 689 732 692L470 136L206 692C126 689 126 689 111 689C96 689 96 689 16 692L16 662L60 659C106 656 111 647 111 569L111 120C111 42 106 33 60 30L16 27L16 -3C115 0 115 0 132 0C147 0 147 0 252 -3L252 27L208 30C162 33 157 42 157 120L157 578L436 -13L456 -13C468 12 492 77 510 114L688 492C702 521 714 544 732 578Z" stroke="rgb(0,0,0)" stroke-opacity="1" stroke-width="8" fill="rgb(0,0,0)" fill-opacity="1"></path></g></g></g></g><svg xmlns="http://www.w3.org/2000/svg" x="805.3645629882812" y="200.98959350585938" height="6" width="16.072917938232422"><defs><clipPath id="ccp0.3754316115627685"><rect x="-0.5" y="-0.5" width="16.572917938232422" height="6.5"></rect></clipPath></defs><g clip-path="url(#ccp0.3754316115627685)"><svg xmlns="http://www.w3.org/2000/svg" x="0" y="0" height="20.39583396911621" width="17"><defs><clipPath id="ccp0.49346223311053894"><rect x="-0.5" y="-0.5" width="17.5" height="20.89583396911621"></rect></clipPath></defs><g clip-path="url(#ccp0.49346223311053894)"><g><g transform="matrix(1,0,0,1,0,17)"><path transform="matrix(0.017,0,0,-0.017,0,0)" d="M-877 790L1877 790L1877 850L-877 850Z" stroke="rgb(0,0,0)" stroke-opacity="1" stroke-width="8" fill="rgb(0,0,0)" fill-opacity="1"></path></g></g></g></svg></g></svg></g></g></g><g><g><g><g><g><g><g transform="matrix(1,0,0,1,853.0625610351562,220.58334350585938)"><path transform="matrix(0.017,0,0,-0.017,0,0)" d="M216 325L226 332L574 -3C644 0 644 0 654 0C667 0 669 0 719 -3L719 27L698 29C683 30 667 41 636 70L306 382L572 622C599 646 624 659 650 660L692 662L692 692C629 689 629 689 612 689C598 689 581 690 523 692L523 665C523 659 510 642 494 626L216 355L216 569C216 648 221 656 267 659L315 662L315 692C242 689 220 689 168 689C118 689 94 690 22 692L22 662L70 659C116 656 121 648 121 569L121 120C121 41 116 33 70 30L22 27L22 -3C81 -1 116 0 168 0C220 0 256 -1 315 -3L315 27L267 30C221 33 216 41 216 120ZM829 470C886 543 924 610 958 696L945 709C909 697 899 694 848 679C842 599 818 533 770 456L785 446Z" stroke="rgb(0,0,0)" stroke-opacity="1" stroke-width="8" fill="rgb(0,0,0)" fill-opacity="1"></path></g></g></g></g><svg xmlns="http://www.w3.org/2000/svg" x="853.0625610351562" y="202.25" height="6" width="17.041667938232422"><defs><clipPath id="ccp0.8778481853180202"><rect x="-0.5" y="-0.5" width="17.541667938232422" height="6.5"></rect></clipPath></defs><g clip-path="url(#ccp0.8778481853180202)"><svg xmlns="http://www.w3.org/2000/svg" x="0" y="0" height="20.39583396911621" width="17"><defs><clipPath id="ccp0.4386957846568773"><rect x="-0.5" y="-0.5" width="17.5" height="20.89583396911621"></rect></clipPath></defs><g clip-path="url(#ccp0.4386957846568773)"><g><g transform="matrix(1,0,0,1,0,17)"><path transform="matrix(0.017,0,0,-0.017,0,0)" d="M-877 790L1877 790L1877 850L-877 850Z" stroke="rgb(0,0,0)" stroke-opacity="1" stroke-width="8" fill="rgb(0,0,0)" fill-opacity="1"></path></g></g></g></svg><svg xmlns="http://www.w3.org/2000/svg" x="17" y="0" height="20.39583396911621" width="17"><defs><clipPath id="ccp0.7406922821295598"><rect x="-0.5" y="-0.5" width="17.5" height="20.89583396911621"></rect></clipPath></defs><g clip-path="url(#ccp0.7406922821295598)"><g><g transform="matrix(1,0,0,1,0,17)"><path transform="matrix(0.017,0,0,-0.017,0,0)" d="M-877 790L1877 790L1877 850L-877 850Z" stroke="rgb(0,0,0)" stroke-opacity="1" stroke-width="8" fill="rgb(0,0,0)" fill-opacity="1"></path></g></g></g></svg></g></svg></g></g></g><g><g><g><g><g><g><g transform="matrix(1,0,0,1,294.67706298828125,272.34375)"><path transform="matrix(0.017,0,0,-0.017,0,0)" d="M23 661L79 661C97 661 104 650 104 620L104 102C104 39 101 32 67 30L21 27L21 -3C121 0 121 0 147 0C175 0 180 0 269 -3L269 27L225 30C191 32 188 39 188 102L188 240L453 -12L549 17L549 40C525 40 496 57 464 88L274 281L403 382C448 417 475 429 507 429L511 429L511 459L411 459L188 261L188 718L179 726C135 709 102 701 23 689Z" stroke="rgb(0,0,0)" stroke-opacity="1" stroke-width="24" fill="rgb(0,0,0)" fill-opacity="1"></path></g></g></g></g><svg xmlns="http://www.w3.org/2000/svg" x="294.67706298828125" y="254.01043701171875" height="6" width="9.4375"><defs><clipPath id="ccp0.19355700799974374"><rect x="-0.5" y="-0.5" width="9.9375" height="6.5"></rect></clipPath></defs><g clip-path="url(#ccp0.19355700799974374)"><svg xmlns="http://www.w3.org/2000/svg" x="0" y="0" height="20.39583396911621" width="17"><defs><clipPath id="ccp0.8232492876031594"><rect x="-0.5" y="-0.5" width="17.5" height="20.89583396911621"></rect></clipPath></defs><g clip-path="url(#ccp0.8232492876031594)"><g><g transform="matrix(1,0,0,1,0,17)"><path transform="matrix(0.017,0,0,-0.017,0,0)" d="M-877 790L1877 790L1877 850L-877 850Z" stroke="rgb(0,0,0)" stroke-opacity="1" stroke-width="8" fill="rgb(0,0,0)" fill-opacity="1"></path></g></g></g></svg></g></svg></g></g></g><g><g><g><g transform="matrix(1,0,0,1,248.125,92.70834350585938)"><path transform="matrix(0.017,0,0,-0.017,0,0)" d="M23 661L79 661C97 661 104 650 104 620L104 102C104 39 101 32 67 30L21 27L21 -3C121 0 121 0 147 0C175 0 180 0 269 -3L269 27L225 30C191 32 188 39 188 102L188 240L453 -12L549 17L549 40C525 40 496 57 464 88L274 281L403 382C448 417 475 429 507 429L511 429L511 459L411 459L188 261L188 718L179 726C135 709 102 701 23 689Z" stroke="rgb(0,0,0)" stroke-opacity="1" stroke-width="24" fill="rgb(0,0,0)" fill-opacity="1"></path></g></g></g></g><g><g><g><g transform="matrix(1,0,0,1,333.55206298828125,88.67709350585938)"><path transform="matrix(0.017,0,0,-0.017,0,0)" d="M10 400L47 400C87 400 91 393 91 327L91 -176C91 -239 88 -246 54 -248L8 -251L8 -281C108 -278 108 -278 133 -278C158 -278 158 -278 258 -281L258 -251L212 -248C178 -246 175 -239 175 -176L175 13C223 -10 267 -21 308 -21C459 -21 556 121 556 242C556 252 555 261 554 271C552 401 455 477 354 477C287 477 219 443 175 369L175 465L166 469C115 448 63 434 10 428ZM313 404C407 404 467 338 467 234C467 122 400 39 310 39C255 39 214 57 175 98L175 306C175 337 222 404 313 404Z" stroke="rgb(0,0,0)" stroke-opacity="1" stroke-width="24" fill="rgb(0,0,0)" fill-opacity="1"></path></g></g></g></g></svg>
</svg>
