<svg width="2483" height="1477" xmlns="http://www.w3.org/2000/svg" xmlns:xlink="http://www.w3.org/1999/xlink" xml:space="preserve" overflow="hidden"><defs><filter id="fx0" x="-10%" y="-10%" width="120%" height="120%" filterUnits="userSpaceOnUse" primitiveUnits="userSpaceOnUse"><feComponentTransfer color-interpolation-filters="sRGB"><feFuncR type="discrete" tableValues="0.560784 0.560784"/><feFuncG type="discrete" tableValues="0.666667 0.666667"/><feFuncB type="discrete" tableValues="0.862745 0.862745"/><feFuncA type="linear" slope="0.4" intercept="0"/></feComponentTransfer><feGaussianBlur stdDeviation="6.11111 6.11111"/></filter><filter id="fx1" x="-10%" y="-10%" width="120%" height="120%" filterUnits="userSpaceOnUse" primitiveUnits="userSpaceOnUse"><feComponentTransfer color-interpolation-filters="sRGB"><feFuncR type="discrete" tableValues="0.560784 0.560784"/><feFuncG type="discrete" tableValues="0.666667 0.666667"/><feFuncB type="discrete" tableValues="0.862745 0.862745"/><feFuncA type="linear" slope="0.4" intercept="0"/></feComponentTransfer><feGaussianBlur stdDeviation="6.11111 6.11111"/></filter><filter id="fx2" x="-10%" y="-10%" width="120%" height="120%" filterUnits="userSpaceOnUse" primitiveUnits="userSpaceOnUse"><feComponentTransfer color-interpolation-filters="sRGB"><feFuncR type="discrete" tableValues="0.560784 0.560784"/><feFuncG type="discrete" tableValues="0.666667 0.666667"/><feFuncB type="discrete" tableValues="0.862745 0.862745"/><feFuncA type="linear" slope="0.4" intercept="0"/></feComponentTransfer><feGaussianBlur stdDeviation="6.11111 6.11111"/></filter><filter id="fx3" x="-10%" y="-10%" width="120%" height="120%" filterUnits="userSpaceOnUse" primitiveUnits="userSpaceOnUse"><feComponentTransfer color-interpolation-filters="sRGB"><feFuncR type="discrete" tableValues="0.560784 0.560784"/><feFuncG type="discrete" tableValues="0.666667 0.666667"/><feFuncB type="discrete" tableValues="0.862745 0.862745"/><feFuncA type="linear" slope="0.4" intercept="0"/></feComponentTransfer><feGaussianBlur stdDeviation="6.11111 6.11111"/></filter><filter id="fx4" x="-10%" y="-10%" width="120%" height="120%" filterUnits="userSpaceOnUse" primitiveUnits="userSpaceOnUse"><feComponentTransfer color-interpolation-filters="sRGB"><feFuncR type="discrete" tableValues="0.560784 0.560784"/><feFuncG type="discrete" tableValues="0.666667 0.666667"/><feFuncB type="discrete" tableValues="0.862745 0.862745"/><feFuncA type="linear" slope="0.4" intercept="0"/></feComponentTransfer><feGaussianBlur stdDeviation="6.11111 6.11111"/></filter><filter id="fx5" x="-10%" y="-10%" width="120%" height="120%" filterUnits="userSpaceOnUse" primitiveUnits="userSpaceOnUse"><feComponentTransfer color-interpolation-filters="sRGB"><feFuncR type="discrete" tableValues="0.560784 0.560784"/><feFuncG type="discrete" tableValues="0.666667 0.666667"/><feFuncB type="discrete" tableValues="0.862745 0.862745"/><feFuncA type="linear" slope="0.4" intercept="0"/></feComponentTransfer><feGaussianBlur stdDeviation="6.11111 6.11111"/></filter><clipPath id="clip6"><rect x="707" y="281" width="2483" height="1477"/></clipPath><clipPath id="clip7"><rect x="-3" y="-3" width="303" height="692"/></clipPath><clipPath id="clip8"><rect x="0" y="0" width="297" height="684"/></clipPath><clipPath id="clip9"><rect x="-3" y="-3" width="303" height="692"/></clipPath><clipPath id="clip10"><rect x="0" y="0" width="297" height="685"/></clipPath><clipPath id="clip11"><rect x="-3" y="-3" width="303" height="692"/></clipPath><clipPath id="clip12"><rect x="0" y="0" width="297" height="685"/></clipPath><clipPath id="clip13"><rect x="-3" y="-3" width="303" height="692"/></clipPath><clipPath id="clip14"><rect x="0" y="0" width="298" height="684"/></clipPath><clipPath id="clip15"><rect x="-3" y="-3" width="303" height="692"/></clipPath><clipPath id="clip16"><rect x="0" y="0" width="297" height="684"/></clipPath><clipPath id="clip17"><rect x="-3" y="-3" width="303" height="692"/></clipPath><clipPath id="clip18"><rect x="0" y="0" width="297" height="684"/></clipPath></defs><g clip-path="url(#clip6)" transform="translate(-707 -281)"><g clip-path="url(#clip7)" filter="url(#fx0)" transform="translate(706 623)"><g clip-path="url(#clip8)"><path d="M22.4999 181.833C22.4999 93.4679 78.912 21.8335 148.5 21.8335 218.088 21.8335 274.5 93.4679 274.5 181.833 274.5 270.199 218.088 341.833 148.5 341.833 78.912 341.833 22.4999 270.199 22.4999 181.833Z" stroke="#8FAADC" stroke-width="5" stroke-miterlimit="8" stroke-opacity="0" fill="#B4C7E7" fill-rule="evenodd"/><path d="M22.4999 501.833C22.4999 413.468 78.912 341.833 148.5 341.833 218.088 341.833 274.5 413.468 274.5 501.833 274.5 590.199 218.088 661.833 148.5 661.833 78.912 661.833 22.4999 590.199 22.4999 501.833Z" stroke="#8FAADC" stroke-width="5" stroke-miterlimit="8" stroke-opacity="0" fill="#B4C7E7" fill-rule="evenodd"/></g></g><path d="M728.5 786.5C728.5 698.135 784.912 626.5 854.5 626.5 924.088 626.5 980.5 698.135 980.5 786.5 980.5 874.865 924.088 946.5 854.5 946.5 784.912 946.5 728.5 874.865 728.5 786.5Z" stroke="#8FAADC" stroke-width="4.58333" stroke-miterlimit="8" stroke-opacity="0" fill="#B4C7E7" fill-rule="evenodd"/><path d="M728.5 1106.5C728.5 1018.13 784.912 946.5 854.5 946.5 924.088 946.5 980.5 1018.13 980.5 1106.5 980.5 1194.87 924.088 1266.5 854.5 1266.5 784.912 1266.5 728.5 1194.87 728.5 1106.5Z" stroke="#8FAADC" stroke-width="4.58333" stroke-miterlimit="8" stroke-opacity="0" fill="#B4C7E7" fill-rule="evenodd"/><g clip-path="url(#clip9)" filter="url(#fx1)" transform="translate(1246 280)"><g clip-path="url(#clip10)"><path d="M22.4999 181.833C22.4999 93.4679 78.912 21.8334 148.5 21.8334 218.088 21.8334 274.5 93.4679 274.5 181.833 274.5 270.199 218.088 341.833 148.5 341.833 78.912 341.833 22.4999 270.199 22.4999 181.833Z" stroke="#8FAADC" stroke-width="5" stroke-miterlimit="8" stroke-opacity="0" fill="#B4C7E7" fill-rule="evenodd"/><path d="M22.4999 502.333C22.4999 413.692 78.912 341.833 148.5 341.833 218.088 341.833 274.5 413.692 274.5 502.333 274.5 590.975 218.088 662.833 148.5 662.833 78.912 662.833 22.4999 590.975 22.4999 502.333Z" stroke="#8FAADC" stroke-width="5" stroke-miterlimit="8" stroke-opacity="0" fill="#B4C7E7" fill-rule="evenodd"/></g></g><path d="M1268.5 443.5C1268.5 355.135 1324.91 283.5 1394.5 283.5 1464.09 283.5 1520.5 355.135 1520.5 443.5 1520.5 531.866 1464.09 603.5 1394.5 603.5 1324.91 603.5 1268.5 531.866 1268.5 443.5Z" stroke="#8FAADC" stroke-width="4.58333" stroke-miterlimit="8" stroke-opacity="0" fill="#B4C7E7" fill-rule="evenodd"/><path d="M1268.5 764C1268.5 675.358 1324.91 603.5 1394.5 603.5 1464.09 603.5 1520.5 675.358 1520.5 764 1520.5 852.642 1464.09 924.5 1394.5 924.5 1324.91 924.5 1268.5 852.642 1268.5 764Z" stroke="#8FAADC" stroke-width="4.58333" stroke-miterlimit="8" stroke-opacity="0" fill="#B4C7E7" fill-rule="evenodd"/><path d="M1666.55 1021C1667.27 1021.01 1667.84 1021.2 1668.28 1021.59 1668.72 1021.98 1668.94 1022.53 1668.96 1023.24 1668.97 1023.35 1668.9 1023.76 1668.74 1024.46 1668.58 1025.16 1668.25 1026.49 1667.76 1028.44 1667.27 1030.4 1666.54 1033.31 1665.55 1037.19L1672.86 1037.19C1673.61 1037.17 1674.18 1037.2 1674.58 1037.3 1674.98 1037.39 1675.18 1037.66 1675.18 1038.09 1675.18 1038.89 1674.97 1039.37 1674.56 1039.54 1674.14 1039.71 1673.52 1039.78 1672.69 1039.75L1664.89 1039.75 1658.75 1064.24C1658.58 1064.9 1658.46 1065.49 1658.37 1066.02 1658.29 1066.54 1658.25 1067.28 1658.25 1068.23 1658.25 1069.58 1658.46 1070.56 1658.88 1071.16 1659.31 1071.76 1659.95 1072.06 1660.82 1072.05 1662.28 1072.14 1663.99 1071.45 1665.94 1069.97 1667.89 1068.49 1669.78 1065.64 1671.61 1061.42 1671.8 1060.97 1671.96 1060.66 1672.11 1060.49 1672.25 1060.33 1672.5 1060.25 1672.86 1060.26 1673.04 1060.24 1673.25 1060.27 1673.48 1060.36 1673.71 1060.45 1673.83 1060.69 1673.85 1061.09 1673.85 1061.31 1673.56 1062.07 1672.98 1063.36 1672.4 1064.65 1671.55 1066.11 1670.43 1067.72 1669.31 1069.34 1667.93 1070.75 1666.29 1071.96 1664.65 1073.17 1662.77 1073.8 1660.66 1073.86 1658.38 1073.82 1656.55 1073.11 1655.16 1071.73 1653.78 1070.34 1653.07 1068.51 1653.03 1066.23 1653 1065.87 1653.1 1065.11 1653.34 1063.94 1653.57 1062.78 1654.14 1060.38 1655.04 1056.76 1655.94 1053.14 1657.37 1047.47 1659.33 1039.75L1652.03 1039.75C1651.21 1039.77 1650.62 1039.73 1650.25 1039.62 1649.88 1039.52 1649.7 1039.23 1649.71 1038.76 1649.71 1038 1649.92 1037.55 1650.33 1037.38 1650.75 1037.22 1651.37 1037.15 1652.2 1037.19L1659.99 1037.19 1663.23 1023.99C1663.68 1022.59 1664.29 1021.73 1665.08 1021.41 1665.86 1021.08 1666.35 1020.94 1666.55 1021Z" fill-rule="evenodd"/><text fill="#000000" fill-opacity="0" font-family="Arial,Arial_MSFontService,sans-serif" font-size="52.8734" x="1649.71" y="1067.25">𝑡</text><path d="M1704.31 1010.87C1704.52 1010.88 1704.71 1010.96 1704.88 1011.13 1705.04 1011.29 1705.13 1011.48 1705.14 1011.7 1705.13 1011.83 1705.1 1011.95 1705.03 1012.06 1704.97 1012.18 1704.89 1012.28 1704.81 1012.36 1701.91 1014.6 1699.39 1017.72 1697.25 1021.71 1695.1 1025.71 1693.44 1030.08 1692.25 1034.83 1691.07 1039.58 1690.46 1044.21 1690.45 1048.72L1690.45 1055.69C1690.46 1060.2 1691.07 1064.83 1692.25 1069.58 1693.44 1074.33 1695.1 1078.7 1697.25 1082.69 1699.39 1086.69 1701.91 1089.8 1704.81 1092.04 1704.89 1092.13 1704.97 1092.23 1705.03 1092.34 1705.1 1092.46 1705.13 1092.58 1705.14 1092.71 1705.13 1092.92 1705.04 1093.11 1704.88 1093.28 1704.71 1093.44 1704.52 1093.53 1704.31 1093.54 1704.14 1093.52 1703.98 1093.47 1703.81 1093.37 1700.72 1091 1697.82 1087.77 1695.13 1083.69 1692.44 1079.61 1690.25 1075.13 1688.57 1070.24 1686.89 1065.34 1686.03 1060.5 1685.98 1055.69L1685.98 1048.72C1686.03 1043.91 1686.89 1039.06 1688.57 1034.17 1690.25 1029.28 1692.44 1024.79 1695.13 1020.71 1697.82 1016.63 1700.72 1013.41 1703.81 1011.04 1703.98 1010.94 1704.14 1010.88 1704.31 1010.87Z" fill-rule="evenodd"/><text fill="#000000" fill-opacity="0" font-family="Arial,Arial_MSFontService,sans-serif" font-size="82.668" x="1685.98" y="1083.2">(</text><path d="M1722.7 1035.44C1724.29 1035.41 1726.03 1035.76 1727.93 1036.5 1729.83 1037.23 1731.32 1038.54 1732.41 1040.41 1733.67 1039.04 1735.24 1037.88 1737.13 1036.93 1739.01 1035.98 1741.12 1035.48 1743.45 1035.44 1746.04 1035.5 1748.04 1036.23 1749.45 1037.62 1750.85 1039 1751.56 1040.68 1751.58 1042.65 1751.51 1044.78 1750.87 1046.4 1749.65 1047.52 1748.44 1048.64 1747.09 1049.2 1745.61 1049.21 1744.24 1049.17 1743.21 1048.76 1742.51 1047.99 1741.82 1047.21 1741.47 1046.35 1741.46 1045.39 1741.39 1044.84 1741.66 1043.89 1742.28 1042.52 1742.9 1041.15 1744.32 1040.17 1746.52 1039.58 1746.41 1039.42 1746.1 1039.2 1745.59 1038.91 1745.08 1038.62 1744.32 1038.45 1743.29 1038.42 1741.21 1038.47 1739.41 1038.97 1737.88 1039.92 1736.36 1040.88 1735.11 1041.98 1734.16 1043.23 1733.65 1043.81 1733.32 1044.25 1733.17 1044.56 1733.02 1044.87 1732.88 1045.31 1732.75 1045.89L1726.93 1069.21C1726.41 1070.89 1725.59 1072.04 1724.47 1072.69 1723.36 1073.33 1722.35 1073.64 1721.45 1073.61 1720.16 1073.57 1719.19 1073.18 1718.54 1072.44 1717.88 1071.7 1717.55 1070.87 1717.55 1069.96 1717.58 1069.57 1717.77 1068.69 1718.11 1067.31 1718.45 1065.94 1718.77 1064.66 1719.05 1063.49L1720.71 1056.68 1723.03 1047.72C1723.48 1045.84 1723.79 1044.49 1723.95 1043.66 1724.12 1042.83 1724.2 1042.08 1724.19 1041.41 1724.19 1040.34 1724.03 1039.57 1723.71 1039.1 1723.38 1038.64 1722.91 1038.41 1722.28 1038.42 1721.17 1038.37 1720.14 1038.97 1719.21 1040.2 1718.28 1041.44 1717.42 1043.61 1716.64 1046.72 1716.4 1047.72 1716.25 1048.36 1716.18 1048.64 1716.11 1048.92 1716.04 1049.08 1715.98 1049.13 1715.78 1049.33 1715.57 1049.45 1715.33 1049.49 1715.1 1049.53 1714.76 1049.55 1714.32 1049.54 1713.91 1049.57 1713.49 1049.52 1713.05 1049.4 1712.61 1049.28 1712.37 1048.94 1712.33 1048.38 1712.34 1048.02 1712.61 1047 1713.16 1045.3 1713.71 1043.6 1714.48 1041.89 1715.48 1040.16 1716.39 1038.66 1717.43 1037.5 1718.62 1036.68 1719.81 1035.87 1721.17 1035.45 1722.7 1035.44Z" fill-rule="evenodd"/><text fill="#000000" fill-opacity="0" font-family="Arial,Arial_MSFontService,sans-serif" font-size="38.1736" x="1712.33" y="1068.84">𝒓</text><path d="M1758.78 1010.87C1758.94 1010.88 1759.11 1010.94 1759.28 1011.04 1762.37 1013.41 1765.26 1016.63 1767.96 1020.71 1770.65 1024.79 1772.84 1029.28 1774.52 1034.17 1776.2 1039.06 1777.06 1043.91 1777.11 1048.72L1777.11 1055.69C1777.06 1060.5 1776.2 1065.34 1774.52 1070.24 1772.84 1075.13 1770.65 1079.61 1767.96 1083.69 1765.26 1087.77 1762.37 1091 1759.28 1093.37 1759.11 1093.47 1758.94 1093.52 1758.78 1093.54 1758.56 1093.53 1758.37 1093.44 1758.21 1093.28 1758.04 1093.11 1757.96 1092.92 1757.95 1092.71 1757.95 1092.58 1757.99 1092.46 1758.05 1092.34 1758.12 1092.23 1758.19 1092.13 1758.28 1092.04 1761.18 1089.8 1763.7 1086.69 1765.84 1082.69 1767.98 1078.7 1769.65 1074.33 1770.84 1069.58 1772.02 1064.83 1772.62 1060.2 1772.64 1055.69L1772.64 1048.72C1772.62 1044.21 1772.02 1039.58 1770.84 1034.83 1769.65 1030.08 1767.98 1025.71 1765.84 1021.71 1763.7 1017.72 1761.18 1014.6 1758.28 1012.36 1758.19 1012.28 1758.12 1012.18 1758.05 1012.06 1757.99 1011.95 1757.95 1011.83 1757.95 1011.7 1757.96 1011.48 1758.04 1011.29 1758.21 1011.13 1758.37 1010.96 1758.56 1010.88 1758.78 1010.87Z" fill-rule="evenodd"/><text fill="#000000" fill-opacity="0" font-family="Arial,Arial_MSFontService,sans-serif" font-size="82.668" x="1757.95" y="1083.2">)</text><path d="M2.29167-2.22394e-06 2.29201 353.549-2.29132 353.549-2.29167 2.22394e-06ZM0.000343101 353.549 13.7503 344.382 0.000360892 371.882-13.7497 344.382Z" transform="matrix(1 0 0 -1 2959.5 1183.38)"/><path d="M3087.89 960.811C3086.56 960.789 3085.05 961.062 3083.37 961.631 3081.68 962.201 3080.09 963.201 3078.59 964.632 3077.87 965.236 3077.06 966.25 3076.18 967.674 3075.29 969.098 3074.46 971.296 3073.69 974.267 3076.48 974.319 3079.46 974.216 3082.61 973.957 3085.77 973.698 3088.48 972.973 3090.74 971.782 3093 970.591 3094.18 968.623 3094.29 965.878 3094.21 964.031 3093.52 962.72 3092.21 961.943 3090.91 961.166 3089.47 960.789 3087.89 960.811ZM3087.89 957.833C3091.35 957.864 3094.09 958.589 3096.13 960.008 3098.17 961.426 3099.21 963.355 3099.26 965.795 3099.36 967.216 3098.87 968.88 3097.8 970.788 3096.72 972.697 3094.47 974.297 3091.05 975.591 3089.27 976.166 3087.12 976.587 3084.6 976.852 3082.09 977.118 3079.42 977.248 3076.6 977.245L3072.95 977.245C3072.5 978.958 3072.17 980.474 3071.98 981.792 3071.79 983.111 3071.7 984.17 3071.7 984.969 3071.67 987.376 3072.28 989.31 3073.53 990.773 3074.78 992.235 3076.88 992.986 3079.84 993.025 3083.12 993.048 3086.27 992.546 3089.3 991.52 3092.33 990.494 3094.99 988.809 3097.27 986.464 3097.54 986.135 3097.76 985.9 3097.92 985.758 3098.08 985.616 3098.28 985.547 3098.51 985.551 3098.92 985.599 3099.36 985.876 3099.83 986.381 3100.29 986.886 3100.55 987.329 3100.59 987.71 3100.55 988.29 3099.79 989.227 3098.33 990.523 3096.86 991.818 3094.9 992.984 3092.46 994.018 3089.88 994.933 3087.38 995.502 3084.97 995.724 3082.55 995.946 3080.76 996.039 3079.59 996.003 3074.07 995.978 3069.81 994.682 3066.81 992.116 3063.81 989.55 3062.29 985.867 3062.25 981.066 3062.29 976.73 3063.39 972.816 3065.56 969.326 3067.73 965.836 3070.73 963.06 3074.57 960.998 3078.4 958.937 3082.85 957.882 3087.89 957.833Z" fill-rule="evenodd"/><text fill="#000000" fill-opacity="0" font-family="Arial,Arial_MSFontService,sans-serif" font-size="38.1772" x="3062.25" y="991.239">𝒆</text><path d="M3119.96 981.366C3120.61 981.341 3121.3 981.491 3122.01 981.815 3122.73 982.139 3123.57 982.782 3124.54 983.744 3125.4 984.552 3126.08 985.052 3126.59 985.244 3127.1 985.437 3127.52 985.516 3127.85 985.484 3128.53 985.503 3129.22 985.247 3129.9 984.715 3130.59 984.183 3131.37 983.26 3132.26 981.945 3132.39 981.718 3132.53 981.564 3132.66 981.482 3132.8 981.399 3132.99 981.361 3133.24 981.366 3133.38 981.351 3133.57 981.38 3133.82 981.453 3134.06 981.525 3134.2 981.728 3134.23 982.061 3134.21 982.444 3133.69 983.284 3132.68 984.58 3131.67 985.877 3130.27 987.413 3128.49 989.19 3127.89 989.758 3127.11 990.453 3126.13 991.272 3125.16 992.092 3124.21 992.877 3123.28 993.626 3122.36 994.375 3121.68 994.927 3121.24 995.283 3118.86 997.188 3117.19 998.585 3116.21 999.475 3115.23 1000.36 3114.42 1001.15 3113.75 1001.84 3113.96 1001.81 3114.23 1001.79 3114.55 1001.79 3114.87 1001.78 3115.05 1001.78 3115.09 1001.78 3115.55 1001.77 3116.04 1001.79 3116.57 1001.85 3117.09 1001.91 3117.99 1002.08 3119.26 1002.36 3119.99 1002.54 3120.71 1002.69 3121.42 1002.81 3122.14 1002.93 3122.83 1002.99 3123.5 1003 3124.98 1003 3126.43 1002.65 3127.84 1001.94 3129.25 1001.23 3130.26 1000.16 3130.87 998.708 3130.97 998.39 3131.09 998.155 3131.22 998.004 3131.35 997.853 3131.58 997.779 3131.91 997.78 3132.1 997.768 3132.31 997.806 3132.53 997.896 3132.75 997.985 3132.87 998.198 3132.89 998.534 3132.88 999.265 3132.47 1000.33 3131.66 1001.74 3130.84 1003.14 3129.68 1004.44 3128.18 1005.63 3126.67 1006.81 3124.88 1007.44 3122.8 1007.52 3121.9 1007.52 3121.09 1007.3 3120.37 1006.86 3119.65 1006.43 3118.86 1005.78 3117.99 1004.91 3117.21 1004.21 3116.58 1003.78 3116.09 1003.61 3115.6 1003.44 3115.19 1003.37 3114.85 1003.4 3113.87 1003.41 3112.93 1003.72 3112.04 1004.34 3111.15 1004.96 3110.31 1005.83 3109.52 1006.94 3109.39 1007.16 3109.26 1007.32 3109.14 1007.4 3109.02 1007.48 3108.82 1007.52 3108.54 1007.52 3108.4 1007.53 3108.2 1007.5 3107.96 1007.43 3107.71 1007.36 3107.58 1007.15 3107.55 1006.82 3107.55 1006.54 3107.98 1005.82 3108.83 1004.66 3109.68 1003.51 3110.98 1002.07 3112.71 1000.33 3113.21 999.789 3113.98 999.059 3115.02 998.14 3116.06 997.221 3117.69 995.882 3119.9 994.122 3121.71 992.676 3123.11 991.532 3124.11 990.689 3125.1 989.847 3125.88 989.163 3126.43 988.637 3126.98 988.111 3127.49 987.599 3127.97 987.1 3127.32 987.115 3126.7 987.086 3126.1 987.013 3125.49 986.941 3124.43 986.738 3122.92 986.404 3122.49 986.307 3121.95 986.198 3121.29 986.078 3120.62 985.959 3119.95 985.893 3119.26 985.882 3118.92 985.871 3118.42 985.906 3117.74 985.988 3117.06 986.069 3116.38 986.263 3115.7 986.57 3115.03 986.877 3114.53 987.363 3114.22 988.028 3114.11 988.341 3114 988.556 3113.87 988.674 3113.74 988.791 3113.51 988.846 3113.17 988.84 3112.96 988.844 3112.74 988.793 3112.53 988.688 3112.32 988.583 3112.21 988.402 3112.19 988.144 3112.2 987.513 3112.53 986.669 3113.17 985.614 3113.82 984.558 3114.72 983.599 3115.88 982.736 3117.04 981.874 3118.4 981.417 3119.96 981.366Z" fill-rule="evenodd"/><text fill="#000000" fill-opacity="0" font-family="Arial,Arial_MSFontService,sans-serif" font-size="26.158" x="3107.55" y="1004.25">𝑧</text><g clip-path="url(#clip11)" filter="url(#fx2)" transform="translate(1928 280)"><g clip-path="url(#clip12)"><path d="M22.4999 181.833C22.4999 93.4679 78.912 21.8334 148.5 21.8334 218.088 21.8334 274.5 93.4679 274.5 181.833 274.5 270.199 218.088 341.833 148.5 341.833 78.912 341.833 22.4999 270.199 22.4999 181.833Z" stroke="#8FAADC" stroke-width="5" stroke-miterlimit="8" stroke-opacity="0" fill="#B4C7E7" fill-rule="evenodd"/><path d="M22.4999 502.333C22.4999 413.692 78.912 341.833 148.5 341.833 218.088 341.833 274.5 413.692 274.5 502.333 274.5 590.975 218.088 662.833 148.5 662.833 78.912 662.833 22.4999 590.975 22.4999 502.333Z" stroke="#8FAADC" stroke-width="5" stroke-miterlimit="8" stroke-opacity="0" fill="#B4C7E7" fill-rule="evenodd"/></g></g><path d="M1950.5 443.5C1950.5 355.135 2006.91 283.5 2076.5 283.5 2146.09 283.5 2202.5 355.135 2202.5 443.5 2202.5 531.866 2146.09 603.5 2076.5 603.5 2006.91 603.5 1950.5 531.866 1950.5 443.5Z" stroke="#8FAADC" stroke-width="4.58333" stroke-miterlimit="8" stroke-opacity="0" fill="#B4C7E7" fill-rule="evenodd"/><path d="M1950.5 764C1950.5 675.358 2006.91 603.5 2076.5 603.5 2146.09 603.5 2202.5 675.358 2202.5 764 2202.5 852.642 2146.09 924.5 2076.5 924.5 2006.91 924.5 1950.5 852.642 1950.5 764Z" stroke="#8FAADC" stroke-width="4.58333" stroke-miterlimit="8" stroke-opacity="0" fill="#B4C7E7" fill-rule="evenodd"/><g clip-path="url(#clip13)" filter="url(#fx3)" transform="translate(1214 1075)"><g clip-path="url(#clip14)"><path d="M22.5 181.833C22.5 93.4676 79.136 21.8331 149 21.8331 218.864 21.8331 275.5 93.4676 275.5 181.833 275.5 270.199 218.864 341.833 149 341.833 79.136 341.833 22.5 270.199 22.5 181.833Z" stroke="#8FAADC" stroke-width="5" stroke-miterlimit="8" stroke-opacity="0" fill="#B4C7E7" fill-rule="evenodd"/><path d="M22.5 501.833C22.5 413.468 79.136 341.833 149 341.833 218.864 341.833 275.5 413.468 275.5 501.833 275.5 590.199 218.864 661.833 149 661.833 79.136 661.833 22.5 590.199 22.5 501.833Z" stroke="#8FAADC" stroke-width="5" stroke-miterlimit="8" stroke-opacity="0" fill="#B4C7E7" fill-rule="evenodd"/></g></g><path d="M1236.5 1238.5C1236.5 1150.13 1293.14 1078.5 1363 1078.5 1432.86 1078.5 1489.5 1150.13 1489.5 1238.5 1489.5 1326.87 1432.86 1398.5 1363 1398.5 1293.14 1398.5 1236.5 1326.87 1236.5 1238.5Z" stroke="#8FAADC" stroke-width="4.58333" stroke-miterlimit="8" stroke-opacity="0" fill="#B4C7E7" fill-rule="evenodd"/><path d="M1236.5 1558.5C1236.5 1470.13 1293.14 1398.5 1363 1398.5 1432.86 1398.5 1489.5 1470.13 1489.5 1558.5 1489.5 1646.87 1432.86 1718.5 1363 1718.5 1293.14 1718.5 1236.5 1646.87 1236.5 1558.5Z" stroke="#8FAADC" stroke-width="4.58333" stroke-miterlimit="8" stroke-opacity="0" fill="#B4C7E7" fill-rule="evenodd"/><g clip-path="url(#clip15)" filter="url(#fx4)" transform="translate(1926 1075)"><g clip-path="url(#clip16)"><path d="M22.4999 181.833C22.4999 93.4676 78.912 21.8331 148.5 21.8331 218.088 21.8331 274.5 93.4676 274.5 181.833 274.5 270.199 218.088 341.833 148.5 341.833 78.912 341.833 22.4999 270.199 22.4999 181.833Z" stroke="#8FAADC" stroke-width="5" stroke-miterlimit="8" stroke-opacity="0" fill="#B4C7E7" fill-rule="evenodd"/><path d="M22.4999 501.833C22.4999 413.468 78.912 341.833 148.5 341.833 218.088 341.833 274.5 413.468 274.5 501.833 274.5 590.199 218.088 661.833 148.5 661.833 78.912 661.833 22.4999 590.199 22.4999 501.833Z" stroke="#8FAADC" stroke-width="5" stroke-miterlimit="8" stroke-opacity="0" fill="#B4C7E7" fill-rule="evenodd"/></g></g><path d="M1948.5 1238.5C1948.5 1150.13 2004.91 1078.5 2074.5 1078.5 2144.09 1078.5 2200.5 1150.13 2200.5 1238.5 2200.5 1326.87 2144.09 1398.5 2074.5 1398.5 2004.91 1398.5 1948.5 1326.87 1948.5 1238.5Z" stroke="#8FAADC" stroke-width="4.58333" stroke-miterlimit="8" stroke-opacity="0" fill="#B4C7E7" fill-rule="evenodd"/><path d="M1948.5 1558.5C1948.5 1470.13 2004.91 1398.5 2074.5 1398.5 2144.09 1398.5 2200.5 1470.13 2200.5 1558.5 2200.5 1646.87 2144.09 1718.5 2074.5 1718.5 2004.91 1718.5 1948.5 1646.87 1948.5 1558.5Z" stroke="#8FAADC" stroke-width="4.58333" stroke-miterlimit="8" stroke-opacity="0" fill="#B4C7E7" fill-rule="evenodd"/><g clip-path="url(#clip17)" filter="url(#fx5)" transform="translate(2502 628)"><g clip-path="url(#clip18)"><path d="M22.5 181.833C22.5 93.4678 78.9121 21.8333 148.5 21.8333 218.088 21.8333 274.5 93.4678 274.5 181.833 274.5 270.199 218.088 341.833 148.5 341.833 78.9121 341.833 22.5 270.199 22.5 181.833Z" stroke="#8FAADC" stroke-width="5" stroke-miterlimit="8" stroke-opacity="0" fill="#B4C7E7" fill-rule="evenodd"/><path d="M22.5 501.833C22.5 413.468 78.9121 341.833 148.5 341.833 218.088 341.833 274.5 413.468 274.5 501.833 274.5 590.199 218.088 661.833 148.5 661.833 78.9121 661.833 22.5 590.199 22.5 501.833Z" stroke="#8FAADC" stroke-width="5" stroke-miterlimit="8" stroke-opacity="0" fill="#B4C7E7" fill-rule="evenodd"/></g></g><path d="M2524.5 791.5C2524.5 703.134 2580.91 631.5 2650.5 631.5 2720.09 631.5 2776.5 703.134 2776.5 791.5 2776.5 879.865 2720.09 951.5 2650.5 951.5 2580.91 951.5 2524.5 879.865 2524.5 791.5Z" stroke="#8FAADC" stroke-width="4.58333" stroke-miterlimit="8" stroke-opacity="0" fill="#B4C7E7" fill-rule="evenodd"/><path d="M2524.5 1111.5C2524.5 1023.13 2580.91 951.5 2650.5 951.5 2720.09 951.5 2776.5 1023.13 2776.5 1111.5 2776.5 1199.87 2720.09 1271.5 2650.5 1271.5 2580.91 1271.5 2524.5 1199.87 2524.5 1111.5Z" stroke="#8FAADC" stroke-width="4.58333" stroke-miterlimit="8" stroke-opacity="0" fill="#B4C7E7" fill-rule="evenodd"/><path d="M0 0 540.046 342.88" stroke="#000000" stroke-width="5.72917" stroke-miterlimit="8" fill="none" fill-rule="evenodd" transform="matrix(1 0 0 -1 854 945.88)"/><path d="M1394 603 2075.6 603" stroke="#000000" stroke-width="5.72917" stroke-miterlimit="8" fill="none" fill-rule="evenodd"/><path d="M2076 603 2650.09 950.579" stroke="#000000" stroke-width="5.72917" stroke-miterlimit="8" fill="none" fill-rule="evenodd"/><path d="M854 946 1362.15 1397.61" stroke="#000000" stroke-width="5.72917" stroke-miterlimit="8" fill="none" fill-rule="evenodd"/><path d="M0 0 711.896 0.000360892" stroke="#000000" stroke-width="5.72917" stroke-miterlimit="8" fill="none" fill-rule="evenodd" transform="matrix(1 0 0 -1 1362 1398)"/><path d="M0 0 575.699 446.91" stroke="#000000" stroke-width="5.72917" stroke-miterlimit="8" fill="none" fill-rule="evenodd" transform="matrix(-1 0 0 1 2649.7 951)"/><path d="M1360.23 1078.21 1360.76 1074.04 1362.52 1069.68 1365.24 1065.53 1368.89 1061.49 1373.45 1057.51 1378.86 1053.65 1385.05 1049.88 1392.1 1046.14 1399.82 1042.53 1408.34 1038.93 1417.6 1035.47 1427.48 1032.07 1438.03 1028.8 1449.21 1025.6 1460.94 1022.53 1473.23 1019.58 1486.02 1016.7 1499.31 1014 1513.1 1011.43 1527.25 1008.99 1541.85 1006.67 1556.76 1004.54 1587.57 1000.78 1619.38 997.778 1652 995.587 1685.12 994.209 1718.5 993.708 1751.88 994.209 1785 995.587 1817.62 997.778 1849.43 1000.78 1880.18 1004.54 1895.15 1006.67 1909.69 1008.99 1923.84 1011.43 1937.63 1014 1950.91 1016.7 1963.71 1019.52 1976 1022.53 1987.73 1025.6 1998.9 1028.8 2009.46 1032.07 2019.34 1035.47 2028.6 1038.93 2037.12 1042.53 2044.84 1046.14 2051.88 1049.88 2058.31 1053.79 2062.47 1058.6 2059.01 1061.6 2055.08 1057.06 2055.62 1057.52 2049.56 1053.83 2049.67 1053.9 2042.74 1050.21 2042.84 1050.26 2035.22 1046.7 2035.3 1046.74 2026.86 1043.17 2026.95 1043.21 2017.76 1039.77 2017.82 1039.79 2008 1036.42 2008.07 1036.44 1997.57 1033.19 1997.62 1033.2 1986.49 1030.02 1986.54 1030.03 1974.86 1026.97 1974.89 1026.98 1962.64 1023.98 1962.69 1023.99 1949.94 1021.18 1949.98 1021.18 1936.73 1018.5 1936.77 1018.5 1923.02 1015.94 1923.05 1015.95 1908.92 1013.51 1908.95 1013.51 1894.45 1011.2 1894.49 1011.21 1879.55 1009.08 1879.6 1009.09 1848.91 1005.34 1848.97 1005.34 1817.22 1002.34 1817.28 1002.35 1784.72 1000.16 1784.78 1000.17 1751.72 998.79 1751.78 998.792 1718.47 998.292 1718.53 998.292 1685.22 998.792 1685.28 998.79 1652.22 1000.17 1652.28 1000.16 1619.72 1002.35 1619.78 1002.34 1588.03 1005.34 1588.09 1005.34 1557.34 1009.09 1557.39 1009.08 1542.51 1011.21 1542.55 1011.2 1527.98 1013.51 1528.01 1013.51 1513.89 1015.95 1513.92 1015.94 1500.17 1018.5 1500.21 1018.5 1486.96 1021.18 1487 1021.17 1474.25 1024.05 1474.28 1024.04 1462.03 1026.98 1462.08 1026.97 1450.39 1030.03 1450.44 1030.02 1439.32 1033.2 1439.37 1033.19 1428.87 1036.44 1428.93 1036.42 1419.12 1039.79 1419.18 1039.77 1409.99 1043.21 1410.08 1043.17 1401.64 1046.74 1401.72 1046.7 1394.1 1050.26 1394.2 1050.21 1387.26 1053.9 1387.38 1053.83 1381.32 1057.52 1381.46 1057.43 1376.21 1061.18 1376.38 1061.04 1372.01 1064.85 1372.2 1064.66 1368.76 1068.47 1368.98 1068.19 1366.48 1072.01 1366.69 1071.61 1365.13 1075.48 1365.27 1074.92 1364.77 1078.79ZM2069.05 1048.22 2074.4 1078.5 2046.97 1064.61Z"/><path d="M2067.54 1223.11C2066.82 1223.08 2065.89 1223.29 2064.74 1223.73 2063.58 1224.16 2062.28 1225.01 2060.81 1226.27 2060.02 1226.92 2059.18 1227.76 2058.31 1228.8 2057.44 1229.84 2056.84 1230.94 2056.5 1232.08L2052.43 1248.35C2052.31 1248.85 2052.24 1249.19 2052.21 1249.39 2052.18 1249.59 2052.17 1249.69 2052.18 1249.68 2052.16 1249.93 2052.32 1250.64 2052.66 1251.82 2053 1253 2053.65 1254.15 2054.6 1255.27 2055.55 1256.39 2056.93 1256.99 2058.74 1257.07 2060.32 1257.08 2062 1256.38 2063.77 1254.98 2065.55 1253.57 2067.16 1251.42 2068.62 1248.52 2069.14 1247.4 2069.73 1245.77 2070.38 1243.64 2071.03 1241.51 2071.6 1239.28 2072.09 1236.96 2072.57 1234.63 2072.83 1232.62 2072.85 1230.92 2072.84 1228.45 2072.37 1226.54 2071.44 1225.18 2070.51 1223.82 2069.21 1223.13 2067.54 1223.11ZM2049.44 1221.3C2051.04 1221.28 2052.57 1221.75 2054.02 1222.73 2055.46 1223.7 2056.43 1225.29 2056.91 1227.51 2058.3 1225.84 2059.94 1224.4 2061.82 1223.19 2063.7 1221.99 2065.69 1221.36 2067.79 1221.3 2071.01 1221.36 2073.63 1222.6 2075.67 1225.01 2077.7 1227.42 2078.75 1230.6 2078.82 1234.57 2078.75 1238.71 2077.74 1242.62 2075.77 1246.3 2073.81 1249.98 2071.32 1252.97 2068.29 1255.3 2065.26 1257.62 2062.1 1258.81 2058.82 1258.89 2056.72 1258.82 2055.05 1258.23 2053.82 1257.14 2052.59 1256.04 2051.71 1254.86 2051.18 1253.58 2051.02 1254.17 2050.73 1255.28 2050.3 1256.91 2049.88 1258.55 2049.42 1260.34 2048.93 1262.29 2048.44 1264.23 2048.02 1265.96 2047.67 1267.46 2047.32 1268.97 2047.13 1269.87 2047.11 1270.18 2047.03 1270.57 2047.2 1270.88 2047.63 1271.13 2048.07 1271.38 2049.28 1271.5 2051.27 1271.51 2051.86 1271.49 2052.33 1271.53 2052.7 1271.63 2053.06 1271.72 2053.25 1271.99 2053.26 1272.42 2053.22 1273.22 2053.02 1273.7 2052.67 1273.87 2052.31 1274.04 2052.01 1274.11 2051.76 1274.08 2050.43 1274.07 2049.07 1274.02 2047.68 1273.95 2046.3 1273.88 2044.92 1273.84 2043.54 1273.83 2042.38 1273.84 2041.21 1273.88 2040.03 1273.95 2038.86 1274.02 2037.71 1274.07 2036.58 1274.08 2036.25 1274.08 2035.98 1273.99 2035.79 1273.83 2035.6 1273.66 2035.51 1273.41 2035.5 1273.08 2035.52 1272.33 2035.71 1271.87 2036.08 1271.71 2036.45 1271.55 2036.9 1271.48 2037.41 1271.51 2039.15 1271.55 2040.27 1271.33 2040.77 1270.87 2041.27 1270.41 2041.64 1269.49 2041.89 1268.11L2051.18 1231.17C2051.35 1230.49 2051.49 1229.85 2051.6 1229.24 2051.71 1228.62 2051.76 1227.86 2051.76 1226.93 2051.74 1225.39 2051.49 1224.36 2051.01 1223.84 2050.52 1223.32 2049.91 1223.08 2049.19 1223.11 2047.72 1223.16 2046.51 1224.07 2045.57 1225.84 2044.62 1227.62 2043.81 1230 2043.13 1232.99 2042.9 1233.87 2042.71 1234.42 2042.55 1234.63 2042.39 1234.85 2042.11 1234.94 2041.72 1234.9 2041.68 1234.92 2041.52 1234.89 2041.23 1234.8 2040.94 1234.71 2040.77 1234.47 2040.73 1234.07 2040.74 1233.95 2040.85 1233.42 2041.07 1232.5 2041.28 1231.58 2041.59 1230.52 2041.97 1229.31 2042.35 1228.1 2042.79 1227 2043.29 1226.02 2043.64 1225.17 2044.28 1224.2 2045.21 1223.1 2046.15 1222 2047.56 1221.4 2049.44 1221.3Z" fill-rule="evenodd"/><text fill="#000000" fill-opacity="0" font-family="Arial,Arial_MSFontService,sans-serif" font-size="52.7869" x="2035.5" y="1267.49">𝑝</text><path d="M2096.18 1247.93C2096.86 1247.9 2097.58 1248.06 2098.34 1248.4 2099.09 1248.74 2099.98 1249.42 2101 1250.43 2101.9 1251.28 2102.62 1251.8 2103.15 1252.01 2103.68 1252.21 2104.13 1252.29 2104.48 1252.26 2105.19 1252.28 2105.91 1252.01 2106.64 1251.45 2107.36 1250.89 2108.18 1249.92 2109.11 1248.53 2109.25 1248.3 2109.39 1248.13 2109.53 1248.05 2109.68 1247.96 2109.88 1247.92 2110.14 1247.93 2110.29 1247.91 2110.5 1247.94 2110.75 1248.02 2111.01 1248.09 2111.15 1248.31 2111.18 1248.66 2111.16 1249.06 2110.62 1249.94 2109.56 1251.31 2108.5 1252.67 2107.03 1254.29 2105.15 1256.15 2104.52 1256.75 2103.69 1257.48 2102.67 1258.35 2101.64 1259.21 2100.65 1260.03 2099.67 1260.82 2098.7 1261.61 2097.99 1262.19 2097.52 1262.56 2095.02 1264.57 2093.26 1266.04 2092.23 1266.97 2091.21 1267.91 2090.35 1268.74 2089.65 1269.46 2089.87 1269.43 2090.15 1269.41 2090.49 1269.41 2090.83 1269.4 2091.02 1269.4 2091.05 1269.4 2091.54 1269.39 2092.06 1269.41 2092.61 1269.47 2093.16 1269.54 2094.1 1269.72 2095.45 1270.01 2096.21 1270.2 2096.97 1270.35 2097.72 1270.48 2098.47 1270.61 2099.2 1270.67 2099.9 1270.68 2101.46 1270.68 2102.98 1270.31 2104.46 1269.57 2105.94 1268.82 2107.01 1267.69 2107.65 1266.16 2107.76 1265.83 2107.88 1265.58 2108.02 1265.43 2108.15 1265.27 2108.4 1265.19 2108.74 1265.19 2108.95 1265.18 2109.17 1265.22 2109.4 1265.31 2109.63 1265.41 2109.76 1265.63 2109.78 1265.98 2109.77 1266.75 2109.33 1267.88 2108.48 1269.35 2107.62 1270.83 2106.4 1272.19 2104.82 1273.44 2103.24 1274.69 2101.35 1275.35 2099.17 1275.43 2098.22 1275.43 2097.37 1275.2 2096.61 1274.74 2095.86 1274.29 2095.02 1273.6 2094.1 1272.68 2093.29 1271.95 2092.63 1271.5 2092.11 1271.32 2091.6 1271.14 2091.16 1271.07 2090.81 1271.1 2089.77 1271.11 2088.78 1271.44 2087.85 1272.09 2086.91 1272.74 2086.03 1273.65 2085.2 1274.82 2085.06 1275.06 2084.93 1275.22 2084.8 1275.31 2084.67 1275.39 2084.46 1275.43 2084.17 1275.43 2084.02 1275.44 2083.81 1275.41 2083.56 1275.34 2083.3 1275.26 2083.16 1275.05 2083.13 1274.7 2083.13 1274.4 2083.57 1273.64 2084.47 1272.43 2085.37 1271.22 2086.73 1269.7 2088.56 1267.87 2089.08 1267.3 2089.89 1266.53 2090.98 1265.57 2092.08 1264.6 2093.79 1263.19 2096.12 1261.34 2098.02 1259.82 2099.49 1258.62 2100.54 1257.73 2101.59 1256.85 2102.4 1256.13 2102.98 1255.57 2103.56 1255.02 2104.1 1254.48 2104.6 1253.96 2103.92 1253.97 2103.26 1253.94 2102.63 1253.87 2102 1253.79 2100.88 1253.58 2099.29 1253.23 2098.84 1253.12 2098.27 1253.01 2097.57 1252.88 2096.88 1252.76 2096.17 1252.69 2095.45 1252.68 2095.09 1252.66 2094.55 1252.7 2093.84 1252.79 2093.12 1252.87 2092.41 1253.08 2091.7 1253.4 2090.99 1253.72 2090.47 1254.23 2090.14 1254.93 2090.03 1255.26 2089.91 1255.49 2089.77 1255.61 2089.63 1255.74 2089.39 1255.79 2089.04 1255.79 2088.81 1255.79 2088.59 1255.74 2088.37 1255.63 2088.14 1255.52 2088.03 1255.33 2088.01 1255.06 2088.02 1254.39 2088.36 1253.5 2089.04 1252.39 2089.72 1251.28 2090.67 1250.27 2091.89 1249.37 2093.11 1248.46 2094.54 1247.98 2096.18 1247.93Z" fill-rule="evenodd"/><text fill="#000000" fill-opacity="0" font-family="Arial,Arial_MSFontService,sans-serif" font-size="27.511" x="2083.13" y="1271.99">𝑧</text><path d="M1369.23 1200.68C1368.51 1200.65 1367.58 1200.86 1366.42 1201.29 1365.27 1201.73 1363.96 1202.58 1362.5 1203.84 1361.7 1204.48 1360.87 1205.33 1360 1206.37 1359.13 1207.41 1358.52 1208.5 1358.18 1209.65L1354.11 1225.92C1353.99 1226.41 1353.92 1226.76 1353.9 1226.96 1353.87 1227.16 1353.86 1227.26 1353.87 1227.25 1353.84 1227.5 1354.01 1228.21 1354.35 1229.39 1354.69 1230.56 1355.34 1231.71 1356.29 1232.83 1357.24 1233.95 1358.62 1234.56 1360.42 1234.64 1362 1234.65 1363.68 1233.95 1365.46 1232.54 1367.23 1231.14 1368.85 1228.99 1370.31 1226.09 1370.83 1224.97 1371.42 1223.34 1372.07 1221.21 1372.72 1219.08 1373.29 1216.85 1373.77 1214.52 1374.26 1212.2 1374.51 1210.19 1374.54 1208.49 1374.53 1206.02 1374.06 1204.1 1373.13 1202.75 1372.2 1201.39 1370.9 1200.7 1369.23 1200.68ZM1351.13 1198.87C1352.73 1198.84 1354.25 1199.32 1355.7 1200.29 1357.15 1201.26 1358.12 1202.86 1358.6 1205.08 1359.99 1203.41 1361.63 1201.96 1363.51 1200.76 1365.39 1199.55 1367.38 1198.92 1369.47 1198.87 1372.69 1198.93 1375.32 1200.17 1377.36 1202.57 1379.39 1204.98 1380.44 1208.17 1380.51 1212.14 1380.44 1216.28 1379.42 1220.19 1377.46 1223.87 1375.5 1227.54 1373 1230.54 1369.97 1232.86 1366.94 1235.18 1363.79 1236.38 1360.51 1236.45 1358.4 1236.38 1356.74 1235.8 1355.51 1234.71 1354.27 1233.61 1353.39 1232.43 1352.87 1231.15 1352.71 1231.73 1352.41 1232.84 1351.99 1234.48 1351.56 1236.12 1351.11 1237.91 1350.62 1239.86 1350.13 1241.8 1349.71 1243.53 1349.35 1245.03 1349 1246.53 1348.82 1247.44 1348.8 1247.75 1348.71 1248.13 1348.89 1248.45 1349.32 1248.7 1349.75 1248.94 1350.96 1249.07 1352.95 1249.08 1353.54 1249.06 1354.02 1249.1 1354.38 1249.19 1354.75 1249.29 1354.93 1249.55 1354.94 1249.99 1354.91 1250.78 1354.71 1251.26 1354.35 1251.44 1353.99 1251.61 1353.69 1251.68 1353.45 1251.64 1352.12 1251.63 1350.76 1251.59 1349.37 1251.52 1347.99 1251.45 1346.61 1251.41 1345.23 1251.39 1344.07 1251.41 1342.9 1251.45 1341.72 1251.52 1340.55 1251.59 1339.39 1251.63 1338.27 1251.64 1337.93 1251.64 1337.67 1251.56 1337.48 1251.39 1337.29 1251.23 1337.19 1250.98 1337.19 1250.65 1337.21 1249.9 1337.4 1249.44 1337.77 1249.28 1338.14 1249.11 1338.58 1249.05 1339.1 1249.08 1340.84 1249.11 1341.96 1248.9 1342.46 1248.44 1342.96 1247.97 1343.33 1247.05 1343.58 1245.67L1352.87 1208.73C1353.04 1208.06 1353.18 1207.42 1353.28 1206.8 1353.39 1206.19 1353.45 1205.42 1353.45 1204.5 1353.43 1202.96 1353.18 1201.93 1352.69 1201.41 1352.21 1200.88 1351.6 1200.64 1350.88 1200.68 1349.4 1200.72 1348.2 1201.63 1347.25 1203.41 1346.31 1205.19 1345.5 1207.57 1344.82 1210.56 1344.59 1211.44 1344.4 1211.99 1344.24 1212.2 1344.07 1212.41 1343.8 1212.5 1343.41 1212.47 1343.37 1212.49 1343.2 1212.45 1342.91 1212.37 1342.63 1212.28 1342.46 1212.04 1342.42 1211.64 1342.42 1211.51 1342.53 1210.99 1342.75 1210.07 1342.97 1209.15 1343.27 1208.08 1343.66 1206.87 1344.04 1205.67 1344.48 1204.57 1344.98 1203.59 1345.33 1202.74 1345.97 1201.76 1346.9 1200.67 1347.84 1199.57 1349.25 1198.97 1351.13 1198.87Z" fill-rule="evenodd"/><text fill="#000000" fill-opacity="0" font-family="Arial,Arial_MSFontService,sans-serif" font-size="52.7869" x="1337.19" y="1245.05">𝑝</text><path d="M1397.04 1221.57C1397.69 1221.54 1398.38 1221.69 1399.09 1222.02 1399.81 1222.34 1400.65 1222.98 1401.62 1223.95 1402.48 1224.75 1403.16 1225.25 1403.67 1225.45 1404.18 1225.64 1404.6 1225.72 1404.93 1225.69 1405.61 1225.7 1406.3 1225.45 1406.98 1224.92 1407.67 1224.39 1408.45 1223.46 1409.33 1222.15 1409.47 1221.92 1409.6 1221.77 1409.74 1221.68 1409.87 1221.6 1410.07 1221.56 1410.32 1221.57 1410.46 1221.55 1410.65 1221.58 1410.9 1221.65 1411.14 1221.73 1411.28 1221.93 1411.3 1222.26 1411.29 1222.65 1410.77 1223.49 1409.76 1224.78 1408.75 1226.08 1407.35 1227.61 1405.57 1229.39 1404.97 1229.96 1404.19 1230.65 1403.21 1231.47 1402.24 1232.29 1401.29 1233.08 1400.36 1233.83 1399.44 1234.58 1398.76 1235.13 1398.32 1235.48 1395.94 1237.39 1394.26 1238.79 1393.29 1239.68 1392.31 1240.57 1391.5 1241.35 1390.83 1242.04 1391.04 1242.01 1391.31 1242 1391.63 1241.99 1391.95 1241.98 1392.13 1241.98 1392.17 1241.98 1392.63 1241.97 1393.12 1242 1393.64 1242.06 1394.17 1242.12 1395.07 1242.29 1396.34 1242.56 1397.07 1242.74 1397.79 1242.89 1398.5 1243.01 1399.22 1243.13 1399.91 1243.2 1400.58 1243.2 1402.06 1243.2 1403.51 1242.85 1404.92 1242.14 1406.33 1241.43 1407.34 1240.36 1407.95 1238.91 1408.05 1238.59 1408.16 1238.36 1408.29 1238.21 1408.42 1238.06 1408.66 1237.98 1408.99 1237.98 1409.18 1237.97 1409.39 1238.01 1409.61 1238.1 1409.83 1238.19 1409.95 1238.4 1409.97 1238.74 1409.96 1239.47 1409.55 1240.54 1408.73 1241.94 1407.92 1243.35 1406.76 1244.64 1405.26 1245.83 1403.75 1247.01 1401.96 1247.64 1399.88 1247.72 1398.98 1247.72 1398.17 1247.5 1397.45 1247.07 1396.73 1246.63 1395.94 1245.98 1395.07 1245.11 1394.29 1244.41 1393.66 1243.98 1393.17 1243.81 1392.68 1243.64 1392.27 1243.57 1391.93 1243.6 1390.95 1243.61 1390.01 1243.92 1389.12 1244.54 1388.23 1245.16 1387.39 1246.03 1386.6 1247.14 1386.47 1247.37 1386.34 1247.52 1386.22 1247.6 1386.1 1247.68 1385.89 1247.72 1385.62 1247.72 1385.48 1247.73 1385.28 1247.7 1385.04 1247.63 1384.79 1247.56 1384.66 1247.36 1384.63 1247.02 1384.63 1246.74 1385.05 1246.02 1385.91 1244.87 1386.76 1243.71 1388.06 1242.27 1389.79 1240.53 1390.29 1239.99 1391.06 1239.26 1392.1 1238.34 1393.14 1237.42 1394.77 1236.08 1396.98 1234.32 1398.79 1232.88 1400.19 1231.73 1401.19 1230.89 1402.18 1230.05 1402.96 1229.36 1403.51 1228.84 1404.06 1228.31 1404.57 1227.8 1405.05 1227.3 1404.4 1227.32 1403.78 1227.29 1403.18 1227.22 1402.57 1227.14 1401.51 1226.94 1400 1226.61 1399.57 1226.51 1399.03 1226.4 1398.37 1226.28 1397.7 1226.16 1397.03 1226.09 1396.34 1226.08 1396 1226.07 1395.5 1226.11 1394.81 1226.19 1394.13 1226.27 1393.46 1226.46 1392.78 1226.77 1392.11 1227.08 1391.61 1227.56 1391.29 1228.23 1391.19 1228.54 1391.08 1228.76 1390.95 1228.88 1390.82 1228.99 1390.59 1229.05 1390.25 1229.04 1390.04 1229.05 1389.82 1228.99 1389.61 1228.89 1389.4 1228.78 1389.29 1228.6 1389.27 1228.35 1389.28 1227.71 1389.61 1226.87 1390.25 1225.82 1390.9 1224.76 1391.8 1223.8 1392.96 1222.94 1394.12 1222.08 1395.48 1221.62 1397.04 1221.57Z" fill-rule="evenodd"/><text fill="#000000" fill-opacity="0" font-family="Arial,Arial_MSFontService,sans-serif" font-size="26.158" x="1384.63" y="1244.45">𝑧</text></g></svg>