<svg width="2472" height="1477" xmlns="http://www.w3.org/2000/svg" xmlns:xlink="http://www.w3.org/1999/xlink" xml:space="preserve" overflow="hidden"><defs><filter id="fx0" x="-10%" y="-10%" width="120%" height="120%" filterUnits="userSpaceOnUse" primitiveUnits="userSpaceOnUse"><feComponentTransfer color-interpolation-filters="sRGB"><feFuncR type="discrete" tableValues="0.560784 0.560784"/><feFuncG type="discrete" tableValues="0.666667 0.666667"/><feFuncB type="discrete" tableValues="0.862745 0.862745"/><feFuncA type="linear" slope="0.4" intercept="0"/></feComponentTransfer><feGaussianBlur stdDeviation="6.11111 6.11111"/></filter><filter id="fx1" x="-10%" y="-10%" width="120%" height="120%" filterUnits="userSpaceOnUse" primitiveUnits="userSpaceOnUse"><feComponentTransfer color-interpolation-filters="sRGB"><feFuncR type="discrete" tableValues="0.560784 0.560784"/><feFuncG type="discrete" tableValues="0.666667 0.666667"/><feFuncB type="discrete" tableValues="0.862745 0.862745"/><feFuncA type="linear" slope="0.4" intercept="0"/></feComponentTransfer><feGaussianBlur stdDeviation="6.11111 6.11111"/></filter><filter id="fx2" x="-10%" y="-10%" width="120%" height="120%" filterUnits="userSpaceOnUse" primitiveUnits="userSpaceOnUse"><feComponentTransfer color-interpolation-filters="sRGB"><feFuncR type="discrete" tableValues="0.560784 0.560784"/><feFuncG type="discrete" tableValues="0.666667 0.666667"/><feFuncB type="discrete" tableValues="0.862745 0.862745"/><feFuncA type="linear" slope="0.4" intercept="0"/></feComponentTransfer><feGaussianBlur stdDeviation="6.11111 6.11111"/></filter><filter id="fx3" x="-10%" y="-10%" width="120%" height="120%" filterUnits="userSpaceOnUse" primitiveUnits="userSpaceOnUse"><feComponentTransfer color-interpolation-filters="sRGB"><feFuncR type="discrete" tableValues="0.560784 0.560784"/><feFuncG type="discrete" tableValues="0.666667 0.666667"/><feFuncB type="discrete" tableValues="0.862745 0.862745"/><feFuncA type="linear" slope="0.4" intercept="0"/></feComponentTransfer><feGaussianBlur stdDeviation="6.11111 6.11111"/></filter><filter id="fx4" x="-10%" y="-10%" width="120%" height="120%" filterUnits="userSpaceOnUse" primitiveUnits="userSpaceOnUse"><feComponentTransfer color-interpolation-filters="sRGB"><feFuncR type="discrete" tableValues="0.560784 0.560784"/><feFuncG type="discrete" tableValues="0.666667 0.666667"/><feFuncB type="discrete" tableValues="0.862745 0.862745"/><feFuncA type="linear" slope="0.4" intercept="0"/></feComponentTransfer><feGaussianBlur stdDeviation="6.11111 6.11111"/></filter><filter id="fx5" x="-10%" y="-10%" width="120%" height="120%" filterUnits="userSpaceOnUse" primitiveUnits="userSpaceOnUse"><feComponentTransfer color-interpolation-filters="sRGB"><feFuncR type="discrete" tableValues="0.560784 0.560784"/><feFuncG type="discrete" tableValues="0.666667 0.666667"/><feFuncB type="discrete" tableValues="0.862745 0.862745"/><feFuncA type="linear" slope="0.4" intercept="0"/></feComponentTransfer><feGaussianBlur stdDeviation="6.11111 6.11111"/></filter><clipPath id="clip6"><rect x="687" y="278" width="2472" height="1477"/></clipPath><clipPath id="clip7"><rect x="-3" y="-3" width="303" height="692"/></clipPath><clipPath id="clip8"><rect x="0" y="0" width="297" height="685"/></clipPath><clipPath id="clip9"><rect x="-3" y="-3" width="303" height="692"/></clipPath><clipPath id="clip10"><rect x="0" y="0" width="297" height="685"/></clipPath><clipPath id="clip11"><rect x="-3" y="-3" width="303" height="692"/></clipPath><clipPath id="clip12"><rect x="0" y="0" width="298" height="685"/></clipPath><clipPath id="clip13"><rect x="-3" y="-3" width="303" height="692"/></clipPath><clipPath id="clip14"><rect x="0" y="0" width="297" height="684"/></clipPath><clipPath id="clip15"><rect x="-3" y="-3" width="303" height="692"/></clipPath><clipPath id="clip16"><rect x="0" y="0" width="298" height="684"/></clipPath><clipPath id="clip17"><rect x="-3" y="-3" width="303" height="692"/></clipPath><clipPath id="clip18"><rect x="0" y="0" width="297" height="685"/></clipPath></defs><g clip-path="url(#clip6)" transform="translate(-687 -278)"><g clip-path="url(#clip7)" filter="url(#fx0)" transform="translate(686 616)"><g clip-path="url(#clip8)"><path d="M22.4999 182.333C22.4999 93.6916 78.912 21.8333 148.5 21.8333 218.088 21.8333 274.5 93.6916 274.5 182.333 274.5 270.975 218.088 342.833 148.5 342.833 78.912 342.833 22.4999 270.975 22.4999 182.333Z" stroke="#8FAADC" stroke-width="5" stroke-miterlimit="8" stroke-opacity="0" fill="#B4C7E7" fill-rule="evenodd"/><path d="M22.4999 502.833C22.4999 414.468 78.912 342.833 148.5 342.833 218.088 342.833 274.5 414.468 274.5 502.833 274.5 591.199 218.088 662.833 148.5 662.833 78.912 662.833 22.4999 591.199 22.4999 502.833Z" stroke="#8FAADC" stroke-width="5" stroke-miterlimit="8" stroke-opacity="0" fill="#B4C7E7" fill-rule="evenodd"/></g></g><path d="M708.5 780C708.5 691.358 764.912 619.5 834.5 619.5 904.088 619.5 960.5 691.358 960.5 780 960.5 868.642 904.088 940.5 834.5 940.5 764.912 940.5 708.5 868.642 708.5 780Z" stroke="#8FAADC" stroke-width="4.58333" stroke-miterlimit="8" stroke-opacity="0" fill="#B4C7E7" fill-rule="evenodd"/><path d="M708.5 1100.5C708.5 1012.13 764.912 940.5 834.5 940.5 904.088 940.5 960.5 1012.13 960.5 1100.5 960.5 1188.87 904.088 1260.5 834.5 1260.5 764.912 1260.5 708.5 1188.87 708.5 1100.5Z" stroke="#8FAADC" stroke-width="4.58333" stroke-miterlimit="8" stroke-opacity="0" fill="#B4C7E7" fill-rule="evenodd"/><g clip-path="url(#clip9)" filter="url(#fx1)" transform="translate(1215 277)"><g clip-path="url(#clip10)"><path d="M22.5 182.333C22.5 93.6917 78.9121 21.8333 148.5 21.8333 218.088 21.8333 274.5 93.6917 274.5 182.333 274.5 270.975 218.088 342.833 148.5 342.833 78.9121 342.833 22.5 270.975 22.5 182.333Z" stroke="#8FAADC" stroke-width="5" stroke-miterlimit="8" stroke-opacity="0" fill="#B4C7E7" fill-rule="evenodd"/><path d="M22.5 502.833C22.5 414.468 78.9121 342.833 148.5 342.833 218.088 342.833 274.5 414.468 274.5 502.833 274.5 591.199 218.088 662.833 148.5 662.833 78.9121 662.833 22.5 591.199 22.5 502.833Z" stroke="#8FAADC" stroke-width="5" stroke-miterlimit="8" stroke-opacity="0" fill="#B4C7E7" fill-rule="evenodd"/></g></g><path d="M1237.5 441C1237.5 352.358 1293.91 280.5 1363.5 280.5 1433.09 280.5 1489.5 352.358 1489.5 441 1489.5 529.642 1433.09 601.5 1363.5 601.5 1293.91 601.5 1237.5 529.642 1237.5 441Z" stroke="#8FAADC" stroke-width="4.58333" stroke-miterlimit="8" stroke-opacity="0" fill="#B4C7E7" fill-rule="evenodd"/><path d="M1237.5 761.5C1237.5 673.135 1293.91 601.5 1363.5 601.5 1433.09 601.5 1489.5 673.135 1489.5 761.5 1489.5 849.866 1433.09 921.5 1363.5 921.5 1293.91 921.5 1237.5 849.866 1237.5 761.5Z" stroke="#8FAADC" stroke-width="4.58333" stroke-miterlimit="8" stroke-opacity="0" fill="#B4C7E7" fill-rule="evenodd"/><path d="M1618.03 1021.49C1618.98 1021.49 1619.74 1021.76 1620.32 1022.27 1620.9 1022.79 1621.2 1023.52 1621.22 1024.46 1621.24 1024.6 1621.14 1025.14 1620.93 1026.07 1620.72 1027 1620.29 1028.76 1619.64 1031.35 1618.99 1033.94 1618.01 1037.8 1616.71 1042.94L1626.39 1042.94C1627.38 1042.91 1628.14 1042.96 1628.67 1043.09 1629.2 1043.21 1629.46 1043.56 1629.47 1044.14 1629.47 1045.19 1629.19 1045.83 1628.64 1046.06 1628.09 1046.29 1627.27 1046.38 1626.17 1046.33L1615.83 1046.33 1607.69 1078.79C1607.47 1079.67 1607.3 1080.45 1607.19 1081.15 1607.08 1081.84 1607.03 1082.82 1607.03 1084.08 1607.03 1085.88 1607.31 1087.17 1607.87 1087.97 1608.43 1088.76 1609.29 1089.15 1610.44 1089.14 1612.38 1089.27 1614.63 1088.35 1617.22 1086.39 1619.8 1084.42 1622.31 1080.65 1624.74 1075.05 1624.99 1074.46 1625.21 1074.05 1625.4 1073.83 1625.59 1073.61 1625.92 1073.5 1626.39 1073.51 1626.64 1073.49 1626.91 1073.54 1627.21 1073.65 1627.52 1073.76 1627.68 1074.09 1627.71 1074.61 1627.71 1074.91 1627.32 1075.92 1626.55 1077.63 1625.79 1079.34 1624.66 1081.27 1623.17 1083.41 1621.68 1085.55 1619.85 1087.42 1617.68 1089.02 1615.52 1090.62 1613.03 1091.46 1610.22 1091.54 1607.2 1091.49 1604.77 1090.55 1602.94 1088.72 1601.1 1086.88 1600.16 1084.46 1600.11 1081.43 1600.07 1080.96 1600.2 1079.94 1600.52 1078.4 1600.83 1076.85 1601.59 1073.68 1602.78 1068.88 1603.97 1064.08 1605.87 1056.57 1608.46 1046.33L1598.79 1046.33C1597.7 1046.36 1596.91 1046.31 1596.43 1046.17 1595.94 1046.03 1595.7 1045.65 1595.71 1045.02 1595.71 1044.02 1595.99 1043.41 1596.54 1043.2 1597.09 1042.98 1597.91 1042.89 1599.01 1042.94L1609.34 1042.94 1613.63 1025.45C1614.22 1023.6 1615.04 1022.46 1616.08 1022.02 1617.11 1021.59 1617.76 1021.41 1618.03 1021.49Z" fill-rule="evenodd"/><text fill="#000000" fill-opacity="0" font-family="Arial,Arial_MSFontService,sans-serif" font-size="70.0731" x="1595.71" y="1082.78">𝑡</text><path d="M1668.12 1008.06C1668.41 1008.07 1668.66 1008.19 1668.88 1008.4 1669.09 1008.62 1669.21 1008.87 1669.22 1009.16 1669.22 1009.33 1669.17 1009.49 1669.08 1009.64 1669 1009.8 1668.89 1009.93 1668.78 1010.04 1664.94 1013.01 1661.6 1017.14 1658.76 1022.43 1655.92 1027.73 1653.71 1033.52 1652.14 1039.81 1650.57 1046.11 1649.77 1052.24 1649.75 1058.22L1649.75 1067.46C1649.77 1073.44 1650.57 1079.57 1652.14 1085.87 1653.71 1092.16 1655.92 1097.95 1658.76 1103.25 1661.6 1108.54 1664.94 1112.67 1668.78 1115.64 1668.89 1115.75 1669 1115.89 1669.08 1116.04 1669.17 1116.19 1669.22 1116.35 1669.22 1116.52 1669.21 1116.81 1669.09 1117.06 1668.88 1117.28 1668.66 1117.49 1668.41 1117.61 1668.12 1117.62 1667.9 1117.6 1667.68 1117.53 1667.46 1117.4 1663.36 1114.26 1659.52 1109.98 1655.95 1104.58 1652.38 1099.17 1649.49 1093.22 1647.26 1086.74 1645.04 1080.26 1643.89 1073.83 1643.82 1067.46L1643.82 1058.22C1643.89 1051.85 1645.04 1045.43 1647.26 1038.94 1649.49 1032.46 1652.38 1026.51 1655.95 1021.11 1659.52 1015.7 1663.36 1011.42 1667.46 1008.28 1667.68 1008.15 1667.9 1008.08 1668.12 1008.06Z" fill-rule="evenodd"/><text fill="#000000" fill-opacity="0" font-family="Arial,Arial_MSFontService,sans-serif" font-size="109.56" x="1643.82" y="1103.93">(</text><path d="M1692.94 1040.63C1695.05 1040.59 1697.36 1041.05 1699.87 1042.03 1702.39 1043 1704.37 1044.73 1705.82 1047.21 1707.49 1045.4 1709.57 1043.86 1712.06 1042.6 1714.56 1041.34 1717.35 1040.68 1720.45 1040.63 1723.88 1040.71 1726.53 1041.67 1728.39 1043.51 1730.25 1045.35 1731.2 1047.57 1731.22 1050.18 1731.12 1053 1730.27 1055.15 1728.66 1056.63 1727.06 1058.11 1725.27 1058.86 1723.31 1058.87 1721.49 1058.81 1720.12 1058.27 1719.2 1057.25 1718.28 1056.23 1717.81 1055.08 1717.81 1053.81 1717.71 1053.09 1718.08 1051.82 1718.9 1050 1719.72 1048.19 1721.59 1046.89 1724.52 1046.11 1724.36 1045.9 1723.95 1045.61 1723.28 1045.22 1722.61 1044.83 1721.59 1044.62 1720.23 1044.57 1717.48 1044.64 1715.09 1045.3 1713.07 1046.57 1711.04 1047.83 1709.4 1049.29 1708.13 1050.95 1707.45 1051.72 1707.02 1052.31 1706.82 1052.71 1706.63 1053.12 1706.44 1053.71 1706.26 1054.47L1698.55 1085.38C1697.86 1087.6 1696.77 1089.13 1695.29 1089.99 1693.82 1090.84 1692.48 1091.25 1691.29 1091.21 1689.58 1091.16 1688.29 1090.64 1687.43 1089.66 1686.56 1088.68 1686.12 1087.59 1686.12 1086.37 1686.16 1085.86 1686.41 1084.69 1686.86 1082.87 1687.32 1081.05 1687.73 1079.35 1688.1 1077.79L1690.3 1068.77 1693.38 1056.89C1693.98 1054.41 1694.38 1052.61 1694.61 1051.52 1694.83 1050.42 1694.93 1049.42 1694.92 1048.53 1694.92 1047.12 1694.7 1046.1 1694.28 1045.48 1693.85 1044.86 1693.22 1044.56 1692.39 1044.57 1690.91 1044.51 1689.55 1045.3 1688.32 1046.94 1687.09 1048.58 1685.95 1051.46 1684.91 1055.57 1684.6 1056.9 1684.4 1057.74 1684.3 1058.12 1684.21 1058.49 1684.12 1058.71 1684.03 1058.76 1683.77 1059.03 1683.49 1059.19 1683.18 1059.24 1682.87 1059.3 1682.42 1059.32 1681.84 1059.31 1681.29 1059.35 1680.73 1059.28 1680.15 1059.12 1679.57 1058.96 1679.25 1058.51 1679.2 1057.77 1679.21 1057.3 1679.58 1055.94 1680.3 1053.69 1681.02 1051.44 1682.05 1049.17 1683.37 1046.88 1684.57 1044.89 1685.96 1043.36 1687.54 1042.27 1689.11 1041.19 1690.91 1040.64 1692.94 1040.63Z" fill-rule="evenodd"/><text fill="#000000" fill-opacity="0" font-family="Arial,Arial_MSFontService,sans-serif" font-size="50.5914" x="1679.2" y="1084.89">𝒓</text><path d="M1741.49 1008.06C1741.71 1008.08 1741.93 1008.15 1742.15 1008.28 1746.25 1011.42 1750.09 1015.7 1753.66 1021.11 1757.22 1026.51 1760.12 1032.46 1762.35 1038.94 1764.57 1045.43 1765.72 1051.85 1765.79 1058.22L1765.79 1067.46C1765.72 1073.83 1764.57 1080.26 1762.35 1086.74 1760.12 1093.22 1757.22 1099.17 1753.66 1104.58 1750.09 1109.98 1746.25 1114.26 1742.15 1117.4 1741.93 1117.53 1741.71 1117.6 1741.49 1117.62 1741.2 1117.61 1740.95 1117.49 1740.73 1117.28 1740.52 1117.06 1740.4 1116.81 1740.39 1116.52 1740.39 1116.35 1740.44 1116.19 1740.53 1116.04 1740.61 1115.89 1740.72 1115.75 1740.83 1115.64 1744.67 1112.67 1748.01 1108.54 1750.85 1103.25 1753.69 1097.95 1755.9 1092.16 1757.47 1085.87 1759.04 1079.57 1759.84 1073.44 1759.86 1067.46L1759.86 1058.22C1759.84 1052.24 1759.04 1046.11 1757.47 1039.81 1755.9 1033.52 1753.69 1027.73 1750.85 1022.43 1748.01 1017.14 1744.67 1013.01 1740.83 1010.04 1740.72 1009.93 1740.61 1009.8 1740.53 1009.64 1740.44 1009.49 1740.39 1009.33 1740.39 1009.16 1740.4 1008.87 1740.52 1008.62 1740.73 1008.4 1740.95 1008.19 1741.2 1008.07 1741.49 1008.06Z" fill-rule="evenodd"/><text fill="#000000" fill-opacity="0" font-family="Arial,Arial_MSFontService,sans-serif" font-size="109.56" x="1740.39" y="1103.93">)</text><path d="M2.29167-2.22394e-06 2.29201 353.549-2.29132 353.549-2.29167 2.22394e-06ZM0.000343101 353.549 13.7503 344.382 0.000360892 371.882-13.7497 344.382Z" transform="matrix(1 0 0 -1 2928.5 1180.38)"/><path d="M3056.47 958.192C3055.13 958.169 3053.62 958.443 3051.94 959.012 3050.25 959.581 3048.66 960.581 3047.16 962.013 3046.44 962.617 3045.63 963.631 3044.75 965.055 3043.86 966.479 3043.04 968.677 3042.27 971.648 3045.06 971.7 3048.03 971.596 3051.18 971.337 3054.34 971.078 3057.05 970.353 3059.31 969.162 3061.57 967.971 3062.75 966.003 3062.86 963.259 3062.78 961.412 3062.09 960.1 3060.78 959.323 3059.48 958.546 3058.04 958.169 3056.47 958.192ZM3056.47 955.214C3059.92 955.245 3062.66 955.969 3064.7 957.388 3066.74 958.807 3067.78 960.736 3067.83 963.175 3067.93 964.596 3067.44 966.261 3066.37 968.169 3065.3 970.077 3063.05 971.678 3059.62 972.971 3057.84 973.547 3055.69 973.967 3053.17 974.233 3050.66 974.498 3047.99 974.629 3045.17 974.626L3041.52 974.626C3041.07 976.339 3040.74 977.854 3040.55 979.173 3040.36 980.491 3040.27 981.55 3040.27 982.35 3040.24 984.757 3040.85 986.691 3042.1 988.153 3043.35 989.615 3045.46 990.366 3048.41 990.406 3051.69 990.429 3054.85 989.927 3057.88 988.901 3060.91 987.875 3063.56 986.189 3065.84 983.845 3066.11 983.516 3066.33 983.281 3066.49 983.139 3066.65 982.997 3066.85 982.928 3067.08 982.931 3067.5 982.98 3067.93 983.256 3068.4 983.762 3068.86 984.267 3069.12 984.71 3069.16 985.091 3069.12 985.67 3068.37 986.608 3066.9 987.904 3065.43 989.199 3063.47 990.364 3061.03 991.399 3058.45 992.314 3055.95 992.882 3053.54 993.104 3051.12 993.327 3049.33 993.42 3048.16 993.384 3042.65 993.358 3038.39 992.063 3035.38 989.497 3032.38 986.931 3030.86 983.247 3030.82 978.446 3030.86 974.11 3031.96 970.197 3034.13 966.707 3036.3 963.216 3039.3 960.44 3043.14 958.379 3046.97 956.318 3051.42 955.263 3056.47 955.214Z" fill-rule="evenodd"/><text fill="#000000" fill-opacity="0" font-family="Arial,Arial_MSFontService,sans-serif" font-size="38.1772" x="3030.82" y="988.619">𝒆</text><path d="M3088.53 978.746C3089.18 978.722 3089.87 978.872 3090.58 979.196 3091.3 979.519 3092.14 980.162 3093.11 981.124 3093.97 981.933 3094.65 982.433 3095.16 982.625 3095.67 982.817 3096.09 982.897 3096.42 982.864 3097.1 982.884 3097.79 982.627 3098.47 982.096 3099.16 981.564 3099.95 980.641 3100.83 979.325 3100.96 979.099 3101.1 978.944 3101.23 978.862 3101.37 978.78 3101.56 978.741 3101.81 978.746 3101.95 978.732 3102.15 978.761 3102.39 978.833 3102.63 978.906 3102.77 979.108 3102.8 979.441 3102.78 979.825 3102.26 980.665 3101.25 981.961 3100.24 983.257 3098.85 984.794 3097.06 986.571 3096.46 987.139 3095.68 987.833 3094.7 988.653 3093.73 989.473 3092.78 990.257 3091.86 991.006 3090.93 991.755 3090.25 992.308 3089.81 992.663 3087.43 994.569 3085.76 995.966 3084.78 996.856 3083.81 997.745 3082.99 998.534 3082.32 999.22 3082.53 999.192 3082.8 999.176 3083.12 999.169 3083.44 999.164 3083.62 999.161 3083.66 999.162 3084.12 999.15 3084.61 999.174 3085.14 999.235 3085.66 999.295 3086.56 999.464 3087.83 999.742 3088.56 999.921 3089.28 1000.07 3090 1000.19 3090.71 1000.31 3091.4 1000.38 3092.07 1000.38 3093.55 1000.38 3095 1000.03 3096.41 999.322 3097.82 998.614 3098.83 997.536 3099.44 996.088 3099.54 995.771 3099.66 995.536 3099.79 995.385 3099.92 995.234 3100.15 995.159 3100.48 995.16 3100.67 995.148 3100.88 995.187 3101.1 995.276 3101.32 995.366 3101.44 995.578 3101.46 995.914 3101.45 996.646 3101.04 997.714 3100.23 999.12 3099.41 1000.52 3098.25 1001.82 3096.75 1003.01 3095.24 1004.19 3093.45 1004.82 3091.37 1004.9 3090.47 1004.9 3089.66 1004.68 3088.94 1004.25 3088.23 1003.81 3087.43 1003.16 3086.56 1002.29 3085.79 1001.59 3085.15 1001.16 3084.67 1000.99 3084.18 1000.82 3083.76 1000.75 3083.42 1000.78 3082.44 1000.79 3081.5 1001.1 3080.61 1001.72 3079.72 1002.34 3078.88 1003.21 3078.1 1004.32 3077.96 1004.54 3077.84 1004.7 3077.71 1004.78 3077.59 1004.86 3077.39 1004.9 3077.11 1004.9 3076.97 1004.91 3076.77 1004.88 3076.53 1004.81 3076.29 1004.74 3076.15 1004.54 3076.12 1004.2 3076.12 1003.92 3076.55 1003.2 3077.4 1002.04 3078.25 1000.89 3079.55 999.446 3081.28 997.711 3081.78 997.169 3082.55 996.439 3083.59 995.521 3084.64 994.602 3086.26 993.262 3088.47 991.502 3090.28 990.056 3091.68 988.912 3092.68 988.07 3093.68 987.228 3094.45 986.544 3095 986.018 3095.55 985.492 3096.07 984.979 3096.54 984.481 3095.89 984.496 3095.27 984.467 3094.67 984.394 3094.07 984.322 3093.01 984.119 3091.49 983.785 3091.07 983.687 3090.52 983.578 3089.86 983.459 3089.19 983.339 3088.52 983.274 3087.83 983.263 3087.5 983.252 3086.99 983.287 3086.31 983.368 3085.63 983.45 3084.95 983.644 3084.28 983.95 3083.6 984.257 3083.11 984.743 3082.79 985.409 3082.69 985.722 3082.57 985.937 3082.44 986.054 3082.31 986.172 3082.08 986.227 3081.75 986.221 3081.53 986.225 3081.31 986.174 3081.1 986.069 3080.89 985.964 3080.78 985.782 3080.76 985.525 3080.77 984.894 3081.1 984.05 3081.75 982.994 3082.39 981.939 3083.29 980.979 3084.45 980.117 3085.61 979.255 3086.97 978.798 3088.53 978.746Z" fill-rule="evenodd"/><text fill="#000000" fill-opacity="0" font-family="Arial,Arial_MSFontService,sans-serif" font-size="26.158" x="3076.12" y="1001.63">𝑧</text><g clip-path="url(#clip11)" filter="url(#fx2)" transform="translate(1896 277)"><g clip-path="url(#clip12)"><path d="M22.5 182.333C22.5 93.6917 79.136 21.8333 149 21.8333 218.864 21.8333 275.5 93.6917 275.5 182.333 275.5 270.975 218.864 342.833 149 342.833 79.136 342.833 22.5 270.975 22.5 182.333Z" stroke="#8FAADC" stroke-width="5" stroke-miterlimit="8" stroke-opacity="0" fill="#B4C7E7" fill-rule="evenodd"/><path d="M22.5 502.833C22.5 414.468 79.136 342.833 149 342.833 218.864 342.833 275.5 414.468 275.5 502.833 275.5 591.199 218.864 662.833 149 662.833 79.136 662.833 22.5 591.199 22.5 502.833Z" stroke="#8FAADC" stroke-width="5" stroke-miterlimit="8" stroke-opacity="0" fill="#B4C7E7" fill-rule="evenodd"/></g></g><path d="M1918.5 441C1918.5 352.358 1975.14 280.5 2045 280.5 2114.86 280.5 2171.5 352.358 2171.5 441 2171.5 529.642 2114.86 601.5 2045 601.5 1975.14 601.5 1918.5 529.642 1918.5 441Z" stroke="#8FAADC" stroke-width="4.58333" stroke-miterlimit="8" stroke-opacity="0" fill="#B4C7E7" fill-rule="evenodd"/><path d="M1918.5 761.5C1918.5 673.135 1975.14 601.5 2045 601.5 2114.86 601.5 2171.5 673.135 2171.5 761.5 2171.5 849.866 2114.86 921.5 2045 921.5 1975.14 921.5 1918.5 849.866 1918.5 761.5Z" stroke="#8FAADC" stroke-width="4.58333" stroke-miterlimit="8" stroke-opacity="0" fill="#B4C7E7" fill-rule="evenodd"/><g clip-path="url(#clip13)" filter="url(#fx3)" transform="translate(1213 1068)"><g clip-path="url(#clip14)"><path d="M22.4999 181.833C22.4999 93.4677 78.912 21.8333 148.5 21.8333 218.088 21.8333 274.5 93.4677 274.5 181.833 274.5 270.199 218.088 341.833 148.5 341.833 78.912 341.833 22.4999 270.199 22.4999 181.833Z" stroke="#8FAADC" stroke-width="5" stroke-miterlimit="8" stroke-opacity="0" fill="#B4C7E7" fill-rule="evenodd"/><path d="M22.4999 501.833C22.4999 413.468 78.912 341.833 148.5 341.833 218.088 341.833 274.5 413.468 274.5 501.833 274.5 590.199 218.088 661.833 148.5 661.833 78.912 661.833 22.4999 590.199 22.4999 501.833Z" stroke="#8FAADC" stroke-width="5" stroke-miterlimit="8" stroke-opacity="0" fill="#B4C7E7" fill-rule="evenodd"/></g></g><path d="M1235.5 1231.5C1235.5 1143.13 1291.91 1071.5 1361.5 1071.5 1431.09 1071.5 1487.5 1143.13 1487.5 1231.5 1487.5 1319.87 1431.09 1391.5 1361.5 1391.5 1291.91 1391.5 1235.5 1319.87 1235.5 1231.5Z" stroke="#8FAADC" stroke-width="4.58333" stroke-miterlimit="8" stroke-opacity="0" fill="#B4C7E7" fill-rule="evenodd"/><path d="M1235.5 1551.5C1235.5 1463.13 1291.91 1391.5 1361.5 1391.5 1431.09 1391.5 1487.5 1463.13 1487.5 1551.5 1487.5 1639.87 1431.09 1711.5 1361.5 1711.5 1291.91 1711.5 1235.5 1639.87 1235.5 1551.5Z" stroke="#8FAADC" stroke-width="4.58333" stroke-miterlimit="8" stroke-opacity="0" fill="#B4C7E7" fill-rule="evenodd"/><g clip-path="url(#clip15)" filter="url(#fx4)" transform="translate(1896 1072)"><g clip-path="url(#clip16)"><path d="M22.5 181.833C22.5 93.4678 79.136 21.8334 149 21.8334 218.864 21.8334 275.5 93.4678 275.5 181.833 275.5 270.199 218.864 341.833 149 341.833 79.136 341.833 22.5 270.199 22.5 181.833Z" stroke="#8FAADC" stroke-width="5" stroke-miterlimit="8" stroke-opacity="0" fill="#B4C7E7" fill-rule="evenodd"/><path d="M22.5 501.833C22.5 413.468 79.136 341.833 149 341.833 218.864 341.833 275.5 413.468 275.5 501.833 275.5 590.199 218.864 661.833 149 661.833 79.136 661.833 22.5 590.199 22.5 501.833Z" stroke="#8FAADC" stroke-width="5" stroke-miterlimit="8" stroke-opacity="0" fill="#B4C7E7" fill-rule="evenodd"/></g></g><path d="M1918.5 1235.5C1918.5 1147.13 1975.14 1075.5 2045 1075.5 2114.86 1075.5 2171.5 1147.13 2171.5 1235.5 2171.5 1323.87 2114.86 1395.5 2045 1395.5 1975.14 1395.5 1918.5 1323.87 1918.5 1235.5Z" stroke="#8FAADC" stroke-width="4.58333" stroke-miterlimit="8" stroke-opacity="0" fill="#B4C7E7" fill-rule="evenodd"/><path d="M1918.5 1555.5C1918.5 1467.13 1975.14 1395.5 2045 1395.5 2114.86 1395.5 2171.5 1467.13 2171.5 1555.5 2171.5 1643.87 2114.86 1715.5 2045 1715.5 1975.14 1715.5 1918.5 1643.87 1918.5 1555.5Z" stroke="#8FAADC" stroke-width="4.58333" stroke-miterlimit="8" stroke-opacity="0" fill="#B4C7E7" fill-rule="evenodd"/><g clip-path="url(#clip17)" filter="url(#fx5)" transform="translate(2452 616)"><g clip-path="url(#clip18)"><path d="M22.5002 182.333C22.5002 93.6916 78.9124 21.8333 148.5 21.8333 218.088 21.8333 274.5 93.6916 274.5 182.333 274.5 270.975 218.088 342.833 148.5 342.833 78.9124 342.833 22.5002 270.975 22.5002 182.333Z" stroke="#8FAADC" stroke-width="5" stroke-miterlimit="8" stroke-opacity="0" fill="#B4C7E7" fill-rule="evenodd"/><path d="M22.5002 502.833C22.5002 414.468 78.9124 342.833 148.5 342.833 218.088 342.833 274.5 414.468 274.5 502.833 274.5 591.199 218.088 662.833 148.5 662.833 78.9124 662.833 22.5002 591.199 22.5002 502.833Z" stroke="#8FAADC" stroke-width="5" stroke-miterlimit="8" stroke-opacity="0" fill="#B4C7E7" fill-rule="evenodd"/></g></g><path d="M2474.5 780C2474.5 691.358 2530.91 619.5 2600.5 619.5 2670.09 619.5 2726.5 691.358 2726.5 780 2726.5 868.642 2670.09 940.5 2600.5 940.5 2530.91 940.5 2474.5 868.642 2474.5 780Z" stroke="#8FAADC" stroke-width="4.58333" stroke-miterlimit="8" stroke-opacity="0" fill="#B4C7E7" fill-rule="evenodd"/><path d="M2474.5 1100.5C2474.5 1012.13 2530.91 940.5 2600.5 940.5 2670.09 940.5 2726.5 1012.13 2726.5 1100.5 2726.5 1188.87 2670.09 1260.5 2600.5 1260.5 2530.91 1260.5 2474.5 1188.87 2474.5 1100.5Z" stroke="#8FAADC" stroke-width="4.58333" stroke-miterlimit="8" stroke-opacity="0" fill="#B4C7E7" fill-rule="evenodd"/><path d="M0 0 528.914 338.993" stroke="#7F7F7F" stroke-width="9.16667" stroke-miterlimit="8" fill="none" fill-rule="evenodd" transform="matrix(1 0 0 -1 834.5 940.493)"/><path d="M1363.5 601.5 2045.1 601.5" stroke="#7F7F7F" stroke-width="9.16667" stroke-miterlimit="8" fill="none" fill-rule="evenodd"/><path d="M2045.5 601.5 2601 940.493" stroke="#7F7F7F" stroke-width="9.16667" stroke-miterlimit="8" fill="none" fill-rule="evenodd"/><path d="M834.5 940.5 1361.81 1391.74" stroke="#7F7F7F" stroke-width="9.16667" stroke-miterlimit="8" fill="none" fill-rule="evenodd"/><path d="M1361.5 1391.5 2044.71 1395.75" stroke="#7F7F7F" stroke-width="9.16667" stroke-miterlimit="8" fill="none" fill-rule="evenodd"/><path d="M0 0 555.505 455.496" stroke="#7F7F7F" stroke-width="9.16667" stroke-miterlimit="8" fill="none" fill-rule="evenodd" transform="matrix(-1 0 0 1 2601 940.5)"/><path d="M0.384604 4.56717-5.5529 5.06717-4.85901 4.95464-7.97708 5.70954-10.1341-3.19974-6.67337-4.03759-0.384604-4.56717ZM-15.9307 8.55701-16.0719 8.61496-15.5614 8.36745-21.4364 11.68-21.0084 11.4063-22.8499 12.7329-28.2081 5.29538-26.1602 3.82001-19.816 0.24297-19.412 0.0770992ZM-29.75 18.1358-32.3236 20.3496-32.0195 20.0629-36.0342 24.21-42.6202 17.8341-38.46 13.5368-35.7279 11.1866ZM-41.8825 30.8708-43.1312 32.3415-42.9658 32.1349-47.3239 37.9131-54.6423 32.3932-50.2045 26.5094-48.8702 24.9379ZM-52.3492 45.2553-53.7489 47.3549-53.6372 47.1788-57.0671 52.8682-64.9176 48.1357-61.4339 42.3569-59.9763 40.1706ZM-61.5174 60.6702-64.046 65.2703-63.9681 65.1224-65.7288 68.6219-73.9175 64.5021-72.1193 60.928-69.5505 56.2546ZM-69.7182 76.6904-73.5409 85.022-81.8724 81.1993-78.0497 72.8677ZM-77.0696 93.3295-78.5276 96.7828-78.4775 96.659-80.4387 101.71-88.9838 98.3918-86.9984 93.2787-85.5144 89.7639ZM-83.6622 110.156-86.7453 118.789-95.3779 115.706-92.2948 107.073ZM-89.6126 127.371-91.5205 133.18-91.485 133.067-92.362 135.991-101.142 133.357-100.248 130.376-98.3216 124.511ZM-94.9961 144.771-95.4225 146.192-95.3949 146.096-97.4424 153.501-106.278 151.058-104.217 143.606-103.776 142.137ZM-99.7898 162.244-102.013 171.137-110.906 168.914-108.683 160.021ZM-104.079 179.97-105.844 187.707-105.814 187.564-106.049 188.773-115.047 187.019-114.797 185.739-113.017 177.932ZM-107.803 197.77-109.557 206.768-118.554 205.014-116.8 196.016ZM-111.311 215.765-111.564 217.064-111.532 216.884-112.724 224.635-121.784 223.243-120.579 215.401-120.308 214.011ZM-114.116 233.696-115.509 242.756-124.569 241.364-123.176 232.303ZM-116.676 251.639-117.662 260.753-126.775 259.766-125.789 250.653ZM-118.648 269.866-119.568 278.368-119.552 278.181-119.593 278.795-128.739 278.183-128.692 277.475-127.762 268.88ZM-120.205 287.941-120.817 297.087-129.963 296.475-129.351 287.329ZM-121.429 306.233-121.677 309.931-121.668 309.732-121.796 315.192-130.96 314.977-130.83 309.418-130.576 305.621ZM-122.011 324.356-122.225 333.52-131.39 333.305-131.175 324.141ZM-122.406 342.523-122.298 351.689-131.464 351.797-131.572 342.631ZM-122.117 360.746-121.795 369.907-130.956 370.229-131.278 361.068ZM-121.292 378.904-120.662 388.049-129.807 388.679-130.437 379.534ZM-120.032 397.194-119.49 405.06-119.509 404.855-119.363 406.129-128.471 407.169-128.628 405.793-129.177 397.824ZM-118.323 415.236-117.283 424.344-126.39 425.384-127.43 416.277ZM-116.242 433.451-115.946 436.042-115.971 435.857-114.962 442.338-124.019 443.748-125.043 437.175-125.35 434.492ZM-113.551 451.395-112.141 460.453-121.198 461.863-122.609 452.806ZM-110.623 469.276-108.796 478.259-117.778 480.086-119.605 471.103ZM-106.969 487.241-105.259 495.649-105.29 495.506-105.155 496.077-114.075 498.19-114.227 497.548-115.951 489.068ZM-103.042 504.997-101.915 509.756-101.939 509.659-100.863 513.797-109.734 516.105-110.823 511.918-111.962 507.11ZM-98.5555 522.669-98.3142 523.596-98.3415 523.496-96.0961 531.391-104.913 533.899-107.173 525.954-107.427 524.976ZM-93.5476 540.086-90.8372 548.843-99.5939 551.553-102.304 542.796ZM-87.9705 557.424-86.1583 562.781-86.1978 562.67-84.9872 565.965-93.5917 569.126-94.8227 565.775-96.6539 560.361ZM-81.8264 574.57-81.6978 574.92-81.7508 574.782-78.455 582.935-86.9535 586.37-90.2769 578.15-90.4309 577.73ZM-74.9364 591.265-72.1733 597.607-72.2329 597.475-71.2698 599.509-79.5541 603.433-80.548 601.334-83.3399 594.927ZM-67.3457 607.793-67.1704 608.163-67.2387 608.025-63.226 615.808-71.3736 620.009-75.4216 612.157-75.6299 611.717ZM-58.8746 623.657-56.7673 627.357-56.8618 627.198-54.2628 631.363-62.0393 636.216-64.687 631.973-66.84 628.193ZM-49.3812 638.839-45.8661 643.878-45.9956 643.701-44.1493 646.095-51.4082 651.693-53.3213 649.212-56.8991 644.084ZM-38.5951 653.015-34.6797 657.477-34.9013 657.242-32.6054 659.514-39.0528 666.03-41.4636 663.644-45.4857 659.06ZM-26.1421 665.474-23.2977 667.869-24.15 667.301-19.3075 669.797-23.5074 677.945-28.8081 675.213-32.0467 672.486ZM-17.4272 661.409 4.25348 683.209-26.1953 687.473Z" fill="#7F7F7F" transform="matrix(1.83697e-16 1 1 -1.83697e-16 1361.5 1071.5)"/><path d="M2025.64 1222.72C2024.84 1222.69 2023.81 1222.91 2022.53 1223.4 2021.26 1223.88 2019.81 1224.82 2018.18 1226.22 2017.3 1226.93 2016.38 1227.87 2015.41 1229.02 2014.45 1230.18 2013.78 1231.39 2013.4 1232.66L2008.89 1250.69C2008.76 1251.24 2008.68 1251.62 2008.65 1251.85 2008.62 1252.07 2008.61 1252.18 2008.61 1252.17 2008.59 1252.44 2008.77 1253.23 2009.15 1254.54 2009.53 1255.84 2010.24 1257.11 2011.3 1258.36 2012.35 1259.6 2013.88 1260.27 2015.88 1260.36 2017.63 1260.37 2019.49 1259.59 2021.46 1258.03 2023.43 1256.48 2025.22 1254.09 2026.84 1250.88 2027.41 1249.64 2028.07 1247.84 2028.79 1245.47 2029.51 1243.11 2030.14 1240.64 2030.68 1238.06 2031.22 1235.49 2031.5 1233.25 2031.53 1231.37 2031.51 1228.63 2030.99 1226.51 2029.96 1225.01 2028.94 1223.5 2027.49 1222.74 2025.64 1222.72ZM2005.58 1220.71C2007.35 1220.68 2009.04 1221.21 2010.65 1222.29 2012.25 1223.37 2013.32 1225.13 2013.86 1227.6 2015.4 1225.74 2017.22 1224.14 2019.3 1222.8 2021.38 1221.47 2023.59 1220.77 2025.91 1220.71 2029.48 1220.78 2032.39 1222.15 2034.65 1224.82 2036.9 1227.49 2038.07 1231.02 2038.14 1235.42 2038.07 1240.01 2036.94 1244.34 2034.77 1248.42 2032.59 1252.49 2029.83 1255.82 2026.47 1258.39 2023.11 1260.96 2019.61 1262.29 2015.98 1262.37 2013.64 1262.29 2011.8 1261.65 2010.43 1260.43 2009.07 1259.22 2008.09 1257.91 2007.51 1256.49 2007.33 1257.14 2007 1258.37 2006.53 1260.18 2006.06 1262 2005.55 1263.98 2005.01 1266.14 2004.47 1268.3 2004 1270.21 2003.61 1271.88 2003.22 1273.54 2003.02 1274.55 2003 1274.89 2002.9 1275.32 2003.09 1275.67 2003.57 1275.94 2004.05 1276.21 2005.4 1276.36 2007.6 1276.37 2008.26 1276.34 2008.79 1276.39 2009.19 1276.49 2009.59 1276.6 2009.8 1276.89 2009.81 1277.37 2009.77 1278.25 2009.55 1278.79 2009.15 1278.98 2008.76 1279.17 2008.42 1279.24 2008.15 1279.21 2006.67 1279.19 2005.17 1279.15 2003.63 1279.07 2002.1 1278.99 2000.57 1278.94 1999.04 1278.93 1997.75 1278.94 1996.46 1278.99 1995.15 1279.07 1993.85 1279.15 1992.57 1279.19 1991.32 1279.21 1990.95 1279.21 1990.66 1279.11 1990.45 1278.93 1990.24 1278.75 1990.13 1278.47 1990.13 1278.11 1990.15 1277.27 1990.36 1276.76 1990.77 1276.58 1991.18 1276.4 1991.67 1276.33 1992.24 1276.37 1994.18 1276.4 1995.42 1276.17 1995.97 1275.65 1996.52 1275.14 1996.93 1274.12 1997.21 1272.59L2007.51 1231.65C2007.7 1230.9 2007.85 1230.18 2007.97 1229.51 2008.09 1228.83 2008.15 1227.98 2008.15 1226.95 2008.13 1225.25 2007.85 1224.1 2007.31 1223.52 2006.77 1222.94 2006.1 1222.68 2005.3 1222.72 2003.67 1222.77 2002.33 1223.77 2001.28 1225.74 2000.24 1227.71 1999.34 1230.35 1998.58 1233.67 1998.33 1234.64 1998.12 1235.25 1997.94 1235.49 1997.76 1235.73 1997.46 1235.82 1997.02 1235.79 1996.98 1235.81 1996.79 1235.77 1996.47 1235.67 1996.15 1235.58 1995.97 1235.31 1995.92 1234.87 1995.93 1234.73 1996.05 1234.15 1996.29 1233.12 1996.54 1232.1 1996.87 1230.92 1997.3 1229.58 1997.72 1228.24 1998.21 1227.03 1998.77 1225.94 1999.15 1225 1999.86 1223.92 2000.89 1222.7 2001.93 1221.49 2003.49 1220.82 2005.58 1220.71Z" fill-rule="evenodd"/><text fill="#000000" fill-opacity="0" font-family="Arial,Arial_MSFontService,sans-serif" font-size="58.5107" x="1990.13" y="1271.9">𝑝</text><path d="M2057.32 1250.52C2058.08 1250.49 2058.87 1250.67 2059.7 1251.04 2060.52 1251.41 2061.5 1252.16 2062.62 1253.27 2063.61 1254.2 2064.4 1254.78 2064.98 1255 2065.57 1255.22 2066.05 1255.32 2066.44 1255.28 2067.23 1255.3 2068.02 1255 2068.81 1254.39 2069.6 1253.78 2070.51 1252.71 2071.53 1251.19 2071.68 1250.93 2071.84 1250.75 2072 1250.66 2072.15 1250.56 2072.37 1250.52 2072.66 1250.52 2072.83 1250.5 2073.05 1250.54 2073.33 1250.62 2073.62 1250.71 2073.77 1250.94 2073.8 1251.32 2073.78 1251.77 2073.19 1252.74 2072.02 1254.23 2070.85 1255.73 2069.24 1257.51 2067.18 1259.56 2066.49 1260.22 2065.58 1261.02 2064.45 1261.97 2063.33 1262.91 2062.23 1263.82 2061.16 1264.68 2060.1 1265.55 2059.31 1266.19 2058.8 1266.6 2056.05 1268.8 2054.12 1270.41 2052.99 1271.44 2051.87 1272.47 2050.92 1273.38 2050.15 1274.17 2050.39 1274.14 2050.7 1274.12 2051.07 1274.11 2051.45 1274.11 2051.65 1274.1 2051.69 1274.11 2052.23 1274.09 2052.8 1274.12 2053.4 1274.19 2054.01 1274.26 2055.04 1274.45 2056.52 1274.78 2057.36 1274.98 2058.19 1275.15 2059.02 1275.29 2059.84 1275.43 2060.64 1275.51 2061.41 1275.51 2063.12 1275.52 2064.79 1275.11 2066.42 1274.29 2068.05 1273.47 2069.22 1272.23 2069.93 1270.55 2070.04 1270.19 2070.18 1269.92 2070.33 1269.74 2070.48 1269.57 2070.74 1269.48 2071.13 1269.48 2071.35 1269.47 2071.59 1269.51 2071.84 1269.62 2072.1 1269.72 2072.24 1269.97 2072.26 1270.35 2072.25 1271.2 2071.78 1272.43 2070.83 1274.06 2069.89 1275.68 2068.55 1277.18 2066.82 1278.55 2065.08 1279.92 2063.01 1280.64 2060.61 1280.73 2059.57 1280.73 2058.63 1280.48 2057.8 1279.98 2056.97 1279.47 2056.05 1278.72 2055.04 1277.71 2054.15 1276.91 2053.42 1276.41 2052.86 1276.22 2052.29 1276.02 2051.81 1275.94 2051.43 1275.97 2050.29 1275.98 2049.2 1276.35 2048.17 1277.06 2047.14 1277.78 2046.18 1278.78 2045.27 1280.06 2045.12 1280.32 2044.97 1280.5 2044.83 1280.6 2044.68 1280.69 2044.45 1280.74 2044.13 1280.73 2043.97 1280.75 2043.74 1280.71 2043.46 1280.63 2043.18 1280.55 2043.02 1280.31 2042.99 1279.93 2042.99 1279.6 2043.48 1278.77 2044.47 1277.43 2045.45 1276.1 2046.95 1274.43 2048.95 1272.43 2049.53 1271.8 2050.42 1270.96 2051.62 1269.9 2052.82 1268.84 2054.7 1267.29 2057.26 1265.26 2059.34 1263.59 2060.96 1262.26 2062.12 1261.29 2063.27 1260.32 2064.16 1259.53 2064.8 1258.92 2065.44 1258.31 2066.03 1257.72 2066.57 1257.15 2065.83 1257.16 2065.11 1257.13 2064.41 1257.05 2063.72 1256.96 2062.49 1256.73 2060.74 1256.34 2060.25 1256.23 2059.62 1256.1 2058.86 1255.97 2058.09 1255.83 2057.31 1255.75 2056.52 1255.74 2056.13 1255.73 2055.54 1255.77 2054.75 1255.86 2053.97 1255.95 2053.19 1256.18 2052.41 1256.53 2051.63 1256.89 2051.06 1257.45 2050.69 1258.22 2050.57 1258.58 2050.44 1258.83 2050.29 1258.96 2050.14 1259.1 2049.87 1259.16 2049.49 1259.16 2049.23 1259.16 2048.99 1259.1 2048.74 1258.98 2048.5 1258.86 2048.37 1258.65 2048.35 1258.35 2048.36 1257.62 2048.74 1256.65 2049.49 1255.43 2050.23 1254.21 2051.27 1253.1 2052.61 1252.1 2053.96 1251.11 2055.53 1250.58 2057.32 1250.52Z" fill-rule="evenodd"/><text fill="#000000" fill-opacity="0" font-family="Arial,Arial_MSFontService,sans-serif" font-size="30.2169" x="2042.99" y="1276.96">𝑧</text><path d="M1329.82 1200.28C1329.03 1200.25 1327.99 1200.48 1326.72 1200.96 1325.44 1201.45 1323.99 1202.39 1322.37 1203.78 1321.48 1204.5 1320.56 1205.43 1319.6 1206.59 1318.63 1207.74 1317.96 1208.95 1317.58 1210.22L1313.07 1228.26C1312.94 1228.81 1312.86 1229.19 1312.83 1229.41 1312.8 1229.63 1312.79 1229.74 1312.8 1229.73 1312.77 1230.01 1312.95 1230.8 1313.33 1232.1 1313.71 1233.41 1314.43 1234.68 1315.48 1235.92 1316.54 1237.17 1318.07 1237.83 1320.07 1237.92 1321.82 1237.93 1323.68 1237.16 1325.65 1235.6 1327.62 1234.04 1329.41 1231.66 1331.02 1228.45 1331.6 1227.2 1332.25 1225.4 1332.97 1223.04 1333.7 1220.68 1334.33 1218.21 1334.86 1215.63 1335.4 1213.05 1335.69 1210.82 1335.71 1208.94 1335.7 1206.2 1335.18 1204.08 1334.15 1202.57 1333.12 1201.07 1331.68 1200.31 1329.82 1200.28ZM1309.76 1198.27C1311.54 1198.25 1313.23 1198.78 1314.83 1199.85 1316.44 1200.93 1317.51 1202.7 1318.04 1205.16 1319.59 1203.31 1321.4 1201.71 1323.48 1200.37 1325.57 1199.03 1327.77 1198.34 1330.1 1198.27 1333.67 1198.34 1336.58 1199.72 1338.83 1202.38 1341.09 1205.05 1342.25 1208.59 1342.33 1212.98 1342.25 1217.58 1341.12 1221.91 1338.95 1225.98 1336.78 1230.06 1334.01 1233.38 1330.65 1235.96 1327.29 1238.53 1323.79 1239.85 1320.16 1239.94 1317.83 1239.86 1315.98 1239.21 1314.61 1238 1313.25 1236.78 1312.28 1235.47 1311.69 1234.06 1311.51 1234.7 1311.19 1235.93 1310.72 1237.75 1310.24 1239.57 1309.74 1241.55 1309.2 1243.71 1308.65 1245.86 1308.19 1247.78 1307.8 1249.44 1307.41 1251.11 1307.2 1252.11 1307.18 1252.46 1307.09 1252.88 1307.28 1253.23 1307.76 1253.51 1308.24 1253.78 1309.58 1253.92 1311.78 1253.93 1312.44 1253.91 1312.97 1253.95 1313.37 1254.06 1313.77 1254.16 1313.98 1254.46 1313.99 1254.94 1313.95 1255.82 1313.73 1256.35 1313.34 1256.54 1312.94 1256.73 1312.61 1256.81 1312.34 1256.77 1310.86 1256.76 1309.35 1256.72 1307.82 1256.64 1306.28 1256.56 1304.75 1256.51 1303.23 1256.5 1301.94 1256.51 1300.64 1256.56 1299.34 1256.64 1298.03 1256.72 1296.76 1256.76 1295.51 1256.77 1295.14 1256.77 1294.85 1256.68 1294.64 1256.5 1294.42 1256.31 1294.32 1256.04 1294.31 1255.67 1294.33 1254.84 1294.55 1254.33 1294.96 1254.15 1295.37 1253.97 1295.86 1253.9 1296.43 1253.93 1298.36 1253.97 1299.6 1253.73 1300.15 1253.22 1300.7 1252.7 1301.12 1251.68 1301.39 1250.16L1311.69 1209.21C1311.88 1208.46 1312.03 1207.75 1312.15 1207.07 1312.27 1206.39 1312.33 1205.54 1312.34 1204.52 1312.32 1202.81 1312.04 1201.67 1311.5 1201.09 1310.96 1200.51 1310.29 1200.24 1309.48 1200.28 1307.85 1200.33 1306.51 1201.34 1305.47 1203.31 1304.42 1205.28 1303.52 1207.92 1302.77 1211.24 1302.52 1212.21 1302.3 1212.82 1302.12 1213.05 1301.94 1213.29 1301.64 1213.39 1301.21 1213.35 1301.16 1213.37 1300.98 1213.33 1300.66 1213.24 1300.34 1213.14 1300.15 1212.87 1300.11 1212.43 1300.11 1212.29 1300.24 1211.71 1300.48 1210.69 1300.72 1209.67 1301.05 1208.49 1301.48 1207.15 1301.91 1205.81 1302.4 1204.6 1302.95 1203.51 1303.33 1202.56 1304.04 1201.48 1305.08 1200.27 1306.12 1199.05 1307.68 1198.39 1309.76 1198.27Z" fill-rule="evenodd"/><text fill="#000000" fill-opacity="0" font-family="Arial,Arial_MSFontService,sans-serif" font-size="58.5107" x="1294.31" y="1249.47">𝑝</text><path d="M1358.83 1223.62C1359.86 1223.64 1360.71 1223.91 1361.37 1224.44 1362.04 1224.97 1362.66 1225.61 1363.25 1226.36 1363.71 1226.93 1364.18 1227.4 1364.66 1227.8 1365.15 1228.19 1365.76 1228.4 1366.51 1228.42 1367.26 1228.44 1368.02 1228.14 1368.77 1227.52 1369.52 1226.9 1370.36 1225.83 1371.3 1224.32 1371.46 1224.04 1371.6 1223.85 1371.74 1223.75 1371.87 1223.66 1372.05 1223.61 1372.26 1223.62 1372.29 1223.6 1372.41 1223.63 1372.62 1223.7 1372.82 1223.76 1372.94 1223.95 1372.97 1224.26 1373.04 1224.38 1372.55 1225.22 1371.51 1226.76 1370.46 1228.3 1368.46 1230.56 1365.49 1233.53 1364.68 1234.33 1363.8 1235.17 1362.84 1236.05 1361.87 1236.93 1361.03 1237.69 1360.33 1238.31 1359.62 1238.94 1359.25 1239.27 1359.21 1239.29 1358.1 1240.23 1356.98 1241.23 1355.83 1242.3 1354.69 1243.36 1353.28 1244.79 1351.6 1246.59 1351.92 1246.5 1352.28 1246.45 1352.67 1246.43 1353.07 1246.41 1353.28 1246.4 1353.32 1246.4 1353.96 1246.39 1354.6 1246.47 1355.25 1246.63 1355.9 1246.79 1356.75 1247.08 1357.8 1247.48 1358.47 1247.71 1359.11 1247.91 1359.72 1248.07 1360.33 1248.23 1360.95 1248.31 1361.58 1248.32 1362.73 1248.36 1364.09 1247.98 1365.66 1247.19 1367.23 1246.4 1368.43 1244.99 1369.26 1242.94 1369.35 1242.71 1369.45 1242.52 1369.57 1242.36 1369.68 1242.2 1369.88 1242.12 1370.16 1242.11 1370.41 1242.12 1370.6 1242.18 1370.73 1242.31 1370.86 1242.44 1370.92 1242.58 1370.92 1242.75 1370.91 1243.42 1370.52 1244.52 1369.73 1246.07 1368.94 1247.62 1367.79 1249.08 1366.3 1250.43 1364.8 1251.79 1363 1252.51 1360.88 1252.6 1359.96 1252.59 1359.18 1252.36 1358.54 1251.92 1357.9 1251.48 1357.31 1250.92 1356.78 1250.24 1356.02 1249.33 1355.38 1248.69 1354.87 1248.32 1354.37 1247.96 1353.76 1247.79 1353.06 1247.8 1352.04 1247.83 1351.06 1248.21 1350.14 1248.95 1349.21 1249.69 1348.38 1250.63 1347.63 1251.77 1347.45 1252.11 1347.3 1252.34 1347.17 1252.45 1347.04 1252.56 1346.85 1252.61 1346.61 1252.6 1346.58 1252.61 1346.45 1252.59 1346.22 1252.52 1346 1252.46 1345.87 1252.27 1345.84 1251.96 1345.84 1251.69 1346.4 1250.77 1347.5 1249.21 1348.61 1247.65 1350.25 1245.78 1352.43 1243.58L1358.19 1238.21C1358.64 1237.83 1359.42 1237.16 1360.52 1236.19 1361.63 1235.22 1362.8 1234.15 1364.03 1232.99 1365.25 1231.83 1366.27 1230.77 1367.09 1229.82 1366.31 1229.84 1365.6 1229.8 1364.96 1229.7 1364.31 1229.6 1363.38 1229.32 1362.16 1228.86 1361.43 1228.6 1360.74 1228.37 1360.09 1228.19 1359.44 1228 1358.79 1227.91 1358.12 1227.9 1357.92 1227.88 1357.46 1227.92 1356.75 1228.02 1356.05 1228.12 1355.3 1228.39 1354.52 1228.82 1353.73 1229.25 1353.12 1229.94 1352.68 1230.91 1352.63 1231.1 1352.54 1231.27 1352.43 1231.4 1352.32 1231.54 1352.13 1231.6 1351.85 1231.61 1351.57 1231.6 1351.37 1231.52 1351.26 1231.38 1351.14 1231.23 1351.08 1231.08 1351.09 1230.91 1351.1 1230.39 1351.41 1229.56 1352.03 1228.42 1352.65 1227.27 1353.53 1226.2 1354.69 1225.21 1355.84 1224.21 1357.22 1223.68 1358.83 1223.62Z" fill-rule="evenodd"/><text fill="#000000" fill-opacity="0" font-family="Arial,Arial_MSFontService,sans-serif" font-size="28.9906" x="1345.84" y="1248.98">𝑧</text></g></svg>